<svg width="200" height="200" viewBox="0 0 80 80" fill="none" xmlns="http://www.w3.org/2000/svg">
    <path d="M66.6667 59.9999H60V30.8333L40 43.3333L20 30.8333V59.9999H13.3333V19.9999H17.3333L40 34.1666L62.6667 19.9999H66.6667M66.6667 13.3333H13.3333C9.63332 13.3333 6.66666 16.2999 6.66666 19.9999V59.9999C6.66666 61.768 7.36904 63.4637 8.61928 64.714C9.86952 65.9642 11.5652 66.6666 13.3333 66.6666H66.6667C68.4348 66.6666 70.1305 65.9642 71.3807 64.714C72.6309 63.4637 73.3333 61.768 73.3333 59.9999V19.9999C73.3333 18.2318 72.6309 16.5361 71.3807 15.2859C70.1305 14.0356 68.4348 13.3333 66.6667 13.3333Z" fill="#152FC6"/>
</svg>
