<svg xmlns="http://www.w3.org/2000/svg" width="24" height="24" viewBox="0 0 24 24" fill="none">
<g clip-path="url(#clip0_142_868)">
<path fill-rule="evenodd" clip-rule="evenodd" d="M11.293 15.707C11.4805 15.8944 11.7348 15.9998 12 15.9998C12.2652 15.9998 12.5195 15.8944 12.707 15.707L18.364 10.05C18.4595 9.95772 18.5357 9.84738 18.5881 9.72537C18.6405 9.60337 18.6681 9.47215 18.6692 9.33937C18.6704 9.20659 18.6451 9.07491 18.5948 8.95202C18.5445 8.82912 18.4703 8.71747 18.3764 8.62357C18.2825 8.52968 18.1708 8.45543 18.0479 8.40515C17.9251 8.35487 17.7934 8.32957 17.6606 8.33072C17.5278 8.33187 17.3966 8.35946 17.2746 8.41187C17.1526 8.46428 17.0422 8.54046 16.95 8.63597L12 13.586L7.04999 8.63597C6.86139 8.45381 6.60879 8.35302 6.34659 8.3553C6.0844 8.35757 5.83358 8.46274 5.64817 8.64815C5.46277 8.83356 5.3576 9.08437 5.35532 9.34657C5.35304 9.60877 5.45383 9.86137 5.63599 10.05L11.293 15.707Z" fill="#000C61"/>
</g>
<defs>
<clipPath id="clip0_142_868">
<rect width="24" height="24" fill="white" transform="matrix(0 -1 -1 0 24 24)"/>
</clipPath>
</defs>
</svg>