<svg width="656" height="286" viewBox="0 0 656 286" fill="none" xmlns="http://www.w3.org/2000/svg">
<path d="M6.216 12.312H4.08V10.32L8.592 6.168H1.296V3.456H12.432V5.904L8.16 9.84C10.848 10.368 12.936 12.336 12.936 15.432C12.936 19.032 10.128 21.312 6.576 21.312C3.144 21.312 0.48 19.2 0.48 15.408H3.504C3.504 17.424 4.752 18.576 6.624 18.576C8.544 18.576 9.816 17.328 9.816 15.384C9.816 13.608 8.664 12.312 6.216 12.312ZM25.0161 15.84L21.2241 21H17.7201L21.9201 15.408C21.4881 15.528 21.0321 15.6 20.6001 15.6C16.9761 15.6 14.5281 13.056 14.5281 9.504C14.5281 5.76 17.3121 3.144 21.0561 3.144C24.8481 3.144 27.6801 5.928 27.6801 9.528C27.6801 11.64 26.9841 13.176 25.0161 15.84ZM24.5361 9.504C24.5361 7.368 23.1201 5.88 21.0561 5.88C19.0401 5.88 17.6241 7.368 17.6241 9.504C17.6241 11.616 19.0401 13.08 21.0561 13.08C23.1441 13.08 24.5361 11.616 24.5361 9.504ZM38.5309 7.728C38.5309 10.44 36.6109 12.336 33.9469 12.336C31.2829 12.336 29.3629 10.44 29.3629 7.728C29.3629 5.04 31.2829 3.12 33.9469 3.12C36.6109 3.12 38.5309 5.04 38.5309 7.728ZM48.1549 3.48L34.8349 21H31.9069L45.2269 3.48H48.1549ZM36.2029 7.728C36.2029 6.336 35.2909 5.376 33.9469 5.376C32.6029 5.376 31.7149 6.336 31.7149 7.728C31.7149 9.12 32.6269 10.08 33.9469 10.08C35.2909 10.08 36.2029 9.12 36.2029 7.728ZM50.7229 16.704C50.7229 19.392 48.8269 21.312 46.1629 21.312C43.4749 21.312 41.5789 19.392 41.5789 16.704C41.5789 14.016 43.4749 12.096 46.1629 12.096C48.8269 12.096 50.7229 14.016 50.7229 16.704ZM48.3949 16.704C48.3949 15.312 47.4829 14.352 46.1629 14.352C44.8189 14.352 43.9069 15.312 43.9069 16.704C43.9069 18.096 44.8189 19.056 46.1629 19.056C47.4829 19.056 48.3949 18.096 48.3949 16.704Z" fill="#000C61"/>
<path d="M335.423 13.32H336.903V11.44C336.903 9.26 338.103 8.42 339.583 8.42C339.923 8.42 340.323 8.44 340.643 8.5V9.68H339.823C338.603 9.68 338.283 10.3 338.283 11.44V13.32H340.563V14.48H338.283V23H336.903V14.48H335.423V13.32ZM347.5 13.2V14.44H346.74C344.96 14.44 343.82 15.64 343.82 17.48V23H342.44V13.32H343.74L343.84 14.82C344.22 13.78 345.24 13.1 346.6 13.1C346.9 13.1 347.16 13.12 347.5 13.2ZM351.724 23.24C349.664 23.24 348.444 22.08 348.444 20.38C348.444 18.6 349.804 17.48 352.064 17.3L355.264 17.04V16.72C355.264 14.82 354.124 14.22 352.704 14.22C351.024 14.22 350.024 14.98 350.024 16.28H348.764C348.764 14.32 350.364 13.06 352.744 13.06C354.984 13.06 356.624 14.18 356.624 16.74V23H355.464L355.284 21.3C354.684 22.52 353.364 23.24 351.724 23.24ZM352.044 22.12C354.084 22.12 355.264 20.7 355.264 18.6V18.08L352.404 18.3C350.584 18.46 349.844 19.26 349.844 20.34C349.844 21.52 350.724 22.12 352.044 22.12ZM366.193 13.32H367.573V23H366.373L366.193 21.36C365.653 22.48 364.313 23.24 362.793 23.24C360.513 23.24 359.273 21.68 359.273 19.32V13.3H360.673V18.88C360.673 21.18 361.693 22 363.233 22C365.093 22 366.193 20.76 366.193 18.46V13.32ZM374.053 23.24C371.233 23.24 369.573 21.08 369.573 18.18C369.573 15.26 371.233 13.06 374.113 13.06C375.713 13.06 376.993 13.76 377.673 15.16V8.42H379.053V23H377.853L377.713 21.02C377.033 22.52 375.673 23.24 374.053 23.24ZM374.293 21.98C376.413 21.98 377.653 20.38 377.653 18.14C377.653 15.92 376.413 14.3 374.293 14.3C372.193 14.3 370.973 15.92 370.973 18.14C370.973 20.38 372.193 21.98 374.293 21.98ZM388.732 13.32H390.112V23H388.912L388.732 21.36C388.192 22.48 386.852 23.24 385.332 23.24C383.052 23.24 381.812 21.68 381.812 19.32V13.3H383.212V18.88C383.212 21.18 384.232 22 385.772 22C387.632 22 388.732 20.76 388.732 18.46V13.32ZM394.427 23H393.047V8.42H394.427V23ZM401.422 23.24C398.582 23.24 396.682 21.2 396.682 18.16C396.682 15.14 398.562 13.06 401.322 13.06C403.942 13.06 405.722 14.92 405.722 17.66V18.34H398.022C398.122 20.7 399.362 22.06 401.442 22.06C403.022 22.06 404.042 21.38 404.402 20.1H405.722C405.202 22.14 403.702 23.24 401.422 23.24ZM401.322 14.24C399.502 14.24 398.302 15.44 398.062 17.34H404.342C404.342 15.48 403.142 14.24 401.322 14.24ZM409.308 23H407.928V13.32H409.128L409.328 15C409.968 13.76 411.248 13.06 412.648 13.06C415.308 13.06 416.408 14.64 416.408 17.08V23H415.028V17.38C415.028 15.12 414.008 14.32 412.408 14.32C410.428 14.32 409.308 15.76 409.308 17.94V23ZM421.379 23H420.019V14.48H418.079V13.32H420.019V10.26H421.379V13.32H423.319V14.48H421.379V23ZM434.463 23.24C431.643 23.24 429.983 21.08 429.983 18.18C429.983 15.26 431.643 13.06 434.523 13.06C436.123 13.06 437.403 13.76 438.083 15.16V8.42H439.463V23H438.263L438.123 21.02C437.443 22.52 436.083 23.24 434.463 23.24ZM434.703 21.98C436.823 21.98 438.063 20.38 438.063 18.14C438.063 15.92 436.823 14.3 434.703 14.3C432.603 14.3 431.383 15.92 431.383 18.14C431.383 20.38 432.603 21.98 434.703 21.98ZM441.662 18.16C441.662 15.2 443.742 13.06 446.582 13.06C449.422 13.06 451.502 15.2 451.502 18.16C451.502 21.1 449.422 23.24 446.582 23.24C443.742 23.24 441.662 21.1 441.662 18.16ZM443.062 18.14C443.062 20.42 444.502 22 446.582 22C448.642 22 450.102 20.42 450.102 18.14C450.102 15.9 448.642 14.3 446.582 14.3C444.502 14.3 443.062 15.9 443.062 18.14ZM453.03 18.18C453.03 15.14 454.89 13.06 457.71 13.06C459.95 13.06 461.59 14.36 461.97 16.36H460.59C460.23 15.02 459.07 14.28 457.73 14.28C455.77 14.28 454.39 15.78 454.39 18.16C454.39 20.46 455.67 22 457.63 22C459.07 22 460.23 21.2 460.61 19.96H462.01C461.55 21.94 459.83 23.24 457.63 23.24C454.89 23.24 453.03 21.22 453.03 18.18ZM470.9 13.32H472.28V23H471.08L470.9 21.36C470.36 22.48 469.02 23.24 467.5 23.24C465.22 23.24 463.98 21.68 463.98 19.32V13.3H465.38V18.88C465.38 21.18 466.4 22 467.94 22C469.8 22 470.9 20.76 470.9 18.46V13.32ZM476.535 23H475.155V13.32H476.355L476.515 14.7C476.995 13.68 478.075 13.06 479.435 13.06C480.955 13.06 482.095 13.86 482.555 15.12C482.995 13.86 484.175 13.06 485.735 13.06C487.835 13.06 489.215 14.42 489.215 16.66V23H487.875V16.94C487.875 15.28 486.955 14.3 485.475 14.3C483.855 14.3 482.895 15.52 482.895 17.02V23H481.535V16.92C481.535 15.28 480.595 14.32 479.135 14.32C477.515 14.32 476.535 15.52 476.535 17V23ZM496.051 23.24C493.211 23.24 491.311 21.2 491.311 18.16C491.311 15.14 493.191 13.06 495.951 13.06C498.571 13.06 500.351 14.92 500.351 17.66V18.34H492.651C492.751 20.7 493.991 22.06 496.071 22.06C497.651 22.06 498.671 21.38 499.031 20.1H500.351C499.831 22.14 498.331 23.24 496.051 23.24ZM495.951 14.24C494.131 14.24 492.931 15.44 492.691 17.34H498.971C498.971 15.48 497.771 14.24 495.951 14.24ZM503.937 23H502.557V13.32H503.757L503.957 15C504.597 13.76 505.877 13.06 507.277 13.06C509.937 13.06 511.037 14.64 511.037 17.08V23H509.657V17.38C509.657 15.12 508.637 14.32 507.037 14.32C505.057 14.32 503.937 15.76 503.937 17.94V23ZM516.008 23H514.648V14.48H512.708V13.32H514.648V10.26H516.008V13.32H517.948V14.48H516.008V23ZM518.925 20.28H520.245C520.245 21.4 521.085 22.1 522.445 22.1C523.945 22.1 524.825 21.46 524.825 20.42C524.825 19.62 524.425 19.16 523.285 18.88L521.625 18.46C519.945 18.04 519.125 17.16 519.125 15.84C519.125 14.14 520.545 13.06 522.625 13.06C524.665 13.06 525.985 14.18 526.045 15.98H524.705C524.665 14.86 523.885 14.2 522.585 14.2C521.225 14.2 520.465 14.78 520.465 15.82C520.465 16.56 520.985 17.08 522.045 17.34L523.705 17.76C525.385 18.18 526.145 18.96 526.145 20.36C526.145 22.1 524.665 23.24 522.465 23.24C520.285 23.24 518.925 22.08 518.925 20.28ZM536.743 23.24C534.683 23.24 533.463 22.08 533.463 20.38C533.463 18.6 534.823 17.48 537.083 17.3L540.283 17.04V16.72C540.283 14.82 539.143 14.22 537.723 14.22C536.043 14.22 535.043 14.98 535.043 16.28H533.783C533.783 14.32 535.383 13.06 537.763 13.06C540.003 13.06 541.643 14.18 541.643 16.74V23H540.483L540.303 21.3C539.703 22.52 538.383 23.24 536.743 23.24ZM537.063 22.12C539.103 22.12 540.283 20.7 540.283 18.6V18.08L537.423 18.3C535.603 18.46 534.863 19.26 534.863 20.34C534.863 21.52 535.743 22.12 537.063 22.12ZM549.473 13.2V14.44H548.713C546.933 14.44 545.793 15.64 545.793 17.48V23H544.413V13.32H545.713L545.813 14.82C546.193 13.78 547.213 13.1 548.573 13.1C548.873 13.1 549.133 13.12 549.473 13.2ZM554.996 23.24C552.156 23.24 550.256 21.2 550.256 18.16C550.256 15.14 552.136 13.06 554.896 13.06C557.516 13.06 559.296 14.92 559.296 17.66V18.34H551.596C551.696 20.7 552.936 22.06 555.016 22.06C556.596 22.06 557.616 21.38 557.976 20.1H559.296C558.776 22.14 557.276 23.24 554.996 23.24ZM554.896 14.24C553.076 14.24 551.876 15.44 551.636 17.34H557.916C557.916 15.48 556.716 14.24 554.896 14.24ZM566.369 18.18C566.369 15.14 568.229 13.06 571.049 13.06C573.289 13.06 574.929 14.36 575.309 16.36H573.929C573.569 15.02 572.409 14.28 571.069 14.28C569.109 14.28 567.729 15.78 567.729 18.16C567.729 20.46 569.009 22 570.969 22C572.409 22 573.569 21.2 573.949 19.96H575.349C574.889 21.94 573.169 23.24 570.969 23.24C568.229 23.24 566.369 21.22 566.369 18.18ZM578.12 10.66C577.56 10.66 577.1 10.2 577.1 9.64C577.1 9.08 577.56 8.6 578.12 8.6C578.68 8.6 579.16 9.08 579.16 9.64C579.16 10.2 578.68 10.66 578.12 10.66ZM577.44 23V13.32H578.82V23H577.44ZM586.758 13.2V14.44H585.998C584.218 14.44 583.078 15.64 583.078 17.48V23H581.698V13.32H582.998L583.098 14.82C583.478 13.78 584.498 13.1 585.858 13.1C586.158 13.1 586.418 13.12 586.758 13.2ZM587.541 18.18C587.541 15.14 589.401 13.06 592.221 13.06C594.461 13.06 596.101 14.36 596.481 16.36H595.101C594.741 15.02 593.581 14.28 592.241 14.28C590.281 14.28 588.901 15.78 588.901 18.16C588.901 20.46 590.181 22 592.141 22C593.581 22 594.741 21.2 595.121 19.96H596.521C596.061 21.94 594.341 23.24 592.141 23.24C589.401 23.24 587.541 21.22 587.541 18.18ZM605.412 13.32H606.792V23H605.592L605.412 21.36C604.872 22.48 603.532 23.24 602.012 23.24C599.732 23.24 598.492 21.68 598.492 19.32V13.3H599.892V18.88C599.892 21.18 600.912 22 602.452 22C604.312 22 605.412 20.76 605.412 18.46V13.32ZM611.107 23H609.727V8.42H611.107V23ZM616.822 23.24C614.762 23.24 613.542 22.08 613.542 20.38C613.542 18.6 614.902 17.48 617.162 17.3L620.362 17.04V16.72C620.362 14.82 619.222 14.22 617.802 14.22C616.122 14.22 615.122 14.98 615.122 16.28H613.862C613.862 14.32 615.462 13.06 617.842 13.06C620.082 13.06 621.722 14.18 621.722 16.74V23H620.562L620.382 21.3C619.782 22.52 618.462 23.24 616.822 23.24ZM617.142 22.12C619.182 22.12 620.362 20.7 620.362 18.6V18.08L617.502 18.3C615.682 18.46 614.942 19.26 614.942 20.34C614.942 21.52 615.822 22.12 617.142 22.12ZM626.535 23H625.175V14.48H623.235V13.32H625.175V10.26H626.535V13.32H628.475V14.48H626.535V23ZM630.952 10.66C630.392 10.66 629.932 10.2 629.932 9.64C629.932 9.08 630.392 8.6 630.952 8.6C631.512 8.6 631.992 9.08 631.992 9.64C631.992 10.2 631.512 10.66 630.952 10.66ZM630.272 23V13.32H631.652V23H630.272ZM635.91 23H634.53V13.32H635.73L635.93 15C636.57 13.76 637.85 13.06 639.25 13.06C641.91 13.06 643.01 14.64 643.01 17.08V23H641.63V17.38C641.63 15.12 640.61 14.32 639.01 14.32C637.03 14.32 635.91 15.76 635.91 17.94V23ZM645.1 17.88C645.1 15.24 646.8 13.06 649.64 13.06C651.32 13.06 652.6 13.84 653.22 15.26L653.36 13.32H654.56V22.7C654.56 25.58 652.72 27.46 649.88 27.46C647.4 27.46 645.66 26.06 645.28 23.72H646.66C646.96 25.28 648.16 26.2 649.9 26.2C651.88 26.2 653.2 24.86 653.2 22.84V20.54C652.54 21.9 651.2 22.7 649.54 22.7C646.78 22.7 645.1 20.52 645.1 17.88ZM646.48 17.86C646.48 19.84 647.7 21.46 649.74 21.46C651.84 21.46 653.08 19.94 653.08 17.86C653.08 15.8 651.88 14.28 649.76 14.28C647.68 14.28 646.48 15.9 646.48 17.86Z" fill="#47464A"/>
<line y1="53.5" x2="656" y2="53.5" stroke="#FFD7F0"/>
<path d="M7.08 107.288C3.408 107.288 0.984 104.936 0.984 101.384H4.032C4.032 103.376 5.208 104.552 7.152 104.552C9.216 104.552 10.536 103.208 10.536 101.072C10.536 99.032 9.312 97.64 7.2 97.64C5.856 97.64 4.632 98.312 4.008 99.224L1.296 98.648L3.456 89.456H12.6V92.288H5.664L4.728 95.936C5.568 95.384 6.624 95.072 7.824 95.072C11.328 95.072 13.656 97.448 13.656 100.904C13.656 104.696 10.992 107.288 7.08 107.288ZM21.4706 107.288C17.7986 107.288 15.3746 104.936 15.3746 101.384H18.4226C18.4226 103.376 19.5986 104.552 21.5426 104.552C23.6066 104.552 24.9266 103.208 24.9266 101.072C24.9266 99.032 23.7026 97.64 21.5906 97.64C20.2466 97.64 19.0226 98.312 18.3986 99.224L15.6866 98.648L17.8466 89.456H26.9906V92.288H20.0546L19.1186 95.936C19.9586 95.384 21.0146 95.072 22.2146 95.072C25.7186 95.072 28.0466 97.448 28.0466 100.904C28.0466 104.696 25.3826 107.288 21.4706 107.288ZM38.7653 93.728C38.7653 96.44 36.8453 98.336 34.1813 98.336C31.5173 98.336 29.5973 96.44 29.5973 93.728C29.5973 91.04 31.5173 89.12 34.1813 89.12C36.8453 89.12 38.7653 91.04 38.7653 93.728ZM48.3893 89.48L35.0693 107H32.1413L45.4613 89.48H48.3893ZM36.4373 93.728C36.4373 92.336 35.5253 91.376 34.1813 91.376C32.8373 91.376 31.9492 92.336 31.9492 93.728C31.9492 95.12 32.8613 96.08 34.1813 96.08C35.5253 96.08 36.4373 95.12 36.4373 93.728ZM50.9573 102.704C50.9573 105.392 49.0613 107.312 46.3973 107.312C43.7093 107.312 41.8133 105.392 41.8133 102.704C41.8133 100.016 43.7093 98.096 46.3973 98.096C49.0613 98.096 50.9573 100.016 50.9573 102.704ZM48.6293 102.704C48.6293 101.312 47.7173 100.352 46.3973 100.352C45.0533 100.352 44.1413 101.312 44.1413 102.704C44.1413 104.096 45.0533 105.056 46.3973 105.056C47.7173 105.056 48.6293 104.096 48.6293 102.704Z" fill="#000C61"/>
<path d="M269.341 109.24C267.281 109.24 266.061 108.08 266.061 106.38C266.061 104.6 267.421 103.48 269.681 103.3L272.881 103.04V102.72C272.881 100.82 271.741 100.22 270.321 100.22C268.641 100.22 267.641 100.98 267.641 102.28H266.381C266.381 100.32 267.981 99.06 270.361 99.06C272.601 99.06 274.241 100.18 274.241 102.74V109H273.081L272.901 107.3C272.301 108.52 270.981 109.24 269.341 109.24ZM269.661 108.12C271.701 108.12 272.881 106.7 272.881 104.6V104.08L270.021 104.3C268.201 104.46 267.461 105.26 267.461 106.34C267.461 107.52 268.341 108.12 269.661 108.12ZM282.07 99.2V100.44H281.31C279.53 100.44 278.39 101.64 278.39 103.48V109H277.01V99.32H278.31L278.41 100.82C278.79 99.78 279.81 99.1 281.17 99.1C281.47 99.1 281.73 99.12 282.07 99.2ZM287.594 109.24C284.754 109.24 282.854 107.2 282.854 104.16C282.854 101.14 284.734 99.06 287.494 99.06C290.114 99.06 291.894 100.92 291.894 103.66V104.34H284.194C284.294 106.7 285.534 108.06 287.614 108.06C289.194 108.06 290.214 107.38 290.574 106.1H291.894C291.374 108.14 289.874 109.24 287.594 109.24ZM287.494 100.24C285.674 100.24 284.474 101.44 284.234 103.34H290.514C290.514 101.48 289.314 100.24 287.494 100.24ZM301.027 109H299.647V99.32H300.847L301.007 100.7C301.487 99.68 302.567 99.06 303.927 99.06C305.447 99.06 306.587 99.86 307.047 101.12C307.487 99.86 308.667 99.06 310.227 99.06C312.327 99.06 313.707 100.42 313.707 102.66V109H312.367V102.94C312.367 101.28 311.447 100.3 309.967 100.3C308.347 100.3 307.387 101.52 307.387 103.02V109H306.027V102.92C306.027 101.28 305.087 100.32 303.627 100.32C302.007 100.32 301.027 101.52 301.027 103V109ZM319.263 109.24C317.203 109.24 315.983 108.08 315.983 106.38C315.983 104.6 317.343 103.48 319.603 103.3L322.803 103.04V102.72C322.803 100.82 321.663 100.22 320.243 100.22C318.563 100.22 317.563 100.98 317.563 102.28H316.303C316.303 100.32 317.903 99.06 320.283 99.06C322.523 99.06 324.163 100.18 324.163 102.74V109H323.003L322.823 107.3C322.223 108.52 320.903 109.24 319.263 109.24ZM319.583 108.12C321.623 108.12 322.803 106.7 322.803 104.6V104.08L319.943 104.3C318.123 104.46 317.383 105.26 317.383 106.34C317.383 107.52 318.263 108.12 319.583 108.12ZM328.312 109H326.932V99.32H328.132L328.332 101C328.972 99.76 330.252 99.06 331.652 99.06C334.312 99.06 335.412 100.64 335.412 103.08V109H334.032V103.38C334.032 101.12 333.012 100.32 331.412 100.32C329.432 100.32 328.312 101.76 328.312 103.94V109ZM344.963 99.32H346.343V109H345.143L344.963 107.36C344.423 108.48 343.083 109.24 341.563 109.24C339.283 109.24 338.043 107.68 338.043 105.32V99.3H339.443V104.88C339.443 107.18 340.463 108 342.003 108C343.863 108 344.963 106.76 344.963 104.46V99.32ZM351.997 109.24C349.937 109.24 348.717 108.08 348.717 106.38C348.717 104.6 350.077 103.48 352.337 103.3L355.537 103.04V102.72C355.537 100.82 354.397 100.22 352.977 100.22C351.297 100.22 350.297 100.98 350.297 102.28H349.037C349.037 100.32 350.637 99.06 353.017 99.06C355.257 99.06 356.897 100.18 356.897 102.74V109H355.737L355.557 107.3C354.957 108.52 353.637 109.24 351.997 109.24ZM352.317 108.12C354.357 108.12 355.537 106.7 355.537 104.6V104.08L352.677 104.3C350.857 104.46 350.117 105.26 350.117 106.34C350.117 107.52 350.997 108.12 352.317 108.12ZM361.107 109H359.727V94.42H361.107V109ZM365.482 109H364.102V94.42H365.482V109ZM367.437 113.22V112.08H368.497C369.337 112.08 370.177 112.02 370.657 110.72L371.077 109.58L367.157 99.32H368.617L371.737 107.76L374.797 99.32H376.217L371.777 111.22C371.217 112.74 370.277 113.36 368.897 113.36C368.317 113.36 367.877 113.32 367.437 113.22ZM386.158 109.24C384.098 109.24 382.878 108.08 382.878 106.38C382.878 104.6 384.238 103.48 386.498 103.3L389.698 103.04V102.72C389.698 100.82 388.558 100.22 387.138 100.22C385.458 100.22 384.458 100.98 384.458 102.28H383.198C383.198 100.32 384.798 99.06 387.178 99.06C389.418 99.06 391.058 100.18 391.058 102.74V109H389.898L389.718 107.3C389.118 108.52 387.798 109.24 386.158 109.24ZM386.478 108.12C388.518 108.12 389.698 106.7 389.698 104.6V104.08L386.838 104.3C385.018 104.46 384.278 105.26 384.278 106.34C384.278 107.52 385.158 108.12 386.478 108.12ZM395.207 109H393.827V99.32H395.027L395.227 101C395.867 99.76 397.147 99.06 398.547 99.06C401.207 99.06 402.307 100.64 402.307 103.08V109H400.927V103.38C400.927 101.12 399.907 100.32 398.307 100.32C396.327 100.32 395.207 101.76 395.207 103.94V109ZM408.857 109.24C406.037 109.24 404.377 107.08 404.377 104.18C404.377 101.26 406.037 99.06 408.917 99.06C410.517 99.06 411.797 99.76 412.477 101.16V94.42H413.857V109H412.657L412.517 107.02C411.837 108.52 410.477 109.24 408.857 109.24ZM409.097 107.98C411.217 107.98 412.457 106.38 412.457 104.14C412.457 101.92 411.217 100.3 409.097 100.3C406.997 100.3 405.777 101.92 405.777 104.14C405.777 106.38 406.997 107.98 409.097 107.98ZM426.084 109.24C423.264 109.24 421.604 107.08 421.604 104.18C421.604 101.26 423.264 99.06 426.144 99.06C427.744 99.06 429.024 99.76 429.704 101.16V94.42H431.084V109H429.884L429.744 107.02C429.064 108.52 427.704 109.24 426.084 109.24ZM426.324 107.98C428.444 107.98 429.684 106.38 429.684 104.14C429.684 101.92 428.444 100.3 426.324 100.3C424.224 100.3 423.004 101.92 423.004 104.14C423.004 106.38 424.224 107.98 426.324 107.98ZM434.643 96.66C434.083 96.66 433.623 96.2 433.623 95.64C433.623 95.08 434.083 94.6 434.643 94.6C435.203 94.6 435.683 95.08 435.683 95.64C435.683 96.2 435.203 96.66 434.643 96.66ZM433.963 109V99.32H435.343V109H433.963ZM437.561 103.88C437.561 101.24 439.261 99.06 442.101 99.06C443.781 99.06 445.061 99.84 445.681 101.26L445.821 99.32H447.021V108.7C447.021 111.58 445.181 113.46 442.341 113.46C439.861 113.46 438.121 112.06 437.741 109.72H439.121C439.421 111.28 440.621 112.2 442.361 112.2C444.341 112.2 445.661 110.86 445.661 108.84V106.54C445.001 107.9 443.661 108.7 442.001 108.7C439.241 108.7 437.561 106.52 437.561 103.88ZM438.941 103.86C438.941 105.84 440.161 107.46 442.201 107.46C444.301 107.46 445.541 105.94 445.541 103.86C445.541 101.8 444.341 100.28 442.221 100.28C440.141 100.28 438.941 101.9 438.941 103.86ZM450.581 96.66C450.021 96.66 449.561 96.2 449.561 95.64C449.561 95.08 450.021 94.6 450.581 94.6C451.141 94.6 451.621 95.08 451.621 95.64C451.621 96.2 451.141 96.66 450.581 96.66ZM449.901 109V99.32H451.281V109H449.901ZM456.379 109H455.019V100.48H453.079V99.32H455.019V96.26H456.379V99.32H458.319V100.48H456.379V109ZM462.74 109.24C460.68 109.24 459.46 108.08 459.46 106.38C459.46 104.6 460.82 103.48 463.08 103.3L466.28 103.04V102.72C466.28 100.82 465.14 100.22 463.72 100.22C462.04 100.22 461.04 100.98 461.04 102.28H459.78C459.78 100.32 461.38 99.06 463.76 99.06C466 99.06 467.64 100.18 467.64 102.74V109H466.48L466.3 107.3C465.7 108.52 464.38 109.24 462.74 109.24ZM463.06 108.12C465.1 108.12 466.28 106.7 466.28 104.6V104.08L463.42 104.3C461.6 104.46 460.86 105.26 460.86 106.34C460.86 107.52 461.74 108.12 463.06 108.12ZM471.849 109H470.469V94.42H471.849V109ZM476.224 109H474.844V94.42H476.224V109ZM478.179 113.22V112.08H479.239C480.079 112.08 480.919 112.02 481.399 110.72L481.819 109.58L477.899 99.32H479.359L482.479 107.76L485.539 99.32H486.959L482.519 111.22C481.959 112.74 481.019 113.36 479.639 113.36C479.059 113.36 478.619 113.32 478.179 113.22ZM496.9 109.24C494.84 109.24 493.62 108.08 493.62 106.38C493.62 104.6 494.98 103.48 497.24 103.3L500.44 103.04V102.72C500.44 100.82 499.3 100.22 497.88 100.22C496.2 100.22 495.2 100.98 495.2 102.28H493.94C493.94 100.32 495.54 99.06 497.92 99.06C500.16 99.06 501.8 100.18 501.8 102.74V109H500.64L500.46 107.3C499.86 108.52 498.54 109.24 496.9 109.24ZM497.22 108.12C499.26 108.12 500.44 106.7 500.44 104.6V104.08L497.58 104.3C495.76 104.46 495.02 105.26 495.02 106.34C495.02 107.52 495.9 108.12 497.22 108.12ZM506.009 109H504.629V94.42H506.009V109ZM511.164 109H509.804V100.48H507.864V99.32H509.804V96.26H511.164V99.32H513.104V100.48H511.164V109ZM518.863 109.24C516.023 109.24 514.123 107.2 514.123 104.16C514.123 101.14 516.003 99.06 518.763 99.06C521.383 99.06 523.163 100.92 523.163 103.66V104.34H515.463C515.563 106.7 516.803 108.06 518.883 108.06C520.463 108.06 521.483 107.38 521.843 106.1H523.163C522.643 108.14 521.143 109.24 518.863 109.24ZM518.763 100.24C516.943 100.24 515.743 101.44 515.503 103.34H521.783C521.783 101.48 520.583 100.24 518.763 100.24ZM530.43 99.2V100.44H529.67C527.89 100.44 526.75 101.64 526.75 103.48V109H525.37V99.32H526.67L526.77 100.82C527.15 99.78 528.17 99.1 529.53 99.1C529.83 99.1 530.09 99.12 530.43 99.2ZM535.953 109.24C533.113 109.24 531.213 107.2 531.213 104.16C531.213 101.14 533.093 99.06 535.853 99.06C538.473 99.06 540.253 100.92 540.253 103.66V104.34H532.553C532.653 106.7 533.893 108.06 535.973 108.06C537.553 108.06 538.573 107.38 538.933 106.1H540.253C539.733 108.14 538.233 109.24 535.953 109.24ZM535.853 100.24C534.033 100.24 532.833 101.44 532.593 103.34H538.873C538.873 101.48 537.673 100.24 535.853 100.24ZM546.26 109.24C543.44 109.24 541.78 107.08 541.78 104.18C541.78 101.26 543.44 99.06 546.32 99.06C547.92 99.06 549.2 99.76 549.88 101.16V94.42H551.26V109H550.06L549.92 107.02C549.24 108.52 547.88 109.24 546.26 109.24ZM546.5 107.98C548.62 107.98 549.86 106.38 549.86 104.14C549.86 101.92 548.62 100.3 546.5 100.3C544.4 100.3 543.18 101.92 543.18 104.14C543.18 106.38 544.4 107.98 546.5 107.98ZM563.486 109.24C560.666 109.24 559.006 107.08 559.006 104.18C559.006 101.26 560.666 99.06 563.546 99.06C565.146 99.06 566.426 99.76 567.106 101.16V94.42H568.486V109H567.286L567.146 107.02C566.466 108.52 565.106 109.24 563.486 109.24ZM563.726 107.98C565.846 107.98 567.086 106.38 567.086 104.14C567.086 101.92 565.846 100.3 563.726 100.3C561.626 100.3 560.406 101.92 560.406 104.14C560.406 106.38 561.626 107.98 563.726 107.98ZM570.686 104.16C570.686 101.2 572.766 99.06 575.606 99.06C578.446 99.06 580.526 101.2 580.526 104.16C580.526 107.1 578.446 109.24 575.606 109.24C572.766 109.24 570.686 107.1 570.686 104.16ZM572.086 104.14C572.086 106.42 573.526 108 575.606 108C577.666 108 579.126 106.42 579.126 104.14C579.126 101.9 577.666 100.3 575.606 100.3C573.526 100.3 572.086 101.9 572.086 104.14ZM582.053 104.18C582.053 101.14 583.913 99.06 586.733 99.06C588.973 99.06 590.613 100.36 590.993 102.36H589.613C589.253 101.02 588.093 100.28 586.753 100.28C584.793 100.28 583.413 101.78 583.413 104.16C583.413 106.46 584.693 108 586.653 108C588.093 108 589.253 107.2 589.633 105.96H591.033C590.573 107.94 588.853 109.24 586.653 109.24C583.913 109.24 582.053 107.22 582.053 104.18ZM599.924 99.32H601.304V109H600.104L599.924 107.36C599.384 108.48 598.044 109.24 596.524 109.24C594.244 109.24 593.004 107.68 593.004 105.32V99.3H594.404V104.88C594.404 107.18 595.424 108 596.964 108C598.824 108 599.924 106.76 599.924 104.46V99.32ZM605.558 109H604.178V99.32H605.378L605.538 100.7C606.018 99.68 607.098 99.06 608.458 99.06C609.978 99.06 611.118 99.86 611.578 101.12C612.018 99.86 613.198 99.06 614.758 99.06C616.858 99.06 618.238 100.42 618.238 102.66V109H616.898V102.94C616.898 101.28 615.978 100.3 614.498 100.3C612.878 100.3 611.918 101.52 611.918 103.02V109H610.558V102.92C610.558 101.28 609.618 100.32 608.158 100.32C606.538 100.32 605.558 101.52 605.558 103V109ZM625.074 109.24C622.234 109.24 620.334 107.2 620.334 104.16C620.334 101.14 622.214 99.06 624.974 99.06C627.594 99.06 629.374 100.92 629.374 103.66V104.34H621.674C621.774 106.7 623.014 108.06 625.094 108.06C626.674 108.06 627.694 107.38 628.054 106.1H629.374C628.854 108.14 627.354 109.24 625.074 109.24ZM624.974 100.24C623.154 100.24 621.954 101.44 621.714 103.34H627.994C627.994 101.48 626.794 100.24 624.974 100.24ZM632.961 109H631.581V99.32H632.781L632.981 101C633.621 99.76 634.901 99.06 636.301 99.06C638.961 99.06 640.061 100.64 640.061 103.08V109H638.681V103.38C638.681 101.12 637.661 100.32 636.061 100.32C634.081 100.32 632.961 101.76 632.961 103.94V109ZM645.031 109H643.671V100.48H641.731V99.32H643.671V96.26H645.031V99.32H646.971V100.48H645.031V109ZM647.948 106.28H649.268C649.268 107.4 650.108 108.1 651.468 108.1C652.968 108.1 653.848 107.46 653.848 106.42C653.848 105.62 653.448 105.16 652.308 104.88L650.648 104.46C648.968 104.04 648.148 103.16 648.148 101.84C648.148 100.14 649.568 99.06 651.648 99.06C653.688 99.06 655.008 100.18 655.068 101.98H653.728C653.688 100.86 652.908 100.2 651.608 100.2C650.248 100.2 649.488 100.78 649.488 101.82C649.488 102.56 650.008 103.08 651.068 103.34L652.728 103.76C654.408 104.18 655.168 104.96 655.168 106.36C655.168 108.1 653.688 109.24 651.488 109.24C649.308 109.24 647.948 108.08 647.948 106.28Z" fill="#47464A"/>
<line y1="139.5" x2="656" y2="139.5" stroke="#FFD7F0"/>
<path d="M5.88 194L1.56 186.464V184.688H3C3.576 184.688 4.08 184.608 4.512 184.448C4.96 184.272 5.328 184.024 5.616 183.704C5.92 183.384 6.128 183 6.24 182.552H1.56V180.776H6.216C6.12 180.36 5.952 179.992 5.712 179.672C5.488 179.352 5.184 179.104 4.8 178.928C4.432 178.736 3.984 178.64 3.456 178.64H1.56V176.864H12.384V178.64H8.616C8.888 178.944 9.112 179.272 9.288 179.624C9.48 179.976 9.608 180.36 9.672 180.776H12.384V182.552H9.72C9.56 183.736 9.104 184.664 8.352 185.336C7.6 185.992 6.632 186.44 5.448 186.68L10.152 194H5.88ZM18.3904 179.216H14.5504V176.456H21.3424V194H18.3904V179.216ZM27.6248 179.216H23.7848V176.456H30.5768V194H27.6248V179.216ZM43.464 194H40.56V176.144H43.464V194ZM50.0634 194.312C47.5434 194.312 46.0074 192.848 46.0074 190.616C46.0074 188.432 47.5914 187.064 50.3994 186.848L53.9514 186.584V186.32C53.9514 184.712 52.9914 184.064 51.5034 184.064C49.7754 184.064 48.8154 184.784 48.8154 186.032H46.3194C46.3194 183.464 48.4314 181.784 51.6474 181.784C54.8394 181.784 56.8074 183.512 56.8074 186.8V194H54.2394L54.0234 192.248C53.5194 193.472 51.9114 194.312 50.0634 194.312ZM51.0234 192.104C52.8234 192.104 53.9754 191.024 53.9754 189.2V188.576L51.5034 188.768C49.6794 188.936 48.9834 189.536 48.9834 190.496C48.9834 191.576 49.7034 192.104 51.0234 192.104ZM62.6359 194H59.7319V176.144H62.6359V187.112L67.2439 182.144H70.9159L66.4039 186.848L70.8199 194H67.4599L64.3639 189.008L62.6359 190.808V194ZM75.5259 194H72.5979V176.144H75.5499V183.68C76.2939 182.528 77.6859 181.784 79.3899 181.784C82.3179 181.784 83.8539 183.632 83.8539 186.704V194H80.9259V187.4C80.9259 185.408 79.9419 184.448 78.4539 184.448C76.6059 184.448 75.5259 185.744 75.5259 187.52V194ZM97.2315 194H94.3035V184.592H92.0235V182.144H94.3035V178.448H97.2315V182.144H99.5355V184.592H97.2315V194ZM100.543 188.048C100.543 184.352 103.207 181.808 106.879 181.808C110.551 181.808 113.215 184.352 113.215 188.048C113.215 191.744 110.551 194.288 106.879 194.288C103.207 194.288 100.543 191.744 100.543 188.048ZM103.471 188.048C103.471 190.208 104.863 191.672 106.879 191.672C108.895 191.672 110.287 190.208 110.287 188.048C110.287 185.888 108.895 184.424 106.879 184.424C104.863 184.424 103.471 185.888 103.471 188.048ZM5.88 220L1.56 212.464V210.688H3C3.576 210.688 4.08 210.608 4.512 210.448C4.96 210.272 5.328 210.024 5.616 209.704C5.92 209.384 6.128 209 6.24 208.552H1.56V206.776H6.216C6.12 206.36 5.952 205.992 5.712 205.672C5.488 205.352 5.184 205.104 4.8 204.928C4.432 204.736 3.984 204.64 3.456 204.64H1.56V202.864H12.384V204.64H8.616C8.888 204.944 9.112 205.272 9.288 205.624C9.48 205.976 9.608 206.36 9.672 206.776H12.384V208.552H9.72C9.56 209.736 9.104 210.664 8.352 211.336C7.6 211.992 6.632 212.44 5.448 212.68L10.152 220H5.88ZM18.3904 205.216H14.5504V202.456H21.3424V220H18.3904V205.216ZM37.9129 216.664H35.7769V220H32.8729V216.664H23.9689V213.976L31.9129 202.456H35.7769V213.976H37.9129V216.664ZM27.2329 213.976H32.8729V205.768L27.2329 213.976ZM41.9175 220.288C40.8615 220.288 39.9735 219.424 39.9735 218.392C39.9735 217.336 40.8615 216.472 41.9175 216.472C42.9735 216.472 43.8615 217.336 43.8615 218.392C43.8615 219.424 42.9735 220.288 41.9175 220.288ZM59.8269 216.664H57.6909V220H54.7869V216.664H45.8829V213.976L53.8269 202.456H57.6909V213.976H59.8269V216.664ZM49.1469 213.976H54.7869V205.768L49.1469 213.976ZM67.6659 220.288C63.9939 220.288 61.5699 217.936 61.5699 214.384H64.6179C64.6179 216.376 65.7939 217.552 67.7379 217.552C69.8019 217.552 71.1219 216.208 71.1219 214.072C71.1219 212.032 69.8979 210.64 67.7859 210.64C66.4419 210.64 65.2179 211.312 64.5939 212.224L61.8819 211.648L64.0419 202.456H73.1859V205.288H66.2499L65.3139 208.936C66.1539 208.384 67.2099 208.072 68.4099 208.072C71.9139 208.072 74.2419 210.448 74.2419 213.904C74.2419 217.696 71.5779 220.288 67.6659 220.288ZM90.8053 220.288C85.6933 220.288 82.3813 216.736 82.3813 211.24C82.3813 205.792 85.8133 202.168 90.9493 202.168C95.1013 202.168 98.1973 204.592 98.7973 208.36H95.5573C94.9573 206.32 93.2053 205.12 90.8773 205.12C87.6373 205.12 85.5973 207.472 85.5973 211.216C85.5973 214.936 87.6613 217.336 90.8773 217.336C93.2533 217.336 95.0773 216.088 95.6533 214.144H98.8453C98.1733 217.84 94.9573 220.288 90.8053 220.288ZM108.608 208.096V210.808H107.528C105.416 210.808 104.096 211.936 104.096 214.24V220H101.168V208.168H103.928L104.096 209.896C104.6 208.72 105.728 207.928 107.312 207.928C107.72 207.928 108.128 207.976 108.608 208.096ZM120.563 202.456V217.168H127.907V220H117.491V202.456H120.563ZM145.569 211.216C145.569 216.544 142.065 220.288 137.025 220.288C132.009 220.288 128.553 216.568 128.553 211.216C128.553 205.888 132.033 202.144 137.049 202.144C142.065 202.144 145.569 205.864 145.569 211.216ZM142.329 211.216C142.329 207.472 140.265 205.096 137.049 205.096C133.833 205.096 131.769 207.472 131.769 211.216C131.769 214.96 133.833 217.336 137.049 217.336C140.265 217.336 142.329 214.912 142.329 211.216ZM147.42 207.352C147.42 204.28 149.964 202.144 153.66 202.144C157.212 202.144 159.468 204.112 159.564 207.28H156.492C156.42 205.768 155.34 204.88 153.612 204.88C151.716 204.88 150.492 205.792 150.492 207.256C150.492 208.504 151.164 209.2 152.628 209.536L155.388 210.136C158.388 210.784 159.852 212.32 159.852 214.936C159.852 218.2 157.308 220.312 153.444 220.312C149.7 220.312 147.252 218.32 147.18 215.176H150.252C150.276 216.664 151.476 217.552 153.444 217.552C155.484 217.552 156.78 216.664 156.78 215.2C156.78 214.024 156.18 213.328 154.74 213.016L151.956 212.392C148.98 211.744 147.42 210.04 147.42 207.352ZM161.788 207.352C161.788 204.28 164.332 202.144 168.028 202.144C171.58 202.144 173.836 204.112 173.932 207.28H170.86C170.788 205.768 169.708 204.88 167.98 204.88C166.084 204.88 164.86 205.792 164.86 207.256C164.86 208.504 165.532 209.2 166.996 209.536L169.756 210.136C172.756 210.784 174.22 212.32 174.22 214.936C174.22 218.2 171.676 220.312 167.812 220.312C164.068 220.312 161.62 218.32 161.548 215.176H164.62C164.644 216.664 165.844 217.552 167.812 217.552C169.852 217.552 171.148 216.664 171.148 215.2C171.148 214.024 170.548 213.328 169.108 213.016L166.324 212.392C163.348 211.744 161.788 210.04 161.788 207.352Z" fill="#000C61"/>
<path d="M198.88 185.32H200.36V183.44C200.36 181.26 201.56 180.42 203.04 180.42C203.38 180.42 203.78 180.44 204.1 180.5V181.68H203.28C202.06 181.68 201.74 182.3 201.74 183.44V185.32H204.02V186.48H201.74V195H200.36V186.48H198.88V185.32ZM210.957 185.2V186.44H210.197C208.417 186.44 207.277 187.64 207.277 189.48V195H205.897V185.32H207.197L207.297 186.82C207.677 185.78 208.697 185.1 210.057 185.1C210.357 185.1 210.617 185.12 210.957 185.2ZM215.181 195.24C213.121 195.24 211.901 194.08 211.901 192.38C211.901 190.6 213.261 189.48 215.521 189.3L218.721 189.04V188.72C218.721 186.82 217.581 186.22 216.161 186.22C214.481 186.22 213.481 186.98 213.481 188.28H212.221C212.221 186.32 213.821 185.06 216.201 185.06C218.441 185.06 220.081 186.18 220.081 188.74V195H218.921L218.741 193.3C218.141 194.52 216.821 195.24 215.181 195.24ZM215.501 194.12C217.541 194.12 218.721 192.7 218.721 190.6V190.08L215.861 190.3C214.041 190.46 213.301 191.26 213.301 192.34C213.301 193.52 214.181 194.12 215.501 194.12ZM229.65 185.32H231.03V195H229.83L229.65 193.36C229.11 194.48 227.77 195.24 226.25 195.24C223.97 195.24 222.73 193.68 222.73 191.32V185.3H224.13V190.88C224.13 193.18 225.15 194 226.69 194C228.55 194 229.65 192.76 229.65 190.46V185.32ZM237.51 195.24C234.69 195.24 233.03 193.08 233.03 190.18C233.03 187.26 234.69 185.06 237.57 185.06C239.17 185.06 240.45 185.76 241.13 187.16V180.42H242.51V195H241.31L241.17 193.02C240.49 194.52 239.13 195.24 237.51 195.24ZM237.75 193.98C239.87 193.98 241.11 192.38 241.11 190.14C241.11 187.92 239.87 186.3 237.75 186.3C235.65 186.3 234.43 187.92 234.43 190.14C234.43 192.38 235.65 193.98 237.75 193.98ZM250.256 190.18C250.256 187.14 252.116 185.06 254.936 185.06C257.176 185.06 258.816 186.36 259.196 188.36H257.816C257.456 187.02 256.296 186.28 254.956 186.28C252.996 186.28 251.616 187.78 251.616 190.16C251.616 192.46 252.896 194 254.856 194C256.296 194 257.456 193.2 257.836 191.96H259.236C258.776 193.94 257.056 195.24 254.856 195.24C252.116 195.24 250.256 193.22 250.256 190.18ZM260.647 190.16C260.647 187.2 262.727 185.06 265.567 185.06C268.407 185.06 270.487 187.2 270.487 190.16C270.487 193.1 268.407 195.24 265.567 195.24C262.727 195.24 260.647 193.1 260.647 190.16ZM262.047 190.14C262.047 192.42 263.487 194 265.567 194C267.627 194 269.087 192.42 269.087 190.14C269.087 187.9 267.627 186.3 265.567 186.3C263.487 186.3 262.047 187.9 262.047 190.14ZM271.874 192.28H273.194C273.194 193.4 274.034 194.1 275.394 194.1C276.894 194.1 277.774 193.46 277.774 192.42C277.774 191.62 277.374 191.16 276.234 190.88L274.574 190.46C272.894 190.04 272.074 189.16 272.074 187.84C272.074 186.14 273.494 185.06 275.574 185.06C277.614 185.06 278.934 186.18 278.994 187.98H277.654C277.614 186.86 276.834 186.2 275.534 186.2C274.174 186.2 273.414 186.78 273.414 187.82C273.414 188.56 273.934 189.08 274.994 189.34L276.654 189.76C278.334 190.18 279.094 190.96 279.094 192.36C279.094 194.1 277.614 195.24 275.414 195.24C273.234 195.24 271.874 194.08 271.874 192.28ZM283.586 195H282.226V186.48H280.286V185.32H282.226V182.26H283.586V185.32H285.526V186.48H283.586V195ZM286.503 192.28H287.823C287.823 193.4 288.663 194.1 290.023 194.1C291.523 194.1 292.403 193.46 292.403 192.42C292.403 191.62 292.003 191.16 290.863 190.88L289.203 190.46C287.523 190.04 286.703 189.16 286.703 187.84C286.703 186.14 288.123 185.06 290.203 185.06C292.243 185.06 293.563 186.18 293.623 187.98H292.283C292.243 186.86 291.463 186.2 290.163 186.2C288.803 186.2 288.043 186.78 288.043 187.82C288.043 188.56 288.563 189.08 289.623 189.34L291.283 189.76C292.963 190.18 293.723 190.96 293.723 192.36C293.723 194.1 292.243 195.24 290.043 195.24C287.863 195.24 286.503 194.08 286.503 192.28ZM300.862 190.18C300.862 187.14 302.722 185.06 305.542 185.06C307.782 185.06 309.422 186.36 309.802 188.36H308.422C308.062 187.02 306.902 186.28 305.562 186.28C303.602 186.28 302.222 187.78 302.222 190.16C302.222 192.46 303.502 194 305.462 194C306.902 194 308.062 193.2 308.442 191.96H309.842C309.382 193.94 307.662 195.24 305.462 195.24C302.722 195.24 300.862 193.22 300.862 190.18ZM311.252 190.16C311.252 187.2 313.332 185.06 316.172 185.06C319.012 185.06 321.092 187.2 321.092 190.16C321.092 193.1 319.012 195.24 316.172 195.24C313.332 195.24 311.252 193.1 311.252 190.16ZM312.652 190.14C312.652 192.42 314.092 194 316.172 194C318.232 194 319.692 192.42 319.692 190.14C319.692 187.9 318.232 186.3 316.172 186.3C314.092 186.3 312.652 187.9 312.652 190.14ZM324.679 195H323.299V185.32H324.499L324.659 186.7C325.139 185.68 326.219 185.06 327.579 185.06C329.099 185.06 330.239 185.86 330.699 187.12C331.139 185.86 332.319 185.06 333.879 185.06C335.979 185.06 337.359 186.42 337.359 188.66V195H336.019V188.94C336.019 187.28 335.099 186.3 333.619 186.3C331.999 186.3 331.039 187.52 331.039 189.02V195H329.679V188.92C329.679 187.28 328.739 186.32 327.279 186.32C325.659 186.32 324.679 187.52 324.679 189V195ZM340.135 199.22V185.32H341.335L341.475 187.28C342.155 185.78 343.515 185.06 345.135 185.06C347.935 185.06 349.615 187.2 349.615 190.12C349.615 193.04 347.995 195.24 345.135 195.24C343.495 195.24 342.195 194.54 341.515 193.14V199.22H340.135ZM341.535 190.16C341.535 192.38 342.775 194 344.895 194C346.995 194 348.215 192.38 348.215 190.16C348.215 187.92 346.995 186.32 344.895 186.32C342.775 186.32 341.535 187.92 341.535 190.16ZM354.595 195.24C352.535 195.24 351.315 194.08 351.315 192.38C351.315 190.6 352.675 189.48 354.935 189.3L358.135 189.04V188.72C358.135 186.82 356.995 186.22 355.575 186.22C353.895 186.22 352.895 186.98 352.895 188.28H351.635C351.635 186.32 353.235 185.06 355.615 185.06C357.855 185.06 359.495 186.18 359.495 188.74V195H358.335L358.155 193.3C357.555 194.52 356.235 195.24 354.595 195.24ZM354.915 194.12C356.955 194.12 358.135 192.7 358.135 190.6V190.08L355.275 190.3C353.455 190.46 352.715 191.26 352.715 192.34C352.715 193.52 353.595 194.12 354.915 194.12ZM363.644 195H362.264V185.32H363.464L363.664 187C364.304 185.76 365.584 185.06 366.984 185.06C369.644 185.06 370.744 186.64 370.744 189.08V195H369.364V189.38C369.364 187.12 368.344 186.32 366.744 186.32C364.764 186.32 363.644 187.76 363.644 189.94V195ZM374.175 182.66C373.615 182.66 373.155 182.2 373.155 181.64C373.155 181.08 373.615 180.6 374.175 180.6C374.735 180.6 375.215 181.08 375.215 181.64C375.215 182.2 374.735 182.66 374.175 182.66ZM373.495 195V185.32H374.875V195H373.495ZM381.813 195.24C378.973 195.24 377.073 193.2 377.073 190.16C377.073 187.14 378.952 185.06 381.713 185.06C384.333 185.06 386.113 186.92 386.113 189.66V190.34H378.413C378.513 192.7 379.753 194.06 381.833 194.06C383.413 194.06 384.433 193.38 384.793 192.1H386.113C385.593 194.14 384.093 195.24 381.813 195.24ZM381.713 186.24C379.893 186.24 378.693 187.44 378.453 189.34H384.733C384.733 187.48 383.533 186.24 381.713 186.24ZM387.499 192.28H388.819C388.819 193.4 389.659 194.1 391.019 194.1C392.519 194.1 393.399 193.46 393.399 192.42C393.399 191.62 392.999 191.16 391.859 190.88L390.199 190.46C388.519 190.04 387.699 189.16 387.699 187.84C387.699 186.14 389.119 185.06 391.199 185.06C393.239 185.06 394.559 186.18 394.619 187.98H393.279C393.239 186.86 392.459 186.2 391.159 186.2C389.799 186.2 389.039 186.78 389.039 187.82C389.039 188.56 389.559 189.08 390.619 189.34L392.279 189.76C393.959 190.18 394.719 190.96 394.719 192.36C394.719 194.1 393.239 195.24 391.039 195.24C388.859 195.24 387.499 194.08 387.499 192.28ZM401.858 190.16C401.858 187.2 403.938 185.06 406.778 185.06C409.618 185.06 411.698 187.2 411.698 190.16C411.698 193.1 409.618 195.24 406.778 195.24C403.938 195.24 401.858 193.1 401.858 190.16ZM403.258 190.14C403.258 192.42 404.698 194 406.778 194C408.838 194 410.298 192.42 410.298 190.14C410.298 187.9 408.838 186.3 406.778 186.3C404.698 186.3 403.258 187.9 403.258 190.14ZM412.747 185.32H414.227V183.44C414.227 181.26 415.427 180.42 416.907 180.42C417.247 180.42 417.647 180.44 417.967 180.5V181.68H417.147C415.927 181.68 415.607 182.3 415.607 183.44V185.32H417.887V186.48H415.607V195H414.227V186.48H412.747V185.32ZM428.091 195.24C426.031 195.24 424.811 194.08 424.811 192.38C424.811 190.6 426.171 189.48 428.431 189.3L431.631 189.04V188.72C431.631 186.82 430.491 186.22 429.071 186.22C427.391 186.22 426.391 186.98 426.391 188.28H425.131C425.131 186.32 426.731 185.06 429.111 185.06C431.351 185.06 432.991 186.18 432.991 188.74V195H431.831L431.651 193.3C431.051 194.52 429.731 195.24 428.091 195.24ZM428.411 194.12C430.451 194.12 431.631 192.7 431.631 190.6V190.08L428.771 190.3C426.951 190.46 426.211 191.26 426.211 192.34C426.211 193.52 427.091 194.12 428.411 194.12ZM437.2 195H435.82V180.42H437.2V195ZM441.575 195H440.195V180.42H441.575V195ZM449.237 192.28H450.557C450.557 193.4 451.397 194.1 452.757 194.1C454.257 194.1 455.137 193.46 455.137 192.42C455.137 191.62 454.737 191.16 453.597 190.88L451.937 190.46C450.257 190.04 449.437 189.16 449.437 187.84C449.437 186.14 450.857 185.06 452.937 185.06C454.977 185.06 456.297 186.18 456.357 187.98H455.017C454.977 186.86 454.197 186.2 452.897 186.2C451.537 186.2 450.777 186.78 450.777 187.82C450.777 188.56 451.297 189.08 452.357 189.34L454.017 189.76C455.697 190.18 456.457 190.96 456.457 192.36C456.457 194.1 454.977 195.24 452.777 195.24C450.597 195.24 449.237 194.08 449.237 192.28ZM459.409 182.66C458.849 182.66 458.389 182.2 458.389 181.64C458.389 181.08 458.849 180.6 459.409 180.6C459.969 180.6 460.449 181.08 460.449 181.64C460.449 182.2 459.969 182.66 459.409 182.66ZM458.729 195V185.32H460.109V195H458.729ZM469.627 195H462.327V193.9L467.927 186.48H462.327V185.32H469.627V186.44L464.007 193.84H469.627V195ZM475.602 195.24C472.762 195.24 470.862 193.2 470.862 190.16C470.862 187.14 472.742 185.06 475.502 185.06C478.122 185.06 479.902 186.92 479.902 189.66V190.34H472.202C472.302 192.7 473.542 194.06 475.622 194.06C477.202 194.06 478.222 193.38 478.582 192.1H479.902C479.382 194.14 477.882 195.24 475.602 195.24ZM475.502 186.24C473.682 186.24 472.482 187.44 472.242 189.34H478.522C478.522 187.48 477.322 186.24 475.502 186.24ZM481.288 192.28H482.608C482.608 193.4 483.448 194.1 484.808 194.1C486.308 194.1 487.188 193.46 487.188 192.42C487.188 191.62 486.788 191.16 485.648 190.88L483.988 190.46C482.308 190.04 481.488 189.16 481.488 187.84C481.488 186.14 482.908 185.06 484.988 185.06C487.028 185.06 488.348 186.18 488.408 187.98H487.068C487.028 186.86 486.248 186.2 484.948 186.2C483.588 186.2 482.828 186.78 482.828 187.82C482.828 188.56 483.348 189.08 484.408 189.34L486.068 189.76C487.748 190.18 488.508 190.96 488.508 192.36C488.508 194.1 487.028 195.24 484.828 195.24C482.648 195.24 481.288 194.08 481.288 192.28ZM499.107 195.24C497.047 195.24 495.827 194.08 495.827 192.38C495.827 190.6 497.187 189.48 499.447 189.3L502.647 189.04V188.72C502.647 186.82 501.507 186.22 500.087 186.22C498.407 186.22 497.407 186.98 497.407 188.28H496.147C496.147 186.32 497.747 185.06 500.127 185.06C502.367 185.06 504.007 186.18 504.007 188.74V195H502.847L502.667 193.3C502.067 194.52 500.747 195.24 499.107 195.24ZM499.427 194.12C501.467 194.12 502.647 192.7 502.647 190.6V190.08L499.787 190.3C497.967 190.46 497.227 191.26 497.227 192.34C497.227 193.52 498.107 194.12 499.427 194.12ZM508.156 195H506.776V185.32H507.976L508.176 187C508.816 185.76 510.096 185.06 511.496 185.06C514.156 185.06 515.256 186.64 515.256 189.08V195H513.876V189.38C513.876 187.12 512.856 186.32 511.256 186.32C509.276 186.32 508.156 187.76 508.156 189.94V195ZM516.831 199.22V198.08H517.891C518.731 198.08 519.571 198.02 520.051 196.72L520.471 195.58L516.551 185.32H518.011L521.131 193.76L524.191 185.32H525.611L521.171 197.22C520.611 198.74 519.671 199.36 518.291 199.36C517.711 199.36 517.271 199.32 516.831 199.22ZM529.265 195L526.065 185.32H527.485L529.385 191.16C529.605 191.8 529.785 192.46 529.985 193.24C530.145 192.46 530.465 191.48 530.565 191.16L532.485 185.32H533.905L535.805 191.16C535.985 191.68 536.225 192.52 536.405 193.24C536.605 192.44 536.645 192.2 536.985 191.16L538.905 185.32H540.345L537.065 195H535.725L533.725 188.92C533.485 188.2 533.325 187.6 533.205 187.02C533.065 187.54 532.905 188.12 532.645 188.92L530.645 195H529.265ZM543.449 194.98H542.069V180.42H543.449V187C544.069 185.84 545.249 185.06 546.869 185.06C549.409 185.06 550.549 186.64 550.549 189.08V195H549.169V189.38C549.169 187.12 548.109 186.32 546.609 186.32C544.529 186.32 543.449 187.86 543.449 189.72V194.98ZM557.359 195.24C554.519 195.24 552.619 193.2 552.619 190.16C552.619 187.14 554.499 185.06 557.259 185.06C559.879 185.06 561.659 186.92 561.659 189.66V190.34H553.959C554.059 192.7 555.299 194.06 557.379 194.06C558.959 194.06 559.979 193.38 560.339 192.1H561.659C561.139 194.14 559.639 195.24 557.359 195.24ZM557.259 186.24C555.439 186.24 554.239 187.44 553.999 189.34H560.279C560.279 187.48 559.079 186.24 557.259 186.24ZM568.926 185.2V186.44H568.166C566.386 186.44 565.246 187.64 565.246 189.48V195H563.866V185.32H565.166L565.266 186.82C565.646 185.78 566.666 185.1 568.026 185.1C568.326 185.1 568.586 185.12 568.926 185.2ZM574.449 195.24C571.609 195.24 569.709 193.2 569.709 190.16C569.709 187.14 571.589 185.06 574.349 185.06C576.969 185.06 578.749 186.92 578.749 189.66V190.34H571.049C571.149 192.7 572.389 194.06 574.469 194.06C576.049 194.06 577.069 193.38 577.429 192.1H578.749C578.229 194.14 576.729 195.24 574.449 195.24ZM574.349 186.24C572.529 186.24 571.329 187.44 571.089 189.34H577.369C577.369 187.48 576.169 186.24 574.349 186.24ZM585.423 185.32H586.903V183.44C586.903 181.26 588.103 180.42 589.583 180.42C589.923 180.42 590.323 180.44 590.643 180.5V181.68H589.823C588.603 181.68 588.283 182.3 588.283 183.44V185.32H590.563V186.48H588.283V195H586.903V186.48H585.423V185.32ZM597.5 185.2V186.44H596.74C594.96 186.44 593.82 187.64 593.82 189.48V195H592.44V185.32H593.74L593.84 186.82C594.22 185.78 595.24 185.1 596.6 185.1C596.9 185.1 597.16 185.12 597.5 185.2ZM598.283 190.16C598.283 187.2 600.363 185.06 603.203 185.06C606.043 185.06 608.123 187.2 608.123 190.16C608.123 193.1 606.043 195.24 603.203 195.24C600.363 195.24 598.283 193.1 598.283 190.16ZM599.683 190.14C599.683 192.42 601.123 194 603.203 194C605.263 194 606.723 192.42 606.723 190.14C606.723 187.9 605.263 186.3 603.203 186.3C601.123 186.3 599.683 187.9 599.683 190.14ZM611.711 195H610.331V185.32H611.531L611.691 186.7C612.171 185.68 613.251 185.06 614.611 185.06C616.131 185.06 617.271 185.86 617.731 187.12C618.171 185.86 619.351 185.06 620.911 185.06C623.011 185.06 624.391 186.42 624.391 188.66V195H623.051V188.94C623.051 187.28 622.131 186.3 620.651 186.3C619.031 186.3 618.071 187.52 618.071 189.02V195H616.711V188.92C616.711 187.28 615.771 186.32 614.311 186.32C612.691 186.32 611.711 187.52 611.711 189V195ZM636.633 195L632.853 188.4V187.52H633.293C634 187.52 634.593 187.453 635.073 187.32C635.567 187.187 635.953 186.967 636.233 186.66C636.513 186.353 636.68 185.933 636.733 185.4H632.853V184.12H636.713C636.62 183.627 636.433 183.227 636.153 182.92C635.873 182.6 635.493 182.367 635.013 182.22C634.547 182.073 633.973 182 633.293 182H632.853V180.72H641.133V182H637.353C637.66 182.253 637.913 182.553 638.113 182.9C638.313 183.247 638.44 183.653 638.493 184.12H641.133V185.4H638.533C638.44 186.373 638.067 187.133 637.413 187.68C636.773 188.213 635.92 188.553 634.853 188.7L638.673 195H636.633ZM646.339 181.98H643.419V180.68H647.719V195H646.339V181.98ZM652.94 181.98H650.02V180.68H654.32V195H652.94V181.98ZM223.626 225H222.246V210.42H223.626V225ZM229.341 225.24C227.281 225.24 226.061 224.08 226.061 222.38C226.061 220.6 227.421 219.48 229.681 219.3L232.881 219.04V218.72C232.881 216.82 231.741 216.22 230.321 216.22C228.641 216.22 227.641 216.98 227.641 218.28H226.381C226.381 216.32 227.981 215.06 230.361 215.06C232.601 215.06 234.241 216.18 234.241 218.74V225H233.081L232.901 223.3C232.301 224.52 230.981 225.24 229.341 225.24ZM229.661 224.12C231.701 224.12 232.881 222.7 232.881 220.6V220.08L230.021 220.3C228.201 220.46 227.461 221.26 227.461 222.34C227.461 223.52 228.341 224.12 229.661 224.12ZM238.45 225H237.07V210.42H238.45V220.32L243.25 215.32H244.99L241.27 219.18L245.01 225H243.41L240.33 220.16L238.45 222.1V225ZM248.039 224.98H246.659V210.42H248.039V217C248.659 215.84 249.839 215.06 251.459 215.06C253.999 215.06 255.139 216.64 255.139 219.08V225H253.759V219.38C253.759 217.12 252.699 216.32 251.199 216.32C249.119 216.32 248.039 217.86 248.039 219.72V224.98ZM265.656 225H264.296V216.48H262.356V215.32H264.296V212.26H265.656V215.32H267.596V216.48H265.656V225ZM268.615 220.16C268.615 217.2 270.695 215.06 273.535 215.06C276.375 215.06 278.455 217.2 278.455 220.16C278.455 223.1 276.375 225.24 273.535 225.24C270.695 225.24 268.615 223.1 268.615 220.16ZM270.015 220.14C270.015 222.42 271.455 224 273.535 224C275.595 224 277.055 222.42 277.055 220.14C277.055 217.9 275.595 216.3 273.535 216.3C271.455 216.3 270.015 217.9 270.015 220.14ZM290.13 225L286.35 218.4V217.52H286.79C287.496 217.52 288.09 217.453 288.57 217.32C289.063 217.187 289.45 216.967 289.73 216.66C290.01 216.353 290.176 215.933 290.23 215.4H286.35V214.12H290.21C290.116 213.627 289.93 213.227 289.65 212.92C289.37 212.6 288.99 212.367 288.51 212.22C288.043 212.073 287.47 212 286.79 212H286.35V210.72H294.63V212H290.85C291.156 212.253 291.41 212.553 291.61 212.9C291.81 213.247 291.936 213.653 291.99 214.12H294.63V215.4H292.03C291.936 216.373 291.563 217.133 290.91 217.68C290.27 218.213 289.416 218.553 288.35 218.7L292.17 225H290.13ZM299.835 211.98H296.915V210.68H301.215V225H299.835V211.98ZM314.295 221.96H312.615V225H311.215V221.96H303.695V220.68L310.695 210.68H312.615V220.68H314.295V221.96ZM305.255 220.68H311.215V212.16L305.255 220.68ZM317.526 225.22C316.846 225.22 316.266 224.66 316.266 224C316.266 223.32 316.846 222.74 317.526 222.74C318.206 222.74 318.786 223.32 318.786 224C318.786 224.66 318.206 225.22 317.526 225.22ZM331.052 221.96H329.372V225H327.972V221.96H320.452V220.68L327.452 210.68H329.372V220.68H331.052V221.96ZM322.012 220.68H327.972V212.16L322.012 220.68ZM337.679 225.24C334.799 225.24 332.959 223.44 332.959 220.62H334.399C334.399 222.68 335.659 223.92 337.699 223.92C339.859 223.92 341.259 222.48 341.259 220.36C341.259 218.36 339.959 216.78 337.699 216.78C336.379 216.78 335.179 217.38 334.399 218.24L333.259 217.88L334.979 210.68H341.899V212H336.019L334.939 216.5C335.739 215.86 336.779 215.5 337.899 215.5C340.879 215.5 342.719 217.64 342.719 220.32C342.719 223.2 340.679 225.24 337.679 225.24ZM356.666 225.22C352.666 225.22 349.946 222.24 349.946 217.84C349.946 213.44 352.706 210.44 356.746 210.44C359.826 210.44 362.246 212.3 362.826 215.14H361.286C360.686 213.08 358.926 211.82 356.686 211.82C353.546 211.82 351.446 214.22 351.446 217.84C351.446 221.44 353.546 223.84 356.686 223.84C358.946 223.84 360.746 222.62 361.366 220.7H362.906C362.246 223.4 359.746 225.22 356.666 225.22ZM370.156 215.2V216.44H369.396C367.616 216.44 366.476 217.64 366.476 219.48V225H365.096V215.32H366.396L366.496 216.82C366.876 215.78 367.896 215.1 369.256 215.1C369.556 215.1 369.816 215.12 370.156 215.2ZM376.858 220.16C376.858 217.2 378.938 215.06 381.778 215.06C384.618 215.06 386.698 217.2 386.698 220.16C386.698 223.1 384.618 225.24 381.778 225.24C378.938 225.24 376.858 223.1 376.858 220.16ZM378.258 220.14C378.258 222.42 379.698 224 381.778 224C383.838 224 385.298 222.42 385.298 220.14C385.298 217.9 383.838 216.3 381.778 216.3C379.698 216.3 378.258 217.9 378.258 220.14ZM387.747 215.32H389.227V213.44C389.227 211.26 390.427 210.42 391.907 210.42C392.247 210.42 392.647 210.44 392.967 210.5V211.68H392.147C390.927 211.68 390.607 212.3 390.607 213.44V215.32H392.887V216.48H390.607V225H389.227V216.48H387.747V215.32ZM401.751 225H400.371V210.42H401.751V225ZM404.006 220.16C404.006 217.2 406.086 215.06 408.926 215.06C411.766 215.06 413.846 217.2 413.846 220.16C413.846 223.1 411.766 225.24 408.926 225.24C406.086 225.24 404.006 223.1 404.006 220.16ZM405.406 220.14C405.406 222.42 406.846 224 408.926 224C410.986 224 412.446 222.42 412.446 220.14C412.446 217.9 410.986 216.3 408.926 216.3C406.846 216.3 405.406 217.9 405.406 220.14ZM415.233 222.28H416.553C416.553 223.4 417.393 224.1 418.753 224.1C420.253 224.1 421.133 223.46 421.133 222.42C421.133 221.62 420.733 221.16 419.593 220.88L417.933 220.46C416.253 220.04 415.433 219.16 415.433 217.84C415.433 216.14 416.853 215.06 418.933 215.06C420.973 215.06 422.293 216.18 422.353 217.98H421.013C420.973 216.86 420.193 216.2 418.893 216.2C417.533 216.2 416.773 216.78 416.773 217.82C416.773 218.56 417.293 219.08 418.353 219.34L420.013 219.76C421.693 220.18 422.453 220.96 422.453 222.36C422.453 224.1 420.973 225.24 418.773 225.24C416.593 225.24 415.233 224.08 415.233 222.28ZM423.905 222.28H425.225C425.225 223.4 426.065 224.1 427.425 224.1C428.925 224.1 429.805 223.46 429.805 222.42C429.805 221.62 429.405 221.16 428.265 220.88L426.605 220.46C424.925 220.04 424.105 219.16 424.105 217.84C424.105 216.14 425.525 215.06 427.605 215.06C429.645 215.06 430.965 216.18 431.025 217.98H429.685C429.645 216.86 428.865 216.2 427.565 216.2C426.205 216.2 425.445 216.78 425.445 217.82C425.445 218.56 425.965 219.08 427.025 219.34L428.685 219.76C430.365 220.18 431.125 220.96 431.125 222.36C431.125 224.1 429.645 225.24 427.445 225.24C425.265 225.24 423.905 224.08 423.905 222.28ZM437.457 225.24C434.617 225.24 432.717 223.2 432.717 220.16C432.717 217.14 434.597 215.06 437.357 215.06C439.977 215.06 441.757 216.92 441.757 219.66V220.34H434.057C434.157 222.7 435.397 224.06 437.477 224.06C439.057 224.06 440.077 223.38 440.437 222.1H441.757C441.237 224.14 439.737 225.24 437.457 225.24ZM437.357 216.24C435.537 216.24 434.337 217.44 434.097 219.34H440.377C440.377 217.48 439.177 216.24 437.357 216.24ZM443.143 222.28H444.463C444.463 223.4 445.303 224.1 446.663 224.1C448.163 224.1 449.043 223.46 449.043 222.42C449.043 221.62 448.643 221.16 447.503 220.88L445.843 220.46C444.163 220.04 443.343 219.16 443.343 217.84C443.343 216.14 444.763 215.06 446.843 215.06C448.883 215.06 450.203 216.18 450.263 217.98H448.923C448.883 216.86 448.103 216.2 446.803 216.2C445.443 216.2 444.683 216.78 444.683 217.82C444.683 218.56 445.203 219.08 446.263 219.34L447.923 219.76C449.603 220.18 450.363 220.96 450.363 222.36C450.363 224.1 448.883 225.24 446.683 225.24C444.503 225.24 443.143 224.08 443.143 222.28ZM458.862 212.66C458.302 212.66 457.842 212.2 457.842 211.64C457.842 211.08 458.302 210.6 458.862 210.6C459.422 210.6 459.902 211.08 459.902 211.64C459.902 212.2 459.422 212.66 458.862 212.66ZM458.182 225V215.32H459.562V225H458.182ZM463.82 225H462.44V215.32H463.64L463.84 217C464.48 215.76 465.76 215.06 467.16 215.06C469.82 215.06 470.92 216.64 470.92 219.08V225H469.54V219.38C469.54 217.12 468.52 216.32 466.92 216.32C464.94 216.32 463.82 217.76 463.82 219.94V225ZM484.277 215.2V216.44H483.517C481.737 216.44 480.597 217.64 480.597 219.48V225H479.217V215.32H480.517L480.617 216.82C480.997 215.78 482.017 215.1 483.377 215.1C483.677 215.1 483.937 215.12 484.277 215.2ZM489.801 225.24C486.961 225.24 485.061 223.2 485.061 220.16C485.061 217.14 486.941 215.06 489.701 215.06C492.321 215.06 494.101 216.92 494.101 219.66V220.34H486.401C486.501 222.7 487.741 224.06 489.821 224.06C491.401 224.06 492.421 223.38 492.781 222.1H494.101C493.581 224.14 492.081 225.24 489.801 225.24ZM489.701 216.24C487.881 216.24 486.681 217.44 486.441 219.34H492.721C492.721 217.48 491.521 216.24 489.701 216.24ZM498.753 225L494.793 215.32H496.273L498.773 221.56C499.033 222.26 499.293 222.92 499.473 223.56C499.653 222.9 499.913 222.26 500.193 221.56L502.733 215.32H504.153L500.133 225H498.753ZM509.41 225.24C506.57 225.24 504.67 223.2 504.67 220.16C504.67 217.14 506.55 215.06 509.31 215.06C511.93 215.06 513.71 216.92 513.71 219.66V220.34H506.01C506.11 222.7 507.35 224.06 509.43 224.06C511.01 224.06 512.03 223.38 512.39 222.1H513.71C513.19 224.14 511.69 225.24 509.41 225.24ZM509.31 216.24C507.49 216.24 506.29 217.44 506.05 219.34H512.33C512.33 217.48 511.13 216.24 509.31 216.24ZM517.297 225H515.917V215.32H517.117L517.317 217C517.957 215.76 519.237 215.06 520.637 215.06C523.297 215.06 524.397 216.64 524.397 219.08V225H523.017V219.38C523.017 217.12 521.997 216.32 520.397 216.32C518.417 216.32 517.297 217.76 517.297 219.94V225ZM533.947 215.32H535.327V225H534.127L533.947 223.36C533.407 224.48 532.067 225.24 530.547 225.24C528.267 225.24 527.027 223.68 527.027 221.32V215.3H528.427V220.88C528.427 223.18 529.447 224 530.987 224C532.847 224 533.947 222.76 533.947 220.46V215.32ZM542.066 225.24C539.226 225.24 537.326 223.2 537.326 220.16C537.326 217.14 539.206 215.06 541.966 215.06C544.586 215.06 546.366 216.92 546.366 219.66V220.34H538.666C538.766 222.7 540.006 224.06 542.086 224.06C543.666 224.06 544.686 223.38 545.046 222.1H546.366C545.846 224.14 544.346 225.24 542.066 225.24ZM541.966 216.24C540.146 216.24 538.946 217.44 538.706 219.34H544.986C544.986 217.48 543.786 216.24 541.966 216.24ZM550.407 224.32C550.407 225.56 549.447 226.64 548.207 226.82V226.08C548.927 225.96 549.447 225.44 549.447 224.88C549.327 224.96 549.167 225.02 548.927 225.02C548.367 225.02 547.887 224.62 547.887 223.94C547.887 223.24 548.367 222.74 549.067 222.74C549.787 222.74 550.407 223.32 550.407 224.32ZM558.749 229.22V215.32H559.949L560.089 217.28C560.769 215.78 562.129 215.06 563.749 215.06C566.549 215.06 568.229 217.2 568.229 220.12C568.229 223.04 566.609 225.24 563.749 225.24C562.109 225.24 560.809 224.54 560.129 223.14V229.22H558.749ZM560.149 220.16C560.149 222.38 561.389 224 563.509 224C565.609 224 566.829 222.38 566.829 220.16C566.829 217.92 565.609 216.32 563.509 216.32C561.389 216.32 560.149 217.92 560.149 220.16ZM575.488 215.2V216.44H574.728C572.948 216.44 571.808 217.64 571.808 219.48V225H570.428V215.32H571.728L571.828 216.82C572.208 215.78 573.228 215.1 574.588 215.1C574.888 215.1 575.148 215.12 575.488 215.2ZM576.272 220.16C576.272 217.2 578.352 215.06 581.192 215.06C584.032 215.06 586.112 217.2 586.112 220.16C586.112 223.1 584.032 225.24 581.192 225.24C578.352 225.24 576.272 223.1 576.272 220.16ZM577.672 220.14C577.672 222.42 579.112 224 581.192 224C583.252 224 584.712 222.42 584.712 220.14C584.712 217.9 583.252 216.3 581.192 216.3C579.112 216.3 577.672 217.9 577.672 220.14ZM594.621 225V216.48H590.021V225H588.641V216.48H587.161V215.32H588.641V213.44C588.641 211.26 589.821 210.42 591.261 210.42C591.601 210.42 592.021 210.44 592.341 210.5V211.7H591.501C590.341 211.7 590.021 212.3 590.021 213.44V215.32H596.001V225H594.621ZM595.301 212.56C594.741 212.56 594.341 212.16 594.341 211.6C594.341 211.04 594.741 210.62 595.301 210.62C595.841 210.62 596.261 211.04 596.261 211.6C596.261 212.16 595.841 212.56 595.301 212.56ZM601.047 225H599.687V216.48H597.747V215.32H599.687V212.26H601.047V215.32H602.987V216.48H601.047V225ZM603.964 222.28H605.284C605.284 223.4 606.124 224.1 607.484 224.1C608.984 224.1 609.864 223.46 609.864 222.42C609.864 221.62 609.464 221.16 608.324 220.88L606.664 220.46C604.984 220.04 604.164 219.16 604.164 217.84C604.164 216.14 605.584 215.06 607.664 215.06C609.704 215.06 611.024 216.18 611.084 217.98H609.744C609.704 216.86 608.924 216.2 607.624 216.2C606.264 216.2 605.504 216.78 605.504 217.82C605.504 218.56 606.024 219.08 607.084 219.34L608.744 219.76C610.424 220.18 611.184 220.96 611.184 222.36C611.184 224.1 609.704 225.24 607.504 225.24C605.324 225.24 603.964 224.08 603.964 222.28ZM615.739 224.32C615.739 225.56 614.779 226.64 613.539 226.82V226.08C614.259 225.96 614.779 225.44 614.779 224.88C614.659 224.96 614.499 225.02 614.259 225.02C613.699 225.02 613.219 224.62 613.219 223.94C613.219 223.24 613.699 222.74 614.399 222.74C615.119 222.74 615.739 223.32 615.739 224.32ZM626.861 225.24C624.801 225.24 623.581 224.08 623.581 222.38C623.581 220.6 624.941 219.48 627.201 219.3L630.401 219.04V218.72C630.401 216.82 629.261 216.22 627.841 216.22C626.161 216.22 625.161 216.98 625.161 218.28H623.901C623.901 216.32 625.501 215.06 627.881 215.06C630.121 215.06 631.761 216.18 631.761 218.74V225H630.601L630.421 223.3C629.821 224.52 628.501 225.24 626.861 225.24ZM627.181 224.12C629.221 224.12 630.401 222.7 630.401 220.6V220.08L627.541 220.3C625.721 220.46 624.981 221.26 624.981 222.34C624.981 223.52 625.861 224.12 627.181 224.12ZM635.91 225H634.53V215.32H635.73L635.93 217C636.57 215.76 637.85 215.06 639.25 215.06C641.91 215.06 643.01 216.64 643.01 219.08V225H641.63V219.38C641.63 217.12 640.61 216.32 639.01 216.32C637.03 216.32 635.91 217.76 635.91 219.94V225ZM649.56 225.24C646.74 225.24 645.08 223.08 645.08 220.18C645.08 217.26 646.74 215.06 649.62 215.06C651.22 215.06 652.5 215.76 653.18 217.16V210.42H654.56V225H653.36L653.22 223.02C652.54 224.52 651.18 225.24 649.56 225.24ZM649.8 223.98C651.92 223.98 653.16 222.38 653.16 220.14C653.16 217.92 651.92 216.3 649.8 216.3C647.7 216.3 646.48 217.92 646.48 220.14C646.48 222.38 647.7 223.98 649.8 223.98ZM214.022 259.22V245.32H215.222L215.362 247.28C216.042 245.78 217.402 245.06 219.022 245.06C221.822 245.06 223.502 247.2 223.502 250.12C223.502 253.04 221.882 255.24 219.022 255.24C217.382 255.24 216.082 254.54 215.402 253.14V259.22H214.022ZM215.422 250.16C215.422 252.38 216.662 254 218.782 254C220.882 254 222.102 252.38 222.102 250.16C222.102 247.92 220.882 246.32 218.782 246.32C216.662 246.32 215.422 247.92 215.422 250.16ZM229.762 255.24C226.922 255.24 225.022 253.2 225.022 250.16C225.022 247.14 226.902 245.06 229.662 245.06C232.282 245.06 234.062 246.92 234.062 249.66V250.34H226.362C226.462 252.7 227.702 254.06 229.782 254.06C231.362 254.06 232.382 253.38 232.742 252.1H234.062C233.542 254.14 232.042 255.24 229.762 255.24ZM229.662 246.24C227.842 246.24 226.642 247.44 226.402 249.34H232.682C232.682 247.48 231.482 246.24 229.662 246.24ZM241.328 245.2V246.44H240.568C238.788 246.44 237.648 247.64 237.648 249.48V255H236.268V245.32H237.568L237.668 246.82C238.048 245.78 239.068 245.1 240.428 245.1C240.728 245.1 240.988 245.12 241.328 245.2ZM244.543 255H243.163V245.32H244.363L244.523 246.7C245.003 245.68 246.083 245.06 247.443 245.06C248.963 245.06 250.103 245.86 250.563 247.12C251.003 245.86 252.183 245.06 253.743 245.06C255.843 245.06 257.223 246.42 257.223 248.66V255H255.883V248.94C255.883 247.28 254.963 246.3 253.483 246.3C251.863 246.3 250.903 247.52 250.903 249.02V255H249.543V248.92C249.543 247.28 248.603 246.32 247.143 246.32C245.523 246.32 244.543 247.52 244.543 249V255ZM262.779 255.24C260.719 255.24 259.499 254.08 259.499 252.38C259.499 250.6 260.859 249.48 263.119 249.3L266.319 249.04V248.72C266.319 246.82 265.179 246.22 263.759 246.22C262.079 246.22 261.079 246.98 261.079 248.28H259.819C259.819 246.32 261.419 245.06 263.799 245.06C266.039 245.06 267.679 246.18 267.679 248.74V255H266.519L266.339 253.3C265.739 254.52 264.419 255.24 262.779 255.24ZM263.099 254.12C265.139 254.12 266.319 252.7 266.319 250.6V250.08L263.459 250.3C261.639 250.46 260.899 251.26 260.899 252.34C260.899 253.52 261.779 254.12 263.099 254.12ZM271.828 255H270.448V245.32H271.648L271.848 247C272.488 245.76 273.768 245.06 275.168 245.06C277.828 245.06 278.928 246.64 278.928 249.08V255H277.548V249.38C277.548 247.12 276.528 246.32 274.928 246.32C272.948 246.32 271.828 247.76 271.828 249.94V255ZM285.738 255.24C282.898 255.24 280.998 253.2 280.998 250.16C280.998 247.14 282.878 245.06 285.638 245.06C288.258 245.06 290.038 246.92 290.038 249.66V250.34H282.338C282.438 252.7 283.678 254.06 285.758 254.06C287.338 254.06 288.358 253.38 288.718 252.1H290.038C289.518 254.14 288.018 255.24 285.738 255.24ZM285.638 246.24C283.818 246.24 282.618 247.44 282.378 249.34H288.658C288.658 247.48 287.458 246.24 285.638 246.24ZM293.625 255H292.245V245.32H293.445L293.645 247C294.285 245.76 295.565 245.06 296.965 245.06C299.625 245.06 300.725 246.64 300.725 249.08V255H299.345V249.38C299.345 247.12 298.325 246.32 296.725 246.32C294.745 246.32 293.625 247.76 293.625 249.94V255ZM305.695 255H304.335V246.48H302.395V245.32H304.335V242.26H305.695V245.32H307.635V246.48H305.695V255ZM310.872 255H309.492V240.42H310.872V255ZM312.827 259.22V258.08H313.887C314.727 258.08 315.567 258.02 316.047 256.72L316.467 255.58L312.547 245.32H314.007L317.127 253.76L320.187 245.32H321.607L317.167 257.22C316.607 258.74 315.667 259.36 314.287 259.36C313.707 259.36 313.267 259.32 312.827 259.22ZM332.568 255.24C329.748 255.24 328.088 253.08 328.088 250.18C328.088 247.26 329.748 245.06 332.628 245.06C334.228 245.06 335.508 245.76 336.188 247.16V240.42H337.568V255H336.368L336.228 253.02C335.548 254.52 334.188 255.24 332.568 255.24ZM332.808 253.98C334.928 253.98 336.168 252.38 336.168 250.14C336.168 247.92 334.928 246.3 332.808 246.3C330.708 246.3 329.488 247.92 329.488 250.14C329.488 252.38 330.708 253.98 332.808 253.98ZM344.508 255.24C341.668 255.24 339.768 253.2 339.768 250.16C339.768 247.14 341.648 245.06 344.408 245.06C347.028 245.06 348.808 246.92 348.808 249.66V250.34H341.108C341.208 252.7 342.448 254.06 344.528 254.06C346.108 254.06 347.128 253.38 347.488 252.1H348.808C348.288 254.14 346.788 255.24 344.508 255.24ZM344.408 246.24C342.588 246.24 341.388 247.44 341.148 249.34H347.428C347.428 247.48 346.228 246.24 344.408 246.24ZM352.394 255H351.014V245.32H352.214L352.414 247C353.054 245.76 354.334 245.06 355.734 245.06C358.394 245.06 359.494 246.64 359.494 249.08V255H358.114V249.38C358.114 247.12 357.094 246.32 355.494 246.32C353.514 246.32 352.394 247.76 352.394 249.94V255ZM362.925 242.66C362.365 242.66 361.905 242.2 361.905 241.64C361.905 241.08 362.365 240.6 362.925 240.6C363.485 240.6 363.965 241.08 363.965 241.64C363.965 242.2 363.485 242.66 362.925 242.66ZM362.245 255V245.32H363.625V255H362.245ZM365.843 249.88C365.843 247.24 367.543 245.06 370.383 245.06C372.063 245.06 373.343 245.84 373.963 247.26L374.103 245.32H375.303V254.7C375.303 257.58 373.463 259.46 370.623 259.46C368.143 259.46 366.403 258.06 366.023 255.72H367.403C367.702 257.28 368.903 258.2 370.643 258.2C372.623 258.2 373.943 256.86 373.943 254.84V252.54C373.283 253.9 371.943 254.7 370.283 254.7C367.523 254.7 365.843 252.52 365.843 249.88ZM367.223 249.86C367.223 251.84 368.443 253.46 370.483 253.46C372.583 253.46 373.823 251.94 373.823 249.86C373.823 247.8 372.623 246.28 370.503 246.28C368.423 246.28 367.223 247.9 367.223 249.86ZM383.242 245.2V246.44H382.482C380.702 246.44 379.562 247.64 379.562 249.48V255H378.182V245.32H379.482L379.582 246.82C379.962 245.78 380.982 245.1 382.342 245.1C382.642 245.1 382.902 245.12 383.242 245.2ZM387.466 255.24C385.406 255.24 384.186 254.08 384.186 252.38C384.186 250.6 385.546 249.48 387.806 249.3L391.006 249.04V248.72C391.006 246.82 389.866 246.22 388.446 246.22C386.766 246.22 385.766 246.98 385.766 248.28H384.506C384.506 246.32 386.106 245.06 388.486 245.06C390.726 245.06 392.366 246.18 392.366 248.74V255H391.206L391.026 253.3C390.426 254.52 389.106 255.24 387.466 255.24ZM387.786 254.12C389.826 254.12 391.006 252.7 391.006 250.6V250.08L388.146 250.3C386.326 250.46 385.586 251.26 385.586 252.34C385.586 253.52 386.466 254.12 387.786 254.12ZM397.18 255H395.82V246.48H393.88V245.32H395.82V242.26H397.18V245.32H399.12V246.48H397.18V255ZM404.879 255.24C402.039 255.24 400.139 253.2 400.139 250.16C400.139 247.14 402.019 245.06 404.779 245.06C407.399 245.06 409.179 246.92 409.179 249.66V250.34H401.479C401.579 252.7 402.819 254.06 404.899 254.06C406.479 254.06 407.499 253.38 407.859 252.1H409.179C408.659 254.14 407.159 255.24 404.879 255.24ZM404.779 246.24C402.959 246.24 401.759 247.44 401.519 249.34H407.799C407.799 247.48 406.599 246.24 404.779 246.24ZM415.185 255.24C412.365 255.24 410.705 253.08 410.705 250.18C410.705 247.26 412.365 245.06 415.245 245.06C416.845 245.06 418.125 245.76 418.805 247.16V240.42H420.185V255H418.985L418.845 253.02C418.165 254.52 416.805 255.24 415.185 255.24ZM415.425 253.98C417.545 253.98 418.785 252.38 418.785 250.14C418.785 247.92 417.545 246.3 415.425 246.3C413.325 246.3 412.105 247.92 412.105 250.14C412.105 252.38 413.325 253.98 415.425 253.98ZM427.792 252.28H429.112C429.112 253.4 429.952 254.1 431.312 254.1C432.812 254.1 433.692 253.46 433.692 252.42C433.692 251.62 433.292 251.16 432.152 250.88L430.492 250.46C428.812 250.04 427.992 249.16 427.992 247.84C427.992 246.14 429.412 245.06 431.492 245.06C433.532 245.06 434.852 246.18 434.912 247.98H433.572C433.532 246.86 432.752 246.2 431.452 246.2C430.092 246.2 429.332 246.78 429.332 247.82C429.332 248.56 429.852 249.08 430.912 249.34L432.572 249.76C434.252 250.18 435.012 250.96 435.012 252.36C435.012 254.1 433.532 255.24 431.332 255.24C429.152 255.24 427.792 254.08 427.792 252.28ZM441.344 255.24C438.504 255.24 436.604 253.2 436.604 250.16C436.604 247.14 438.484 245.06 441.244 245.06C443.864 245.06 445.644 246.92 445.644 249.66V250.34H437.944C438.044 252.7 439.284 254.06 441.364 254.06C442.944 254.06 443.964 253.38 444.324 252.1H445.644C445.124 254.14 443.624 255.24 441.344 255.24ZM441.244 246.24C439.424 246.24 438.224 247.44 437.984 249.34H444.264C444.264 247.48 443.064 246.24 441.244 246.24ZM447.17 250.18C447.17 247.14 449.03 245.06 451.85 245.06C454.09 245.06 455.73 246.36 456.11 248.36H454.73C454.37 247.02 453.21 246.28 451.87 246.28C449.91 246.28 448.53 247.78 448.53 250.16C448.53 252.46 449.81 254 451.77 254C453.21 254 454.37 253.2 454.75 251.96H456.15C455.69 253.94 453.97 255.24 451.77 255.24C449.03 255.24 447.17 253.22 447.17 250.18ZM465.041 245.32H466.421V255H465.221L465.041 253.36C464.501 254.48 463.161 255.24 461.641 255.24C459.361 255.24 458.121 253.68 458.121 251.32V245.3H459.521V250.88C459.521 253.18 460.541 254 462.081 254C463.941 254 465.041 252.76 465.041 250.46V245.32ZM474.355 245.2V246.44H473.595C471.815 246.44 470.675 247.64 470.675 249.48V255H469.295V245.32H470.595L470.695 246.82C471.075 245.78 472.095 245.1 473.455 245.1C473.755 245.1 474.015 245.12 474.355 245.2ZM476.87 242.66C476.31 242.66 475.85 242.2 475.85 241.64C475.85 241.08 476.31 240.6 476.87 240.6C477.43 240.6 477.91 241.08 477.91 241.64C477.91 242.2 477.43 242.66 476.87 242.66ZM476.19 255V245.32H477.57V255H476.19ZM482.668 255H481.308V246.48H479.368V245.32H481.308V242.26H482.668V245.32H484.608V246.48H482.668V255ZM485.425 259.22V258.08H486.485C487.325 258.08 488.165 258.02 488.645 256.72L489.065 255.58L485.145 245.32H486.605L489.725 253.76L492.785 245.32H494.205L489.765 257.22C489.205 258.74 488.265 259.36 486.885 259.36C486.305 259.36 485.865 259.32 485.425 259.22ZM504.146 255.24C502.086 255.24 500.866 254.08 500.866 252.38C500.866 250.6 502.226 249.48 504.486 249.3L507.686 249.04V248.72C507.686 246.82 506.546 246.22 505.126 246.22C503.446 246.22 502.446 246.98 502.446 248.28H501.186C501.186 246.32 502.786 245.06 505.166 245.06C507.406 245.06 509.046 246.18 509.046 248.74V255H507.886L507.706 253.3C507.106 254.52 505.786 255.24 504.146 255.24ZM504.466 254.12C506.506 254.12 507.686 252.7 507.686 250.6V250.08L504.826 250.3C503.006 250.46 502.266 251.26 502.266 252.34C502.266 253.52 503.146 254.12 504.466 254.12ZM513.195 255H511.815V245.32H513.015L513.215 247C513.855 245.76 515.135 245.06 516.535 245.06C519.195 245.06 520.295 246.64 520.295 249.08V255H518.915V249.38C518.915 247.12 517.895 246.32 516.295 246.32C514.315 246.32 513.195 247.76 513.195 249.94V255ZM526.845 255.24C524.025 255.24 522.365 253.08 522.365 250.18C522.365 247.26 524.025 245.06 526.905 245.06C528.505 245.06 529.785 245.76 530.465 247.16V240.42H531.845V255H530.645L530.505 253.02C529.825 254.52 528.465 255.24 526.845 255.24ZM527.085 253.98C529.205 253.98 530.445 252.38 530.445 250.14C530.445 247.92 529.205 246.3 527.085 246.3C524.985 246.3 523.765 247.92 523.765 250.14C523.765 252.38 524.985 253.98 527.085 253.98ZM540.272 259.22V245.32H541.472L541.612 247.28C542.292 245.78 543.652 245.06 545.272 245.06C548.072 245.06 549.752 247.2 549.752 250.12C549.752 253.04 548.132 255.24 545.272 255.24C543.632 255.24 542.332 254.54 541.652 253.14V259.22H540.272ZM541.672 250.16C541.672 252.38 542.912 254 545.032 254C547.132 254 548.352 252.38 548.352 250.16C548.352 247.92 547.132 246.32 545.032 246.32C542.912 246.32 541.672 247.92 541.672 250.16ZM558.517 245.32H559.897V255H558.697L558.517 253.36C557.977 254.48 556.637 255.24 555.117 255.24C552.837 255.24 551.597 253.68 551.597 251.32V245.3H552.997V250.88C552.997 253.18 554.017 254 555.557 254C557.417 254 558.517 252.76 558.517 250.46V245.32ZM563.972 255H562.772V240.42H564.152V247.2C564.832 245.78 566.152 245.06 567.792 245.06C570.612 245.06 572.252 247.26 572.252 250.18C572.252 253.08 570.572 255.24 567.752 255.24C566.132 255.24 564.792 254.52 564.112 253.02L563.972 255ZM564.172 250.14C564.172 252.38 565.412 253.98 567.532 253.98C569.632 253.98 570.852 252.38 570.852 250.14C570.852 247.92 569.632 246.3 567.532 246.3C565.412 246.3 564.172 247.92 564.172 250.14ZM575.892 255H574.512V240.42H575.892V255ZM579.507 242.66C578.947 242.66 578.487 242.2 578.487 241.64C578.487 241.08 578.947 240.6 579.507 240.6C580.067 240.6 580.547 241.08 580.547 241.64C580.547 242.2 580.067 242.66 579.507 242.66ZM578.827 255V245.32H580.207V255H578.827ZM582.405 250.18C582.405 247.14 584.265 245.06 587.085 245.06C589.325 245.06 590.965 246.36 591.345 248.36H589.965C589.605 247.02 588.445 246.28 587.105 246.28C585.145 246.28 583.765 247.78 583.765 250.16C583.765 252.46 585.045 254 587.005 254C588.445 254 589.605 253.2 589.985 251.96H591.385C590.925 253.94 589.205 255.24 587.005 255.24C584.265 255.24 582.405 253.22 582.405 250.18ZM599.702 242.66C599.142 242.66 598.682 242.2 598.682 241.64C598.682 241.08 599.142 240.6 599.702 240.6C600.262 240.6 600.742 241.08 600.742 241.64C600.742 242.2 600.262 242.66 599.702 242.66ZM599.022 255V245.32H600.402V255H599.022ZM604.66 255H603.28V245.32H604.48L604.64 246.7C605.12 245.68 606.2 245.06 607.56 245.06C609.08 245.06 610.22 245.86 610.68 247.12C611.12 245.86 612.3 245.06 613.86 245.06C615.96 245.06 617.34 246.42 617.34 248.66V255H616V248.94C616 247.28 615.08 246.3 613.6 246.3C611.98 246.3 611.02 247.52 611.02 249.02V255H609.66V248.92C609.66 247.28 608.72 246.32 607.26 246.32C605.64 246.32 604.66 247.52 604.66 249V255ZM622.896 255.24C620.836 255.24 619.616 254.08 619.616 252.38C619.616 250.6 620.976 249.48 623.236 249.3L626.436 249.04V248.72C626.436 246.82 625.296 246.22 623.876 246.22C622.196 246.22 621.196 246.98 621.196 248.28H619.936C619.936 246.32 621.536 245.06 623.916 245.06C626.156 245.06 627.796 246.18 627.796 248.74V255H626.636L626.456 253.3C625.856 254.52 624.536 255.24 622.896 255.24ZM623.216 254.12C625.256 254.12 626.436 252.7 626.436 250.6V250.08L623.576 250.3C621.756 250.46 621.016 251.26 621.016 252.34C621.016 253.52 621.896 254.12 623.216 254.12ZM629.905 249.88C629.905 247.24 631.605 245.06 634.445 245.06C636.125 245.06 637.405 245.84 638.025 247.26L638.165 245.32H639.365V254.7C639.365 257.58 637.525 259.46 634.685 259.46C632.205 259.46 630.465 258.06 630.085 255.72H631.465C631.765 257.28 632.965 258.2 634.705 258.2C636.685 258.2 638.005 256.86 638.005 254.84V252.54C637.345 253.9 636.005 254.7 634.345 254.7C631.585 254.7 629.905 252.52 629.905 249.88ZM631.285 249.86C631.285 251.84 632.505 253.46 634.545 253.46C636.645 253.46 637.885 251.94 637.885 249.86C637.885 247.8 636.685 246.28 634.565 246.28C632.485 246.28 631.285 247.9 631.285 249.86ZM646.305 255.24C643.465 255.24 641.565 253.2 641.565 250.16C641.565 247.14 643.445 245.06 646.205 245.06C648.825 245.06 650.605 246.92 650.605 249.66V250.34H642.905C643.005 252.7 644.245 254.06 646.325 254.06C647.905 254.06 648.925 253.38 649.285 252.1H650.605C650.085 254.14 648.585 255.24 646.305 255.24ZM646.205 246.24C644.385 246.24 643.185 247.44 642.945 249.34H649.225C649.225 247.48 648.025 246.24 646.205 246.24ZM653.386 255.22C652.706 255.22 652.126 254.66 652.126 254C652.126 253.32 652.706 252.74 653.386 252.74C654.066 252.74 654.646 253.32 654.646 254C654.646 254.66 654.066 255.22 653.386 255.22Z" fill="#47464A"/>
<line y1="285.5" x2="656" y2="285.5" stroke="#FFD7F0"/>
</svg>
