<svg width="403" height="382" viewBox="0 0 403 382" fill="none" xmlns="http://www.w3.org/2000/svg">
<path d="M394.833 191C394.833 296.395 309.394 381.833 204 381.833C98.6061 381.833 27.8925 304.829 27.8925 199.435C27.8925 94.0414 140.891 207.784 237.384 124.728C317.262 55.9721 394.833 85.605 394.833 191Z" fill="#F0EFFF"/>
<path d="M126.252 53.7828C85.8906 62.0012 58.5378 71.8575 78.9186 106.541C99.2993 141.225 197.207 109.151 200.756 72.302C204.304 35.4539 165.016 45.8902 126.252 53.7828Z" fill="#F0EFFF"/>
<path d="M237.195 49.0389C243.491 21.4077 296.15 31.2027 293.453 56.0035C290.754 80.8043 228.835 85.7311 237.195 49.0389Z" fill="#F0EFFF"/>
<mask id="mask0_142_691" style="mask-type:luminance" maskUnits="userSpaceOnUse" x="13" y="0" width="382" height="382">
<path d="M204 381.833C309.394 381.833 394.833 296.394 394.833 191C394.833 85.6057 309.394 0.166824 204 0.166824C98.6058 0.166824 13.167 85.6057 13.167 191C13.167 296.394 98.6058 381.833 204 381.833Z" fill="white"/>
</mask>
<g mask="url(#mask0_142_691)">
<path d="M200.984 247.934C200.984 247.934 193.853 249.931 181.446 267.472C169.038 285.014 152.638 335.499 151.924 356.892C151.211 378.284 171.462 386.413 230.363 376.43C289.263 366.446 284.556 307.832 284.556 307.832L289.262 262.766L200.984 247.934Z" fill="#007DF3"/>
<path d="M334.216 375.341C323.159 381.853 301.523 382.597 265.142 376.431C221.444 369.024 212.756 334.85 211.183 317.703C210.635 311.738 210.949 307.833 210.949 307.833L210.317 301.775L209.684 307.833C209.684 307.833 209.987 311.6 209.479 317.387C207.983 334.427 199.458 368.979 155.491 376.431C114.773 383.332 92.5249 381.577 82.9052 372.768C78.6095 368.835 76.8324 363.495 77.0524 356.892C77.7651 335.499 94.1665 285.013 106.574 267.472C118.981 249.93 126.112 247.934 126.112 247.934L210.318 262.081L294.522 247.934C294.522 247.934 301.652 249.931 314.06 267.472C326.467 285.014 342.868 335.499 343.581 356.892C343.852 365.071 341.061 371.311 334.216 375.341Z" fill="#007DF3"/>
<path opacity="0.63" d="M137.806 323.663C97.0183 313.965 85.3236 343.487 85.3236 343.487C89.6017 312.397 124.543 309.401 124.543 309.401C118.268 283.16 123.83 260.342 123.83 260.342C123.83 260.342 125.969 275.602 133.813 280.878C133.813 280.878 184.584 281.021 202.839 281.306C221.094 281.591 270.295 279.738 276.713 280.593C283.132 281.449 290.547 269.469 294.397 260.342C294.397 260.342 299.959 283.16 293.685 309.401C293.685 309.401 328.626 312.396 332.904 343.487C332.904 343.487 321.209 313.965 280.422 323.663" fill="#000C61"/>
<path d="M131.336 318.276C127.236 300.32 124.219 266.739 124.188 266.402L125.751 266.263C125.781 266.599 128.788 300.074 132.865 317.926L131.336 318.276Z" fill="#374D6D"/>
<path d="M88.0844 339.954L86.5551 339.604C86.582 339.485 87.2455 336.638 89.3307 332.917C91.2507 329.492 94.7938 324.652 100.775 321.053C110.662 315.101 123.862 314.284 140.006 318.627L139.599 320.141C123.896 315.918 111.115 316.671 101.609 322.381C95.9334 325.79 92.562 330.377 90.732 333.625C88.7405 337.162 88.0909 339.926 88.0844 339.954Z" fill="#374D6D"/>
<path d="M286.899 318.276C290.999 300.32 294.017 266.739 294.047 266.402L292.484 266.263C292.454 266.599 289.447 300.074 285.37 317.926L286.899 318.276Z" fill="#374D6D"/>
<path d="M330.15 339.954L331.68 339.604C331.653 339.485 330.988 336.638 328.904 332.917C326.984 329.492 323.441 324.652 317.46 321.053C307.573 315.101 294.373 314.284 278.229 318.627L278.636 320.141C294.339 315.918 307.12 316.671 316.626 322.381C322.301 325.79 325.674 330.377 327.503 333.625C329.494 337.162 330.144 339.926 330.15 339.954Z" fill="#374D6D"/>
<path opacity="0.63" d="M209.478 317.387C207.982 334.427 199.457 368.979 155.49 376.431C114.772 383.332 92.524 381.577 82.9043 372.768C98.9726 377.63 134.589 383.441 134.81 339.493C134.954 310.864 172.4 310.607 209.478 317.387Z" fill="#000C61"/>
<path opacity="0.63" d="M334.216 375.341C323.159 381.853 301.523 382.597 265.142 376.431C221.444 369.024 212.756 334.85 211.183 317.703C247.028 324.462 281.99 337.496 281.99 337.496C281.99 337.496 282.268 387.081 334.216 375.341Z" fill="#000C61"/>
<path d="M223.374 262.196L212.221 279.468C211.496 279.805 210.88 280.008 210.393 280.129C209.905 280.008 209.288 279.805 208.563 279.468C207.7 279.066 206.684 278.472 205.547 277.598C205.547 277.598 197.781 276.147 186.697 273.916C185.954 273.767 185.197 273.614 184.426 273.457C177.851 272.125 170.289 270.552 162.573 268.864C161.118 268.546 159.659 268.224 158.199 267.899C135.562 262.854 127.791 253.375 127.152 252.554C127.124 252.517 127.11 252.497 127.11 252.497C127.11 252.497 126.943 252.754 126.671 253.076C126.105 253.744 125.077 254.689 124.115 254.208C122.689 253.496 119.979 247.933 119.694 244.653C119.662 244.284 119.729 243.789 119.88 243.175C121.064 238.338 127.417 226.153 130.961 210.71C131.006 210.509 131.056 210.311 131.112 210.115C132.071 206.601 134.224 203.838 137.22 201.479C148.21 192.826 170.528 189.62 186.814 174.875C187.312 174.423 187.805 173.961 188.292 173.487C198.26 163.79 205.521 166.894 210.394 172.818C212.471 175.342 214.113 178.379 215.347 181.153C217.309 185.563 218.24 189.317 218.24 189.317L223.374 262.196Z" fill="#BCC2FF"/>
<path d="M301.092 244.655C300.807 247.935 298.097 253.497 296.671 254.21C295.709 254.691 294.681 253.745 294.115 253.078C293.843 252.756 293.676 252.499 293.676 252.499C293.676 252.499 293.662 252.519 293.634 252.556C292.995 253.377 285.223 262.856 262.586 267.901C261.126 268.226 259.667 268.549 258.213 268.866C250.495 270.553 242.933 272.126 236.358 273.459C235.587 273.616 234.83 273.768 234.088 273.918C223.004 276.149 215.238 277.6 215.238 277.6C214.101 278.474 213.084 279.067 212.222 279.47C211.497 279.807 210.881 280.01 210.394 280.131C209.906 280.01 209.289 279.807 208.564 279.47L197.411 262.196L202.546 189.32C202.546 189.32 203.478 185.566 205.439 181.155C206.673 178.382 208.316 175.345 210.394 172.821C215.266 166.897 222.527 163.792 232.495 173.49C232.981 173.963 233.475 174.426 233.973 174.877C250.259 189.622 272.576 192.829 283.567 201.481C286.563 203.84 288.716 206.604 289.675 210.118C289.73 210.314 289.781 210.512 289.826 210.713C293.37 226.155 299.723 238.341 300.907 243.178C301.057 243.79 301.124 244.285 301.092 244.655Z" fill="#BCC2FF"/>
<path opacity="0.33" d="M131.111 210.118C132.921 213.847 136.034 222.769 130.389 232.105C127.198 237.384 123.293 240.893 119.879 243.178C121.063 238.34 127.416 226.155 130.96 210.713C131.005 210.511 131.055 210.314 131.111 210.118Z" fill="#F9F8E5"/>
<path opacity="0.33" d="M186.813 174.877C184.834 179.797 179.916 187.606 167.897 192.742C153.979 198.692 145.444 197.28 137.219 201.48C148.209 192.829 170.527 189.622 186.813 174.877Z" fill="#F9F8E5"/>
<path opacity="0.57" d="M265.438 239.948C254.314 260.199 236.63 262.196 225.648 269.327C218.377 274.048 228.612 274.018 236.358 273.458C235.586 273.615 234.829 273.767 234.087 273.918C223.003 276.149 215.237 277.599 215.237 277.599C214.1 278.473 213.083 279.066 212.221 279.469C211.496 279.807 210.88 280.009 210.393 280.131C209.905 280.009 209.288 279.807 208.563 279.469C207.7 279.067 206.684 278.473 205.547 277.599C205.547 277.599 197.781 276.149 186.697 273.918C185.954 273.768 185.197 273.615 184.426 273.458C192.173 274.017 202.407 274.048 195.136 269.327C184.155 262.196 166.47 260.199 155.346 239.948C147.301 225.303 151.19 212.746 153.959 206.916C154.072 206.68 154.313 206.644 154.494 206.73C154.651 206.807 154.76 206.978 154.701 207.195C153.096 213.003 152.928 218.074 153.635 219.839C154.49 221.978 165.329 217.842 180.589 203.724C195.849 189.605 192.997 176.77 192.997 176.77C198.146 175.963 202.221 177.7 205.438 181.156C207.389 183.252 209.023 185.982 210.391 189.161C211.759 185.982 213.393 183.252 215.346 181.156C218.561 177.7 222.638 175.964 227.787 176.77C227.787 176.77 224.935 189.605 240.195 203.724C255.455 217.842 266.293 221.978 267.149 219.839C267.855 218.073 267.686 213.003 266.082 207.195C266.022 206.978 266.132 206.807 266.289 206.73C266.469 206.643 266.711 206.68 266.823 206.916C269.593 212.746 273.483 225.303 265.438 239.948Z" fill="#5368F8"/>
<path opacity="0.52" d="M162.573 268.866C161.118 268.548 159.659 268.226 158.199 267.901C135.562 262.856 127.791 253.377 127.152 252.556C127.419 251.568 127.633 250.284 127.68 248.648C127.823 243.656 134.526 260.343 156.203 266.76C158.542 267.453 160.658 268.157 162.573 268.866Z" fill="#007DF3"/>
<path opacity="0.33" d="M289.674 210.118C287.864 213.847 284.751 222.769 290.396 232.105C293.587 237.384 297.492 240.893 300.906 243.178C299.722 238.34 293.369 226.155 289.825 210.713C289.78 210.511 289.73 210.314 289.674 210.118Z" fill="#F9F8E5"/>
<path opacity="0.33" d="M233.972 174.877C235.951 179.797 240.869 187.606 252.888 192.742C266.806 198.692 275.341 197.28 283.566 201.48C272.575 192.829 250.258 189.622 233.972 174.877Z" fill="#F9F8E5"/>
<path opacity="0.52" d="M267.577 223.119C242.904 218.128 223.081 189.32 223.081 189.32L210.393 257.983L197.704 189.32C197.704 189.32 177.881 218.128 153.209 223.119L152.496 221.551C152.496 221.551 154.35 238.522 166.757 249.503C179.165 260.484 197.277 266.475 204.265 272.893C207.094 275.49 209.058 275.821 210.394 275.295C211.73 275.821 213.694 275.491 216.522 272.893C223.51 266.475 241.623 260.485 254.03 249.503C266.438 238.522 268.292 221.551 268.292 221.551L267.577 223.119Z" fill="#007DF3"/>
<path opacity="0.52" d="M258.212 268.866C259.666 268.548 261.126 268.226 262.586 267.901C285.223 262.856 292.993 253.377 293.633 252.556C293.366 251.568 293.152 250.284 293.105 248.648C292.962 243.656 286.259 260.343 264.582 266.76C262.243 267.453 260.127 268.157 258.212 268.866Z" fill="#007DF3"/>
<path d="M194.566 193.028C194.566 193.028 217.527 188.465 224.229 193.028C230.932 197.592 228.223 207.147 228.223 207.147L194.423 206.006L192.569 199.588L194.566 193.028Z" fill="#8EADCE"/>
<path d="M205.975 211.568C205.975 211.568 205.125 213.595 204.115 216.702C203.719 217.925 203.297 219.314 202.891 220.813C198.978 215.837 195.558 210.127 196.276 206.006C196.412 205.226 196.52 204.379 196.604 203.482C198.211 206.398 201.065 209.857 205.975 211.568Z" fill="#FFC3B3"/>
<path d="M227.225 204.722L226.654 207.004L218.009 222.334C217.493 220.25 216.92 218.328 216.392 216.702C215.382 213.594 214.532 211.567 214.532 211.567C221.275 209.216 224.139 203.573 225.221 200.562C225.244 200.498 225.265 200.437 225.286 200.375C226.259 203.234 227.225 204.722 227.225 204.722Z" fill="#FFC3B3"/>
<path d="M266.402 225.544C266.402 225.544 261.697 245.367 239.448 256.349C216.004 267.921 215.637 273.849 210.734 274.029C210.715 274.031 210.698 274.034 210.681 274.034C210.649 274.034 210.619 274.034 210.59 274.032C210.558 274.034 210.528 274.034 210.497 274.034C210.48 274.034 210.463 274.031 210.446 274.029C205.541 273.849 205.175 267.921 181.731 256.349C159.483 245.368 154.777 225.544 154.777 225.544C159.304 223.902 163.792 221.661 167.966 219.237C177.623 213.628 185.594 207.032 188.447 204.571C189.18 203.941 189.575 203.582 189.575 203.582C191.544 202.116 193.472 201.194 195.34 200.708C196.461 203.753 199.341 209.255 205.976 211.569C205.976 211.569 209.49 211.569 210.254 220.591C211.018 211.569 214.532 211.569 214.532 211.569C221.275 209.218 224.139 203.575 225.221 200.563C227.28 200.996 229.415 201.954 231.604 203.582C231.604 203.582 231.729 203.695 231.966 203.906C233.853 205.572 242.896 213.364 254.006 219.692C257.954 221.942 262.161 224.005 266.402 225.544Z" fill="#EEF9FF"/>
<path d="M188.684 294.682C187.729 293.848 187.611 292.411 188.408 291.424C192.627 286.192 194.672 281.726 195.654 278.788C196.827 275.28 196.779 273.145 196.778 273.124L196.779 273.143L198.812 273.05C200.3 272.981 201.482 274.294 201.246 275.764C200.662 279.396 198.683 286.196 192.058 294.396C191.221 295.431 189.687 295.558 188.684 294.682Z" fill="#EEF9FF"/>
<path d="M231.563 294.682C232.518 293.848 232.636 292.411 231.84 291.424C227.62 286.192 225.576 281.726 224.594 278.788C223.421 275.28 223.469 273.145 223.47 273.124L223.469 273.143L221.436 273.05C219.949 272.981 218.766 274.294 219.003 275.764C219.587 279.396 221.567 286.196 228.191 294.396C229.026 295.431 230.56 295.558 231.563 294.682Z" fill="#EEF9FF"/>
<path opacity="0.67" d="M266.402 225.545C266.402 225.545 261.697 245.368 239.448 256.35C217.835 267.017 215.835 272.887 211.814 273.882C211.473 273.967 211.118 274.015 210.734 274.029C210.716 274.031 210.699 274.033 210.682 274.033C210.655 274.033 210.629 274.033 210.603 274.032H210.59C210.558 274.033 210.528 274.033 210.497 274.033C210.48 274.033 210.463 274.031 210.446 274.029C210.071 274.015 209.723 273.968 209.389 273.888C205.35 272.91 203.384 267.036 181.73 256.349C159.482 245.368 154.776 225.544 154.776 225.544C159.303 223.901 163.791 221.66 167.965 219.236C165.787 224.3 165.138 232.517 174.884 242.515C187.564 255.523 194.714 262.665 209.241 260.411C209.639 260.35 210.043 260.281 210.452 260.204C210.85 260.132 211.252 260.051 211.662 259.963C215.512 259.142 219.872 257.718 224.942 255.635C240.588 249.208 249.414 232.348 254.005 219.691C257.954 221.942 262.161 224.005 266.402 225.545Z" fill="#D7E9F4"/>
<path d="M227.225 204.722L226.654 207.004L220.511 217.897L218.01 222.334C217.513 220.331 216.966 218.479 216.456 216.896C216.434 216.83 216.414 216.766 216.392 216.702C214.171 217.602 212.407 220.752 211.268 223.402L211.34 230.124C210.982 229.775 210.57 229.367 210.115 228.909C209.735 228.526 209.323 228.105 208.889 227.653L208.833 222.494C207.699 220.073 206.088 217.5 204.115 216.702C204.076 216.82 204.038 216.94 204 217.061C203.638 218.193 203.257 219.458 202.892 220.812C202.142 219.858 201.409 218.876 200.72 217.885C197.819 213.705 195.696 209.335 196.278 206.005C196.414 205.224 196.522 204.378 196.606 203.48C196.85 200.877 196.891 197.856 196.823 194.843C196.817 194.585 196.812 194.33 196.803 194.075C196.801 194.025 196.801 193.975 196.799 193.926C196.793 193.702 196.786 193.477 196.777 193.256C196.775 193.174 196.772 193.093 196.769 193.013C196.758 192.71 196.746 192.406 196.734 192.105C196.721 191.804 196.707 191.504 196.692 191.207C196.464 186.456 196.046 182.185 195.836 180.21C195.757 179.469 195.708 179.052 195.708 179.052C195.708 179.052 195.99 178.861 196.498 178.532C197.572 177.836 199.657 176.515 202.234 175.033C202.799 174.708 203.387 174.375 203.993 174.04C213.071 169.016 226.225 163.351 225.14 173.418C225.081 173.97 224.978 174.57 224.831 175.219C224.822 175.261 224.812 175.302 224.802 175.343C224.751 175.561 224.701 175.779 224.653 175.995C224.639 176.063 224.623 176.132 224.608 176.199C224.566 176.388 224.525 176.577 224.486 176.764C224.48 176.793 224.474 176.821 224.469 176.85C224.426 177.055 224.384 177.259 224.345 177.461C224.342 177.477 224.339 177.491 224.336 177.507C224.292 177.73 224.249 177.953 224.209 178.174C224.175 178.355 224.143 178.536 224.112 178.715C224.09 178.832 224.07 178.949 224.052 179.066C224.013 179.289 223.978 179.512 223.944 179.732C223.915 179.913 223.888 180.093 223.862 180.273C223.829 180.494 223.798 180.714 223.769 180.932C223.769 180.936 223.768 180.939 223.768 180.943C223.768 180.946 223.768 180.948 223.767 180.951C223.748 181.098 223.728 181.244 223.712 181.389C223.703 181.455 223.695 181.52 223.687 181.584C223.645 181.935 223.606 182.283 223.572 182.626C223.525 183.087 223.485 183.542 223.453 183.989C223.444 184.098 223.436 184.207 223.43 184.316C223.425 184.37 223.422 184.425 223.418 184.479C223.404 184.686 223.392 184.892 223.383 185.096C223.38 185.141 223.378 185.187 223.376 185.232C223.368 185.368 223.363 185.505 223.357 185.639C223.352 185.727 223.35 185.817 223.347 185.905C223.342 186.022 223.339 186.139 223.336 186.255C223.331 186.37 223.328 186.486 223.327 186.601C223.325 186.707 223.323 186.812 223.32 186.917C223.313 187.475 223.314 188.02 223.326 188.553C223.326 188.672 223.33 188.788 223.334 188.906C223.339 189.095 223.345 189.284 223.352 189.469C223.358 189.621 223.365 189.769 223.373 189.917C223.396 190.361 223.424 190.798 223.458 191.223C223.48 191.492 223.504 191.758 223.53 192.019C223.53 192.029 223.532 192.038 223.533 192.048C223.534 192.068 223.537 192.086 223.538 192.107C223.54 192.13 223.543 192.151 223.546 192.174C223.557 192.288 223.569 192.4 223.581 192.511C223.582 192.52 223.582 192.528 223.584 192.537C223.592 192.616 223.6 192.694 223.61 192.773C223.618 192.837 223.624 192.9 223.634 192.962C223.647 193.072 223.661 193.182 223.675 193.292C223.697 193.459 223.718 193.624 223.742 193.788C223.781 194.059 223.821 194.325 223.864 194.585C223.887 194.726 223.909 194.864 223.933 194.999C223.957 195.136 223.982 195.271 224.007 195.406L224.008 195.409C224.369 197.362 224.829 199.019 225.29 200.373C226.259 203.233 227.225 204.722 227.225 204.722Z" fill="#FFC3B3"/>
<path d="M224.8 175.343C222.935 183.289 223.075 189.761 223.86 194.588C205.531 196.985 198.608 184.109 196.496 178.533C197.57 177.837 199.655 176.516 202.232 175.033L220.236 172.207C220.236 172.207 222.258 173.389 224.829 175.22C224.821 175.261 224.81 175.302 224.8 175.343Z" fill="#F27584"/>
<path d="M293.97 111.734C293.97 111.734 293.969 111.736 293.969 111.738C293.969 111.738 293.967 111.735 293.967 111.734C293.892 111.569 291.424 106.27 283.842 103.181C283.842 103.181 290.83 120.295 278.993 137.124L278.709 129.565C278.709 129.565 278.566 136.839 274.288 138.835C273.294 139.298 267.218 140.064 258.479 140.966C256.045 141.215 253.404 141.476 250.608 141.746C220.273 144.658 171.747 148.39 171.747 148.39C171.747 148.39 166.003 148.787 159.114 147.03C149.652 144.618 138.031 138.143 136.189 120.994C136.152 120.67 136.12 120.343 136.094 120.01C136.094 120.01 129.676 128.14 134.096 142.401C134.096 142.401 130.246 140.547 129.248 138.408C128.249 136.269 123.543 126.428 131.102 111.454C135.382 102.976 136.004 93.9011 136.825 87.1341C137.455 81.9484 138.201 78.1167 140.799 76.9419C146.79 74.2321 153.493 76.657 153.493 76.657C153.493 76.657 153.065 53.4106 174.172 42.7144C177.24 41.16 180.373 39.9546 183.512 39.0136C201.971 33.4743 220.619 37.0369 227.08 32.1621C227.081 32.1603 227.081 32.1603 227.081 32.1603C227.081 32.1603 227.652 38.8632 218.952 43.9969C218.952 43.9969 241.057 43.1413 251.04 46.2789C254.303 47.3043 256.529 50.1125 258.88 53.5869C263.723 60.7446 269.093 70.7317 285.126 73.8043C285.126 73.8043 282.357 76.6328 277.331 76.8166C274.618 76.9168 271.248 76.2459 267.299 73.9472C267.299 73.9472 271.435 81.6487 283.414 91.2034C295.25 100.64 294.001 111.474 293.97 111.734Z" fill="#414564"/>
<path d="M259.982 116.729C259.982 116.729 253.564 150.671 249.143 160.369C248.966 160.756 248.758 161.15 248.522 161.553C242.79 171.238 219.812 185.053 210.637 185.326C210.598 185.328 210.557 185.324 210.517 185.322C210.476 185.324 210.436 185.327 210.396 185.326C200.84 185.042 176.311 170.066 171.889 160.369C171.493 159.498 171.081 158.435 170.659 157.218C166.369 144.858 161.051 116.729 161.051 116.729C161.051 116.729 157.629 95.0516 163.19 78.793C168.752 62.5354 175.598 72.5179 184.867 71.0916C191.732 70.0364 203.677 74.9223 210.516 77.762C217.355 74.9223 229.3 70.0364 236.164 71.0916C245.434 72.5179 252.28 62.5345 257.842 78.793C263.405 95.0516 259.982 116.729 259.982 116.729Z" fill="#FFC3B3"/>
<path d="M216.814 216.559C216.671 216.598 216.53 216.645 216.392 216.702C214.17 217.603 212.406 220.753 211.267 223.403C211.033 223.945 210.826 224.469 210.647 224.947C210.646 224.951 210.644 224.955 210.643 224.958C210.568 225.156 210.383 225.245 210.209 225.226C210.162 225.221 210.116 225.209 210.074 225.187C209.983 225.146 209.906 225.068 209.864 224.958C209.862 224.955 209.861 224.95 209.859 224.947C209.581 224.206 209.238 223.361 208.832 222.495C207.698 220.074 206.087 217.5 204.114 216.702C203.976 216.646 203.835 216.598 203.692 216.559C199.452 215.428 205.855 211.638 205.972 211.57C205.973 211.568 205.973 211.568 205.973 211.568C205.973 211.568 209.487 211.568 210.251 220.59C211.016 211.568 214.529 211.568 214.529 211.568C214.529 211.568 214.529 211.568 214.53 211.57C214.651 211.637 221.054 215.428 216.814 216.559Z" fill="#8EADCE"/>
<path opacity="0.2" d="M248.522 161.553C242.79 171.238 219.812 185.053 210.637 185.327C210.598 185.328 210.557 185.324 210.517 185.322C210.476 185.324 210.436 185.328 210.396 185.327C200.84 185.042 176.311 170.067 171.889 160.369C171.493 159.499 171.081 158.435 170.659 157.218C175.449 163.852 186.272 173.3 209.397 174.488C229.033 175.496 241.362 168.313 248.522 161.553Z" fill="#F27584"/>
<path opacity="0.58" d="M160.654 123.141C160.654 123.141 156.712 109.934 156.528 101.137C156.344 92.341 151.354 112.593 156.202 124.715C161.051 136.838 160.654 123.141 160.654 123.141Z" fill="#1E143A"/>
<path d="M168.325 134.413C168.325 134.413 163.619 116.443 149.927 120.436C136.236 124.429 147.93 149.244 158.769 151.241C169.608 153.238 171.747 143.683 171.747 143.683L168.325 134.413Z" fill="#FFC3B3"/>
<path opacity="0.2" d="M152.637 130.278C152.637 130.278 151.639 136.267 153.208 140.261C154.776 144.254 155.347 139.833 159.768 143.256C164.189 146.678 167.183 142.971 165.33 138.55C163.476 134.128 155.347 123.86 152.637 130.278Z" fill="#F27584"/>
<path d="M165.758 140.831C165.468 140.831 165.194 140.652 165.088 140.362C162.884 134.338 158.211 129.16 155.089 129.278C154.636 129.296 154.284 129.47 153.98 129.828C152.719 131.312 152.888 135.225 153.059 136.607C153.107 136.997 152.831 137.354 152.44 137.402C152.049 137.451 151.693 137.174 151.645 136.783C151.574 136.211 151.002 131.133 152.893 128.906C153.458 128.241 154.179 127.886 155.035 127.853C156.985 127.779 159.293 129.116 161.53 131.62C163.552 133.882 165.337 136.891 166.428 139.871C166.564 140.241 166.373 140.651 166.003 140.786C165.922 140.817 165.839 140.831 165.758 140.831Z" fill="#F27584"/>
<path d="M163.213 134.638C164.28 137.362 163.661 140.15 161.83 140.867C159.999 141.583 157.651 139.956 156.585 137.234C155.518 134.51 156.137 131.721 157.968 131.005C159.798 130.288 162.147 131.914 163.213 134.638Z" fill="#F27584"/>
<path d="M252.68 134.413C252.68 134.413 257.386 116.443 271.078 120.436C284.768 124.429 273.075 149.244 262.236 151.241C251.397 153.238 249.258 143.683 249.258 143.683L252.68 134.413Z" fill="#FFC3B3"/>
<path opacity="0.2" d="M268.367 130.278C268.367 130.278 269.366 136.267 267.796 140.261C266.228 144.254 265.657 139.833 261.236 143.256C256.815 146.678 253.821 142.971 255.675 138.55C257.529 134.128 265.657 123.86 268.367 130.278Z" fill="#F27584"/>
<path d="M255.247 140.831C255.537 140.831 255.811 140.652 255.917 140.362C258.121 134.338 262.794 129.16 265.916 129.278C266.369 129.296 266.721 129.47 267.025 129.828C268.286 131.312 268.117 135.225 267.946 136.607C267.897 136.997 268.174 137.354 268.566 137.402C268.956 137.451 269.313 137.174 269.361 136.783C269.432 136.211 270.005 131.133 268.113 128.906C267.548 128.241 266.827 127.886 265.971 127.853C264.021 127.779 261.713 129.116 259.476 131.62C257.454 133.882 255.669 136.891 254.578 139.871C254.442 140.241 254.633 140.651 255.003 140.786C255.083 140.817 255.165 140.831 255.247 140.831Z" fill="#F27584"/>
<path d="M257.792 134.638C256.725 137.362 257.344 140.15 259.175 140.867C261.006 141.583 263.354 139.956 264.42 137.234C265.486 134.51 264.868 131.721 263.037 131.005C261.206 130.288 258.858 131.914 257.792 134.638Z" fill="#F27584"/>
<path d="M171.462 97.1908C171.462 97.1908 177.31 88.3488 187.72 86.7795C198.131 85.2103 181.302 76.2263 181.302 76.2263L167.468 84.6405L171.462 97.1908Z" fill="#1E143A"/>
<path d="M267.728 88.9185C267.728 88.9185 266.774 97.0673 265.246 107.298C265.244 107.302 265.244 107.306 265.243 107.311C264.106 114.925 258.65 121.864 257.031 129.279C254.968 138.73 256.639 147.813 254.37 147.693C254.076 147.678 253.785 147.54 253.496 147.268C246.939 141.121 250.762 120.037 250.896 119.314C250.897 119.301 250.898 119.296 250.898 119.296C241.721 118.879 236.34 114.192 233.236 109.497C230.492 105.348 229.525 101.194 229.285 99.9729L229.271 99.894C229.247 99.7724 229.232 99.6889 229.227 99.6472L229.221 99.6147C229.22 99.7075 229.218 99.8012 229.218 99.894C229.181 106.934 232.952 112.833 233.069 113.016C233.07 113.018 233.07 113.019 233.071 113.021C213.956 115.27 210.632 101.589 210.54 101.192C210.556 101.388 210.577 101.58 210.6 101.771C211.434 108.956 214.986 112.479 215.1 112.59C215.102 112.592 215.103 112.593 215.103 112.593C189.289 110.454 181.731 81.2171 181.731 81.2171C179.592 83.3561 178.45 90.4869 178.45 90.4869L174.172 87.6342C168.611 96.0484 176.169 115.017 176.169 115.017C170.837 113.682 167.869 108.858 167.504 108.239C168.025 109.306 174.513 122.585 172.461 122.861C170.322 123.146 168.183 121.15 168.183 121.15C168.183 121.15 171.036 141.686 168.468 140.974C165.901 140.261 161.765 122.576 161.765 122.576L157.058 105.89L157.486 86.2088C157.486 86.2088 168.753 63.9609 173.316 62.5346C177.88 61.1083 203.407 61.2512 214.103 60.1097C224.799 58.9692 250.897 63.96 250.897 63.96L267.728 88.9185Z" fill="#414564"/>
<path opacity="0.58" d="M215.1 112.59C202.982 103.607 208.827 90.202 208.827 90.202C208.961 95.8498 210.433 101.18 210.6 101.771C211.434 108.957 214.986 112.479 215.1 112.59Z" fill="#1E143A"/>
<path opacity="0.58" d="M264.519 120.186C262.343 120.727 260.515 121.89 258.996 123.331C259.53 120.885 261.769 109.906 261.085 101C260.355 91.4808 266.795 103.782 264.519 120.186Z" fill="#1E143A"/>
<path opacity="0.58" d="M183.512 39.011C163.678 55.7808 173.573 90.4361 156.63 83.7851C144.412 78.9892 139.087 83.323 136.826 87.1324C137.456 81.9467 138.202 78.115 140.8 76.9402C146.791 74.2304 153.494 76.6553 153.494 76.6553C153.494 76.6553 153.066 53.4089 174.173 42.7127C177.239 41.1574 180.373 39.9519 183.512 39.011Z" fill="#1E143A"/>
<path opacity="0.58" d="M250.895 119.314C250.897 119.301 250.898 119.296 250.898 119.296C241.721 118.879 236.34 114.192 233.236 109.497C230.492 105.348 229.525 101.194 229.285 99.9731L229.271 99.8942C229.247 99.7727 229.232 99.6891 229.227 99.6474L229.221 99.6149C229.22 99.7077 229.218 99.8014 229.218 99.8942C228.127 88.6589 232.216 79.649 232.216 79.649C232.501 106.889 251.897 119.153 251.897 119.153C251.561 119.218 251.227 119.272 250.895 119.314Z" fill="#1E143A"/>
<path d="M211.814 273.882C211.473 273.966 211.118 274.015 210.734 274.029C210.716 274.03 210.699 274.033 210.682 274.033C210.655 274.033 210.629 274.033 210.603 274.031H210.59C210.558 274.033 210.528 274.033 210.497 274.033C210.48 274.033 210.463 274.03 210.446 274.029C210.071 274.015 209.723 273.967 209.389 273.888L209.242 260.412L208.889 227.654L208.833 222.495L208.827 221.992L211.252 221.966L211.268 223.403L211.34 230.125L211.662 259.965L211.814 273.882Z" fill="#8EADCE"/>
<path d="M205.975 211.568C205.975 211.568 205.975 211.568 205.974 211.57C205.948 211.633 205.11 213.643 204.115 216.702C204.076 216.821 204.038 216.941 204 217.062C203.638 218.194 203.257 219.459 202.892 220.812C201.694 225.253 200.645 230.657 200.841 235.528C200.841 235.528 195.706 234.529 193.283 223.691C190.858 212.852 187.435 208.859 187.435 208.859C187.435 208.859 187.91 207.464 188.278 205.543C188.337 205.232 188.395 204.907 188.446 204.572C188.751 202.585 188.871 200.241 188.29 198.305L192.568 196.878L193.281 191.031L196.689 191.206C196.703 191.504 196.718 191.804 196.731 192.105C196.744 192.407 196.755 192.71 196.766 193.013C196.769 193.093 196.772 193.175 196.775 193.256C196.783 193.478 196.79 193.702 196.796 193.926C196.797 193.976 196.799 194.025 196.801 194.075C196.808 194.33 196.814 194.587 196.82 194.842L194.707 198.589C194.707 198.589 194.868 199.433 195.337 200.706C195.628 201.498 196.039 202.455 196.604 203.48C198.211 206.398 201.065 209.857 205.975 211.568Z" fill="#D7E9F4"/>
<path d="M233.072 208.858C233.072 208.858 232.097 209.996 230.817 212.708C229.701 215.074 228.354 218.64 227.225 223.689C224.8 234.528 219.666 235.526 219.666 235.526C219.841 231.199 219.032 226.451 218.009 222.332C217.513 220.33 216.965 218.477 216.455 216.894C216.433 216.828 216.413 216.764 216.392 216.7C215.398 213.642 214.559 211.631 214.533 211.568C214.532 211.566 214.532 211.566 214.532 211.566C221.275 209.215 224.139 203.572 225.221 200.561C225.244 200.497 225.265 200.435 225.286 200.374C225.664 199.287 225.799 198.589 225.799 198.589L224.005 195.409L224.004 195.406C223.98 195.272 223.954 195.137 223.931 195C223.907 194.865 223.883 194.726 223.861 194.586C223.818 194.325 223.778 194.06 223.739 193.789C223.716 193.625 223.694 193.46 223.673 193.292C223.659 193.183 223.644 193.073 223.631 192.963C223.623 192.9 223.615 192.838 223.608 192.774C223.597 192.697 223.589 192.618 223.581 192.538C223.579 192.53 223.579 192.521 223.578 192.512C223.565 192.401 223.554 192.288 223.543 192.174C223.54 192.153 223.537 192.13 223.535 192.107C223.533 192.087 223.531 192.068 223.53 192.049C223.529 192.039 223.527 192.029 223.527 192.019C223.501 191.759 223.477 191.493 223.456 191.224L227.225 191.03L227.938 196.877L232.216 198.304C231.698 200.027 231.737 202.074 231.966 203.904C232.309 206.619 233.072 208.858 233.072 208.858Z" fill="#D7E9F4"/>
<path opacity="0.28" d="M202.892 220.812C201.694 225.253 200.645 230.657 200.841 235.528C200.841 235.528 195.706 234.529 193.283 223.691C190.858 212.852 187.435 208.859 187.435 208.859C187.435 208.859 187.91 207.464 188.278 205.543C189.115 208.197 191.371 213.652 196.419 216.702C197.917 217.608 199.367 217.932 200.719 217.886C201.898 217.847 203.001 217.525 203.999 217.062C203.638 218.194 203.257 219.459 202.892 220.812Z" fill="#8EADCE"/>
<path opacity="0.28" d="M230.817 212.708C229.701 215.074 228.354 218.64 227.225 223.689C224.8 234.528 219.666 235.526 219.666 235.526C219.841 231.199 219.032 226.451 218.009 222.333C217.513 220.33 216.965 218.478 216.455 216.895C217.488 217.434 218.816 217.832 220.511 217.896C221.09 217.92 221.711 217.904 222.376 217.842C225.89 217.512 228.756 215.146 230.817 212.708Z" fill="#8EADCE"/>
<path d="M285.872 296.066L280.866 371.159L280.855 371.34C280.451 377.416 275.403 382.136 269.314 382.136H148.942C142.839 382.136 137.788 377.396 137.4 371.308L135.153 336.074L132.6 296.034C132.398 292.882 133.477 289.958 135.375 287.753C137.49 285.298 140.623 283.731 144.142 283.731H274.333C281.023 283.731 286.317 289.39 285.872 296.066Z" fill="#EEF9FF"/>
<path opacity="0.28" d="M219.327 340.084C224.813 334.599 224.813 325.704 219.327 320.219C213.841 314.733 204.947 314.733 199.461 320.219C193.976 325.704 193.976 334.599 199.461 340.084C204.947 345.57 213.841 345.57 219.327 340.084Z" fill="#8EADCE"/>
<path opacity="0.67" d="M280.866 371.158L280.855 371.339C280.45 377.415 275.403 382.136 269.314 382.136H148.942C142.839 382.136 137.788 377.395 137.4 371.307L135.153 336.073C141.625 352.178 155.692 367.514 185.153 371.581C235.924 378.591 267.867 373.974 280.866 371.158Z" fill="#D7E9F4"/>
<path d="M232.868 116.301C229.041 115.303 228.875 109.027 225.31 109.455C221.744 109.883 218.892 117.585 226.45 121.863C234.009 126.141 239.764 125.481 240.569 122.148C241.568 118.012 236.149 117.157 232.868 116.301Z" fill="#414564"/>
<path d="M188.006 116.301C191.833 115.303 191.999 109.028 195.564 109.455C199.13 109.883 201.982 117.585 194.423 121.863C186.864 126.141 181.109 125.481 180.304 122.148C179.306 118.012 184.725 117.157 188.006 116.301Z" fill="#414564"/>
<path d="M190.431 131.347C190.416 131.347 190.401 131.347 190.386 131.346C189.875 131.322 189.48 130.888 189.505 130.376C189.512 130.228 189.713 126.735 192.847 125.69C195.877 124.68 198.209 126.637 198.308 126.721C198.696 127.054 198.741 127.64 198.408 128.027C198.075 128.416 197.489 128.461 197.101 128.128C197.039 128.076 195.451 126.776 193.434 127.447C191.491 128.094 191.358 130.439 191.357 130.463C191.333 130.961 190.923 131.347 190.431 131.347Z" fill="#F27584"/>
<path d="M230.505 131.347C230.015 131.347 229.605 130.963 229.579 130.468C229.574 130.367 229.419 128.088 227.502 127.448C225.457 126.766 223.851 128.115 223.835 128.129C223.446 128.462 222.862 128.417 222.528 128.028C222.195 127.64 222.24 127.055 222.629 126.722C222.726 126.638 225.058 124.68 228.089 125.691C231.223 126.736 231.424 130.229 231.432 130.377C231.456 130.888 231.061 131.323 230.55 131.347C230.534 131.347 230.519 131.347 230.505 131.347Z" fill="#F27584"/>
<path d="M210.397 143.754C210.375 143.754 210.352 143.753 210.329 143.752C210.204 143.758 210.093 143.746 209.986 143.711C208.768 143.48 206.273 142.214 205.574 140.817C204.847 139.364 206.052 136.854 206.439 136.12C206.677 135.667 207.238 135.493 207.691 135.731C208.143 135.97 208.318 136.53 208.079 136.983C207.461 138.162 207.049 139.623 207.232 139.987C207.587 140.696 209.55 141.77 210.329 141.891C211.108 141.77 213.071 140.696 213.426 139.987C213.609 139.62 213.198 138.159 212.578 136.983C212.34 136.53 212.514 135.97 212.967 135.731C213.42 135.493 213.981 135.667 214.219 136.12C214.606 136.854 215.811 139.364 215.084 140.817C214.383 142.217 211.879 143.487 210.664 143.713C210.579 143.74 210.489 143.754 210.397 143.754Z" fill="#F27584"/>
<path d="M216.328 161.795C213.653 161.144 211.665 160.879 210.296 160.784C208.926 160.879 206.938 161.143 204.264 161.795C198.416 163.222 197.703 158.801 199.13 156.234C199.576 155.429 200.313 154.706 201.243 154.076C203.129 152.799 205.808 151.913 208.474 151.547C209.085 151.462 209.696 151.406 210.296 151.379C210.897 151.407 211.507 151.463 212.118 151.547C214.999 151.943 217.896 152.946 219.789 154.394C220.512 154.946 221.088 155.562 221.462 156.235C222.888 158.801 222.175 163.222 216.328 161.795Z" fill="#414564"/>
<path d="M219.789 154.392C219.226 155.343 218.399 156.699 217.955 157.231C217.427 157.864 212.921 157.716 210.61 157.598C208.299 157.717 203.793 157.864 203.266 157.231C202.771 156.638 201.796 155.014 201.244 154.075C203.13 152.797 205.809 151.912 208.475 151.546C209.086 151.461 209.697 151.405 210.297 151.378C210.898 151.406 211.508 151.462 212.119 151.546C214.999 151.942 217.895 152.944 219.789 154.392Z" fill="white"/>
<path d="M206.831 164.79C206.831 164.79 211.109 165.361 213.962 164.79C213.962 164.79 210.682 162.508 206.831 164.79Z" fill="#F27584"/>
</g>
<path d="M370.339 106.385C387.905 88.8185 387.905 60.3377 370.339 42.7713C352.772 25.2049 324.291 25.2049 306.725 42.7713C289.159 60.3377 289.159 88.8184 306.725 106.385C324.291 123.951 352.772 123.951 370.339 106.385Z" fill="#99A5FF"/>
<path d="M310.62 95.093C310.62 95.093 296.61 112.294 300.561 115.009C304.513 117.724 326.425 105.05 326.425 105.05L310.62 95.093Z" fill="#BCC2FF"/>
<path d="M327.341 52.0227C330.102 49.3352 333.84 48.0137 337.631 47.6806C339.605 47.5071 341.602 47.5572 343.568 47.7975C345.712 48.0601 347.971 48.4852 349.854 49.5904C353.717 51.8566 354.612 57.1703 354.783 61.2712C354.877 63.5188 354.739 65.8026 354.1 67.9704C353.413 70.3071 352.035 72.2828 350.233 73.904C344.728 78.8586 335.853 79.4989 329.661 75.4695C323.511 71.4671 320.577 63.1568 322.776 56.1755C323.396 54.2063 324.466 52.2436 326.164 51.0038C327.755 49.8419 329.753 49.4308 331.689 49.3835C336.123 49.274 340.825 50.5509 344.752 52.5712C346.712 53.5799 348.566 54.9079 349.614 56.9003C350.587 58.7479 350.795 60.9194 350.678 62.9759C350.554 65.1743 349.929 67.3663 348.622 69.1601C347.361 70.8917 345.496 72.1612 343.54 72.9872C339.336 74.7606 334.405 74.6334 329.953 74.1787C326.169 73.7917 320.32 73.066 320.113 68.1866C319.942 64.1312 323.748 61.0521 327.518 60.5649C329.267 60.3394 331.147 60.6123 332.641 61.5876C334.091 62.5332 334.82 64.1647 334.838 65.8629C334.883 70.1818 331.602 73.5328 329.578 77.0434C328.506 78.9032 327.151 81.4255 328.093 83.5849C328.882 85.3936 330.883 86.4868 332.523 87.4092C336.148 89.448 340.296 90.7509 344.479 90.0958C348.445 89.474 351.866 87.0389 354.66 84.2735C357.979 80.9884 361.013 77.1344 363.254 73.0354C364.294 71.1321 365.388 68.994 365.662 66.8141C365.959 64.4533 364.77 62.7569 362.954 61.3834C359.647 58.8843 355.271 57.8116 351.346 59.4356C349.341 60.2652 347.611 61.647 346.046 63.1281C344.232 64.8458 342.612 66.777 341.212 68.8464C339.995 70.6477 338.755 72.6559 338.412 74.8404C338.076 76.972 338.779 78.8911 340.044 80.593C342.722 84.1965 346.741 87.412 351.275 88.146C355.027 88.7529 359.252 87.7572 361.764 84.7403C362.491 83.867 363.052 82.8629 363.176 81.7169C363.297 80.6088 362.964 79.5537 362.492 78.5626C361.526 76.5293 360.073 74.7383 358.699 72.9705C355.573 68.9466 352.486 64.8022 349.071 61.015C347.587 59.3678 345.849 58.0705 343.728 57.3717C341.652 56.6878 339.413 56.6274 337.267 56.9569C332.734 57.6538 328.797 60.3515 325.265 63.1188C323.386 64.5906 321.587 66.1626 319.876 67.8265C318.236 69.4218 316.569 71.1376 315.542 73.2089C313.602 77.1195 314.761 81.2426 317.481 84.4424C320.504 87.9976 325.028 90.1644 329.57 90.9588C333.536 91.653 337.645 91.4219 341.511 90.2981C343.456 89.732 345.352 88.946 347.119 87.9549C348.994 86.9034 350.894 85.6219 352.254 83.9366C353.553 82.3256 354.346 80.3861 354.046 78.2944C353.808 76.624 352.889 75.0807 351.656 73.9458C348.812 71.327 344.874 70.9465 341.314 72.2011C337.203 73.6507 333.408 76.6722 330.842 80.1652C329.516 81.9702 328.6 84.0424 328.204 86.2483C327.818 88.3975 327.824 90.6025 327.377 92.7406C326.928 94.8833 325.897 96.6326 324.273 98.1007C322.618 99.5976 320.631 100.677 318.682 101.738C317.341 102.467 318.506 104.527 319.843 103.8C323.796 101.648 327.906 99.1345 329.341 94.5984C330.004 92.5039 330.059 90.2758 330.309 88.1108C330.563 85.9207 331.181 83.9125 332.399 82.0584C333.675 80.1142 335.429 78.4689 337.285 77.0833C338.825 75.9345 340.532 74.9128 342.373 74.3374C345.553 73.3426 349.334 73.9142 351.133 77.0221C353.344 80.8455 349.126 84.0777 346.17 85.7741C342.787 87.7136 338.935 88.8244 335.038 88.9747C330.808 89.1371 326.503 88.2091 322.884 85.9625C319.753 84.0192 316.304 80.4009 316.945 76.3744C317.299 74.1537 318.809 72.3069 320.318 70.733C321.95 69.0311 323.707 67.4396 325.523 65.9362C328.911 63.1327 332.709 60.293 337.104 59.3827C339.09 58.9716 341.188 59.0208 343.121 59.6583C345.316 60.3821 346.862 62.0117 348.303 63.7443C351.518 67.6113 354.658 71.5506 357.718 75.541C358.345 76.3595 358.954 77.1947 359.503 78.0689C360.046 78.9338 360.71 79.9304 360.834 80.9717C361.064 82.9121 358.819 84.4971 357.281 85.1876C353.574 86.8524 349.41 85.6766 346.24 83.4271C344.454 82.1595 342.689 80.4641 341.525 78.596C340.411 76.8077 340.536 74.9991 341.424 73.1431C342.449 71.0003 343.876 68.9958 345.424 67.2029C346.855 65.5464 348.456 63.9132 350.283 62.6919C352.021 61.5301 353.929 60.8489 356.038 61.0271C357.965 61.1904 359.8 62.0256 361.363 63.1327C362.126 63.6728 362.984 64.341 363.262 65.2718C363.519 66.132 363.263 67.0758 362.993 67.9017C362.234 70.2189 360.984 72.4053 359.65 74.4339C357.265 78.0596 354.38 81.6259 351.014 84.3895C347.972 86.8886 344.245 88.4003 340.267 87.773C338.289 87.4612 336.39 86.7652 334.615 85.852C333.713 85.388 332.834 84.8739 331.987 84.3162C331.342 83.8912 330.55 83.3668 330.241 82.6207C329.882 81.7521 330.438 80.6246 330.791 79.8376C331.325 78.6461 332.025 77.5334 332.741 76.4449C333.946 74.613 335.244 72.8331 336.104 70.8045C337.539 67.4173 337.863 63.1169 334.924 60.3951C332.119 57.7967 327.742 57.5972 324.336 59.0068C320.492 60.5984 317.351 64.2918 317.782 68.645C317.983 70.669 318.907 72.4758 320.508 73.7453C322.361 75.2153 324.718 75.7999 327.011 76.1637C335.111 77.448 346.512 77.6392 351.241 69.4645C353.388 65.7553 353.724 60.6123 352.09 56.646C350.321 52.3503 345.85 50.1723 341.699 48.7487C337.678 47.3706 332.982 46.4417 328.757 47.3567C324.341 48.3126 321.536 51.8278 320.348 56.0428C318.345 63.1476 320.951 71.3715 326.591 76.1117C332.475 81.057 341.085 81.754 347.895 78.3315C351.77 76.3836 354.988 73.028 356.304 68.8511C357.659 64.5507 357.399 59.5516 356.26 55.2327C355.729 53.2217 354.905 51.2747 353.569 49.6647C352.042 47.8244 349.824 46.7517 347.55 46.1485C343.659 45.1156 339.42 44.9281 335.456 45.5945C331.821 46.206 328.348 47.7428 325.69 50.331C324.597 51.3926 326.25 53.0853 327.341 52.0227Z" fill="#000C61"/>
<path d="M114.731 201.175C135.681 180.226 135.681 146.26 114.731 125.311C93.7824 104.362 59.8172 104.362 38.8682 125.311C17.9191 146.26 17.9191 180.226 38.8682 201.175C59.8172 222.124 93.7824 222.124 114.731 201.175Z" fill="#99A5FF"/>
<path d="M52.9559 151.454L49.1799 189.211H105.219L100.251 150.46L52.9559 151.454Z" fill="#EEF9FF"/>
<path d="M48.3855 142.512L49.3785 154.038H103.034V143.306L48.3855 142.512Z" fill="#007DF3"/>
<g opacity="0.9">
<path d="M70.3736 159.861C68.2457 161.806 66.1178 163.752 63.9908 165.697C63.6066 166.048 63.6344 166.702 63.9908 167.058C64.3731 167.441 64.967 167.41 65.3522 167.058C67.4801 165.113 69.608 163.168 71.7349 161.222C72.1182 160.871 72.0913 160.217 71.7349 159.861C71.3526 159.478 70.7587 159.509 70.3736 159.861Z" fill="#000C61"/>
<path d="M64.1012 161.211C66.6421 163.432 69.0948 165.751 71.4547 168.164C72.3224 169.051 73.6828 167.69 72.8161 166.803C70.4562 164.39 68.0035 162.07 65.4626 159.849C65.0719 159.507 64.4863 159.464 64.1012 159.849C63.7514 160.199 63.7078 160.867 64.1012 161.211Z" fill="#000C61"/>
<path d="M91.7278 160.249C90.732 161.462 89.6843 162.631 88.5846 163.751C88.0418 164.303 87.4877 164.844 86.9207 165.372C86.6451 165.629 86.3667 165.882 86.0855 166.133C85.9296 166.272 85.7728 166.41 85.615 166.547C85.5519 166.602 85.4888 166.658 85.4257 166.712C85.2095 166.894 85.4861 166.646 85.6225 166.661C85.7839 166.704 85.9463 166.748 86.1078 166.792C86.0846 166.779 86.0623 166.765 86.0391 166.752C85.59 166.491 84.9849 166.648 84.7223 167.098C84.4588 167.548 84.6174 168.152 85.0675 168.414C86.0735 169.001 86.9532 167.94 87.6344 167.326C88.2877 166.738 88.9252 166.133 89.5479 165.513C90.7933 164.272 91.9737 162.968 93.0892 161.609C93.4186 161.208 93.4817 160.641 93.0892 160.248C92.7495 159.908 92.0591 159.845 91.7278 160.249Z" fill="#000C61"/>
<path d="M87.445 163.75C88.2134 164.256 88.9679 164.785 89.7056 165.336C89.8847 165.47 90.062 165.606 90.2393 165.741C90.1659 165.684 90.1761 165.692 90.243 165.744C90.2866 165.778 90.3311 165.812 90.3747 165.847C90.4629 165.915 90.5501 165.985 90.6374 166.055C91.0086 166.35 91.3751 166.651 91.737 166.958C92.1212 167.282 92.7263 167.362 93.0984 166.958C93.4269 166.599 93.5086 165.943 93.0984 165.596C91.609 164.336 90.0453 163.161 88.4167 162.087C87.9953 161.81 87.3337 161.99 87.0998 162.433C86.8446 162.914 86.995 163.453 87.445 163.75Z" fill="#000C61"/>
<path d="M62.9152 175.949C62.1905 176.871 61.4007 177.742 60.5479 178.548C60.1331 178.941 59.7034 179.318 59.2608 179.68C59.1448 179.776 59.026 179.869 58.9091 179.962C58.7754 180.069 58.936 179.943 58.8543 180.005C58.794 180.051 58.7346 180.096 58.6743 180.142C58.4339 180.322 58.1889 180.497 57.9421 180.669C57.5291 180.955 57.2999 181.525 57.5969 181.985C57.8613 182.396 58.471 182.638 58.9137 182.331C60.9377 180.926 62.7538 179.247 64.2766 177.309C64.5866 176.914 64.6905 176.328 64.2766 175.948C63.9305 175.631 63.2475 175.526 62.9152 175.949Z" fill="#000C61"/>
<path d="M58.7318 177.907C60.6258 179.602 62.5635 181.246 64.5439 182.838C64.9355 183.153 65.5275 183.249 65.9052 182.838C66.2263 182.489 66.3238 181.814 65.9052 181.477C63.9249 179.884 61.9872 178.239 60.0932 176.546C59.7183 176.21 59.0965 176.148 58.7318 176.546C58.3949 176.913 58.3309 177.549 58.7318 177.907Z" fill="#000C61"/>
<path d="M77.0236 175.608C75.9657 176.401 74.9569 177.253 74.0215 178.188C73.5872 178.622 73.1724 179.073 72.7678 179.535C72.5711 179.76 72.3743 179.986 72.1581 180.193C72.1154 180.233 72.0718 180.274 72.0272 180.313C72.031 180.31 71.8342 180.469 71.9187 180.406C72.0087 180.339 71.8175 180.472 71.7999 180.483C71.7247 180.53 71.6468 180.573 71.5679 180.614C71.1206 180.846 70.9508 181.509 71.2227 181.931C71.5168 182.387 72.0607 182.525 72.5395 182.276C73.1019 181.984 73.564 181.535 73.9798 181.065C74.3927 180.598 74.8057 180.132 75.2428 179.688C75.6771 179.246 76.1272 178.821 76.593 178.412C76.838 178.196 77.0867 177.986 77.3391 177.781C77.4533 177.688 77.5674 177.597 77.6825 177.506C77.7159 177.479 77.8579 177.37 77.7586 177.447C77.8365 177.387 77.9145 177.329 77.9924 177.27C78.3943 176.97 78.6411 176.425 78.3376 175.953C78.0843 175.556 77.4551 175.285 77.0236 175.608Z" fill="#000C61"/>
<path d="M71.1624 176.107C73.3822 178.397 75.5314 180.753 77.6073 183.174C77.9461 183.569 78.6207 183.522 78.9687 183.174C79.3603 182.783 79.3084 182.209 78.9687 181.813C76.8937 179.392 74.7445 177.035 72.5237 174.746C71.6589 173.856 70.2984 175.218 71.1624 176.107Z" fill="#000C61"/>
<path d="M93.8148 175.013C91.9208 177.788 89.9896 180.577 87.3578 182.713C86.9541 183.041 87.0172 183.734 87.3578 184.074C87.7569 184.473 88.3146 184.403 88.7192 184.074C91.4707 181.842 93.4965 178.886 95.4778 175.985C95.7711 175.555 95.5586 174.918 95.1326 174.668C94.6556 174.39 94.109 174.584 93.8148 175.013Z" fill="#000C61"/>
<path d="M88.3471 178.145C90.8091 179.798 93.1272 181.648 95.2904 183.676C95.6699 184.032 96.2759 184.052 96.6518 183.676C97.0109 183.317 97.0322 182.672 96.6518 182.315C94.3707 180.176 91.9143 178.225 89.3187 176.482C88.8872 176.192 88.2524 176.398 88.0019 176.827C87.7253 177.3 87.9146 177.853 88.3471 178.145Z" fill="#000C61"/>
</g>
</svg>
