<svg width="94" height="31" viewBox="0 0 94 31" fill="none" xmlns="http://www.w3.org/2000/svg">
<path d="M0.832001 10.32C0.832001 6.336 2.944 3.36 7.12 1.392C8.848 0.575998 10.912 0.191998 13.312 0.191998C14.896 0.191998 16.288 0.335999 17.44 0.672L25.36 2.784C26.32 3.024 27.424 3.168 28.72 3.168C29.968 3.168 31.168 2.928 32.368 2.496C33.232 2.16 33.712 2.016 33.76 2.016C34.144 2.016 34.336 2.256 34.336 2.688C34.336 4.08 33.52 5.184 31.84 6.096C30.544 6.816 29.248 7.248 28.048 7.488H26.608C25.12 7.488 23.92 7.344 22.912 7.104C22.144 6.912 21.328 6.72 20.416 6.576C18.88 6.24 17.536 6.096 16.432 6.096C11.872 6.096 9.616 8.112 9.616 12.144C9.616 13.344 9.904 14.4 10.432 15.312L11.44 16.992C11.44 17.664 10.528 18 8.752 18C3.472 18 0.832001 15.456 0.832001 10.32ZM15.712 7.68C15.856 7.296 16.24 7.104 16.912 7.104C21.184 7.104 23.2 9.552 23.056 14.496C23.104 14.688 23.2 14.784 23.344 14.784H23.44C23.824 14.448 24.16 14.112 24.448 13.728C25.456 12.576 26.08 12 26.368 12C27.808 12 28.528 12.864 28.528 14.544C28.528 15.024 28.144 16.272 27.328 18.336C26.656 20.016 26.128 20.832 25.792 20.832C24.544 20.832 23.68 20.304 23.248 19.296L22.864 18.336H22.816C19.696 21.072 18.256 24.96 18.448 29.952C18.352 30.384 17.968 30.624 17.248 30.624C12.88 30.624 10.72 28.848 10.72 25.344C10.72 24.432 10.768 23.808 10.912 23.424L15.232 10.608C15.328 10.368 15.472 9.36 15.712 7.68ZM19.552 10.704V11.28C19.552 11.76 19.696 12.864 19.936 14.592C20.032 15.264 20.272 15.552 20.608 15.504C20.704 15.456 20.752 15.408 20.752 15.312V11.424C20.752 10.752 20.464 10.416 19.888 10.416C19.84 10.416 19.696 10.512 19.552 10.704ZM26.128 15.552C26.128 15.696 26.176 15.792 26.272 15.792H26.32C26.944 15.36 27.232 14.88 27.232 14.352C27.232 14.016 27.136 13.824 26.896 13.824C26.368 13.824 26.128 14.4 26.128 15.552ZM21.952 16.08C21.952 16.32 22.288 16.416 22.912 16.416C23.056 16.416 23.152 16.368 23.152 16.272C23.152 15.984 22.864 15.84 22.336 15.84C22.096 15.84 21.952 15.936 21.952 16.08ZM28.411 12.864C28.411 10.08 29.995 7.584 33.115 5.328C34.651 4.224 36.331 3.36 38.155 2.688C41.659 1.392 45.451 0.767999 49.531 0.767999C52.699 0.767999 55.675 1.248 58.507 2.256C63.883 4.128 66.571 7.584 66.571 12.672C66.571 17.472 64.603 21.504 60.715 24.768C59.131 26.064 57.403 27.168 55.483 28.08C52.075 29.664 48.475 30.48 44.779 30.48C44.347 30.48 43.675 30.432 42.715 30.384C40.987 30.24 40.027 30.144 39.883 30V30.096C39.835 30.048 39.787 30.048 39.691 30C37.579 29.568 35.083 28.752 32.203 27.456C30.427 26.16 29.515 24.768 29.515 23.376C29.515 20.352 31.339 18.816 34.987 18.816C37.051 18.816 38.059 19.152 38.059 19.824C38.059 20.016 38.011 20.16 37.867 20.304L36.427 21.744C36.043 22.128 35.851 22.752 35.851 23.568C35.851 25.152 37.003 26.496 39.259 27.552C40.315 28.032 41.611 28.272 43.147 28.272C49.243 28.272 53.371 25.296 55.483 19.392C56.587 16.272 57.115 13.68 57.115 11.568C57.115 5.472 54.379 2.4 48.859 2.4C46.891 2.4 44.683 3.024 42.283 4.272C38.971 5.952 37.339 8.64 37.339 12.24C37.339 13.2 37.675 14.304 38.347 15.6C38.683 16.32 38.875 16.704 38.875 16.8C38.875 17.52 37.819 17.904 35.659 17.904H35.611C34.699 17.856 34.171 17.808 34.027 17.808C31.963 17.376 30.139 15.936 28.459 13.488C28.411 13.296 28.411 13.104 28.411 12.864ZM39.547 19.728L43.723 7.296C44.059 5.616 44.395 4.656 44.779 4.512H45.403C49.579 4.512 51.643 6.432 51.643 10.272C51.643 10.944 51.547 11.568 51.355 12.144L47.947 22.32C47.659 23.232 47.563 24.384 47.611 25.776C47.563 26.304 47.179 26.544 46.411 26.544C41.755 26.544 39.451 24.72 39.451 21.024C39.451 20.88 39.499 20.496 39.547 19.824V19.728ZM35.035 9.072V9.312C35.755 7.824 36.859 6.336 38.347 4.896H38.299C37.963 4.896 37.243 5.52 36.235 6.72C35.419 7.68 35.035 8.448 35.035 9.072ZM63.451 12.48C63.499 12.528 63.547 12.528 63.595 12.528C63.835 12.528 63.931 12.048 63.931 11.04C63.931 10.128 63.739 9.36 63.355 8.736C62.491 7.248 61.771 6.528 61.147 6.528C61.147 6.672 61.195 6.864 61.243 7.008C62.395 9.552 63.115 11.376 63.451 12.48ZM47.947 8.112V8.592C47.947 9.984 48.187 10.656 48.619 10.656C49.051 10.656 49.243 10.224 49.243 9.312C49.243 8.304 48.907 7.824 48.283 7.824C48.091 7.824 47.995 7.92 47.947 8.112ZM33.739 22.128V22.56C33.787 22.656 33.835 22.704 33.883 22.704C33.931 22.704 33.931 22.704 33.931 22.656C34.795 21.264 35.611 20.4 36.427 20.112H36.139C34.555 20.112 33.739 20.784 33.739 22.128ZM39.499 28.704H39.547C38.443 28.176 37.099 27.312 35.419 26.064C35.371 26.016 35.275 26.016 35.227 25.968V26.064C35.227 26.688 36.043 27.36 37.627 28.08C38.539 28.512 39.163 28.704 39.499 28.704ZM87.991 1.392C88.183 1.392 88.327 1.344 88.375 1.296L89.287 0.383998C89.335 0.335999 89.479 0.287999 89.719 0.287999C92.215 0.287999 93.463 1.632 93.463 4.368C93.463 4.944 93.319 5.568 93.079 6.192C91.735 8.928 90.919 10.944 90.679 12.288C90.583 12.912 90.247 13.2 89.671 13.2C89.623 13.2 89.047 13.056 87.847 12.816C87.223 12.72 86.887 12.672 86.743 12.672H86.695L86.791 12.816C89.191 15.648 90.391 18.096 90.391 20.16C90.391 24.624 87.799 27.744 82.567 29.616C80.311 30.432 77.863 30.864 75.319 30.864C74.887 30.864 74.503 30.864 74.071 30.816C72.967 30.672 71.527 30.24 69.655 29.52C69.175 29.328 68.935 29.232 68.887 29.28C66.967 28.464 65.815 27.408 65.479 26.016C65.335 25.296 65.191 24.912 65.143 24.816V23.376C66.727 19.584 69.031 17.712 72.055 17.712C73.063 17.712 73.879 17.856 74.455 18.096C75.847 18.72 76.567 19.392 76.567 20.016C76.567 20.4 76.471 20.64 76.279 20.784C73.591 22.032 72.247 23.472 72.247 25.056C72.247 27.504 73.399 28.704 75.655 28.704C78.199 28.704 79.447 27.168 79.447 24.096V23.52C78.727 23.424 78.583 22.896 78.967 21.888L78.391 20.784L78.247 20.592C77.863 20.112 77.623 19.824 77.575 19.776L73.447 15.408C73.207 14.592 72.775 14.016 72.151 13.584L71.479 12.288C71.719 11.664 71.575 11.136 71.047 10.608V9.984C71.047 6.48 72.775 3.792 76.279 1.968C78.295 0.912 80.311 0.383998 82.375 0.383998C83.959 0.383998 85.687 0.672 87.559 1.296C87.751 1.344 87.895 1.392 87.991 1.392ZM77.095 7.344C77.095 9.072 77.815 10.608 79.255 12C81.319 13.584 82.855 14.928 83.959 16.08C84.295 16.416 84.967 17.52 86.071 19.296C86.311 19.68 86.503 19.872 86.695 19.872C87.079 19.872 87.271 19.44 87.271 18.624C87.271 17.712 86.455 16.464 84.871 14.976C83.095 13.872 81.559 12.672 80.359 11.376C78.967 9.888 78.295 8.4 78.295 6.912C78.295 5.28 79.111 3.696 80.743 2.208H80.647C79.639 2.208 78.679 2.976 77.863 4.512C77.335 5.424 77.095 6.384 77.095 7.344ZM80.503 6.528C80.503 6.768 80.503 7.056 80.551 7.296C80.839 8.304 81.847 9.408 83.575 10.704C84.487 11.376 85.351 11.904 86.167 12.288C85.879 11.952 85.639 11.424 85.447 10.704C85.399 10.464 85.399 10.176 85.399 9.888C85.399 9.12 85.831 7.872 86.647 6.192C86.743 5.952 86.791 5.616 86.791 5.184C86.791 4.656 86.359 4.032 85.447 3.312C85.303 3.024 84.823 2.88 84.007 2.88C81.655 2.88 80.503 4.08 80.503 6.528ZM90.487 3.6C90.487 4.416 90.631 4.8 90.967 4.8C91.351 4.8 91.543 4.464 91.543 3.744C91.543 3.312 91.303 3.072 90.823 3.072C90.583 3.072 90.487 3.264 90.487 3.6ZM70.807 21.264C70.855 21.264 71.239 21.072 71.959 20.688C72.919 20.16 73.447 19.872 73.543 19.872H75.367C75.319 19.632 74.743 19.488 73.687 19.488C71.767 19.488 70.807 20.064 70.807 21.264ZM73.735 29.376C73.783 29.376 73.783 29.376 73.783 29.328L72.343 28.416H72.103C72.103 29.04 72.631 29.376 73.735 29.376Z" fill="white"/>
</svg>
