<svg width="500" height="500" viewBox="0 0 500 500" fill="none" xmlns="http://www.w3.org/2000/svg">
<path d="M392.721 370.106C446.334 316.494 446.334 229.57 392.721 175.958C339.109 122.345 252.186 122.345 198.573 175.958C144.96 229.57 144.96 316.494 198.573 370.106C252.186 423.719 339.109 423.719 392.721 370.106Z" fill="#F0F6FC"/>
<path d="M192.372 302.527C261.236 302.527 317.062 246.701 317.062 177.837C317.062 108.973 261.236 53.147 192.372 53.147C123.508 53.147 67.682 108.973 67.682 177.837C67.682 246.701 123.508 302.527 192.372 302.527Z" fill="#F0F6FC"/>
<path d="M144.44 432.946C194.006 432.946 234.188 392.764 234.188 343.198C234.188 293.632 194.006 253.45 144.44 253.45C94.8735 253.45 54.692 293.632 54.692 343.198C54.692 392.764 94.8735 432.946 144.44 432.946Z" fill="#F0F6FC"/>
<path d="M246.189 260.957C246.189 258.852 247.895 257.146 250 257.146C252.105 257.146 253.811 258.852 253.811 260.957C253.811 263.062 252.105 264.768 250 264.768C247.895 264.767 246.189 263.061 246.189 260.957Z" fill="#31216D"/>
<path d="M248.21 264.038C248.21 263.05 249.011 262.248 250 262.248C250.989 262.248 251.79 263.049 251.79 264.038C251.79 265.026 250.989 265.828 250 265.828C249.011 265.828 248.21 265.027 248.21 264.038Z" fill="#5184AF"/>
<path d="M251.332 262.814H248.668C247.88 262.814 247.241 262.175 247.241 261.387V260.67C247.241 259.882 247.88 259.243 248.668 259.243H251.332C252.12 259.243 252.759 259.882 252.759 260.67V261.387C252.759 262.175 252.12 262.814 251.332 262.814Z" fill="#F75477"/>
<path d="M461.758 475.679H38.242C35.6 475.679 33.458 473.537 33.458 470.895V470.171C33.458 467.529 35.6 465.387 38.242 465.387H461.758C464.4 465.387 466.542 467.529 466.542 470.171V470.895C466.542 473.537 464.4 475.679 461.758 475.679Z" fill="#001E32"/>
<path d="M407.38 449.746H92.62V255.682C92.62 253.597 94.311 251.906 96.396 251.906H403.603C405.689 251.906 407.379 253.597 407.379 255.682V449.746H407.38Z" fill="#A0B3C1"/>
<path d="M385.329 426.633C386.499 426.633 387.448 425.684 387.448 424.514V341.373L290.316 426.633H385.329Z" fill="white"/>
<path d="M118.141 269.01C116.971 269.01 116.022 269.959 116.022 271.129V345.259L202.888 269.01H118.141Z" fill="white"/>
<path d="M387.448 271.128C387.448 269.958 386.499 269.009 385.33 269.009H280.745L116.022 413.6V424.515C116.022 425.685 116.97 426.634 118.141 426.634H212.46L387.448 273.033V271.128Z" fill="white"/>
<path d="M212.459 426.633H290.316L387.448 341.373V273.032L212.459 426.633Z" fill="white"/>
<path d="M202.888 269.01L116.022 345.259V413.6L280.745 269.01H202.888Z" fill="white"/>
<path d="M425.519 465.388H74.481C70.712 465.388 67.657 462.333 67.657 458.564V456.57C67.657 452.801 70.712 449.746 74.481 449.746H425.52C429.289 449.746 432.344 452.801 432.344 456.57V458.564C432.343 462.332 429.288 465.388 425.519 465.388Z" fill="#8398A5"/>
<path d="M274.158 460.15H225.843C224.201 460.15 222.856 458.988 222.856 457.567C222.856 456.146 224.2 454.983 225.843 454.983H274.158C275.8 454.983 277.143 456.146 277.143 457.567C277.143 458.988 275.8 460.15 274.158 460.15Z" fill="#A0B3C1"/>
<path d="M306.532 311.008L266.206 310.801L265.839 382.255L316.75 382.516L317.062 321.647L306.532 311.008Z" fill="#A0B3C1"/>
<path d="M306.477 321.593L317.062 321.647L306.532 311.008L306.477 321.593Z" fill="#C0CFDD"/>
<path d="M278.298 318.339L278.279 321.968L304.911 322.104L304.93 318.475L278.298 318.339Z" fill="white"/>
<path d="M272.072 327.912L272.066 329.122L311.056 329.32L311.062 328.11L272.072 327.912Z" fill="white"/>
<path d="M272.041 333.994L272.035 335.204L311.025 335.403L311.031 334.193L272.041 333.994Z" fill="white"/>
<path d="M272.034 340.101L272.028 341.311L311.018 341.514L311.024 340.304L272.034 340.101Z" fill="white"/>
<path d="M271.98 346.157L271.974 347.367L310.964 347.566L310.97 346.356L271.98 346.157Z" fill="white"/>
<path d="M271.948 352.237L271.942 353.447L310.932 353.646L310.938 352.436L271.948 352.237Z" fill="white"/>
<path d="M271.917 358.319L271.91 359.529L310.9 359.728L310.907 358.518L271.917 358.319Z" fill="white"/>
<path d="M271.909 364.428L271.902 365.638L289.418 365.729L289.424 364.519L271.909 364.428Z" fill="white"/>
<path d="M311.289 371.838C311.265 376.49 307.475 380.242 302.823 380.218C298.171 380.194 294.419 376.404 294.443 371.752C294.467 367.1 298.257 363.348 302.909 363.372C307.561 363.396 311.313 367.186 311.289 371.838Z" fill="white"/>
<path d="M285.12 317.308L244.794 317.1L244.427 388.555L295.338 388.816L295.651 327.947L285.12 317.308Z" fill="#F0F6FC"/>
<path d="M285.066 327.893L295.651 327.947L285.12 317.308L285.066 327.893Z" fill="#C0CFDD"/>
<path d="M256.888 324.639L256.869 328.268L283.501 328.404L283.52 324.775L256.888 324.639Z" fill="#A0B3C1"/>
<path d="M250.662 334.212L250.656 335.422L289.646 335.621L289.652 334.411L250.662 334.212Z" fill="#A0B3C1"/>
<path d="M250.631 340.293L250.625 341.503L289.615 341.702L289.621 340.492L250.631 340.293Z" fill="#A0B3C1"/>
<path d="M250.622 346.401L250.616 347.611L289.606 347.814L289.612 346.604L250.622 346.401Z" fill="#A0B3C1"/>
<path d="M250.568 352.456L250.562 353.666L289.552 353.865L289.558 352.655L250.568 352.456Z" fill="#A0B3C1"/>
<path d="M250.538 358.538L250.531 359.748L289.521 359.946L289.528 358.736L250.538 358.538Z" fill="#A0B3C1"/>
<path d="M250.506 364.619L250.5 365.829L289.49 366.028L289.496 364.818L250.506 364.619Z" fill="#A0B3C1"/>
<path d="M250.494 370.726L250.488 371.936L268.003 372.027L268.009 370.817L250.494 370.726Z" fill="#A0B3C1"/>
<path d="M289.877 378.138C289.853 382.79 286.063 386.542 281.411 386.518C276.759 386.494 273.007 382.704 273.031 378.052C273.055 373.4 276.845 369.648 281.497 369.672C286.149 369.695 289.901 373.486 289.877 378.138Z" fill="#A0B3C1"/>
<path d="M263.42 302.348L236.935 302.376C234.965 302.378 233.366 300.783 233.364 298.813L233.359 294.629C233.357 292.659 234.952 291.06 236.923 291.058L263.409 291.03C265.379 291.028 266.978 292.623 266.98 294.594L266.984 298.778C266.986 300.747 265.391 302.346 263.42 302.348Z" fill="#003954"/>
<path d="M269.374 240.776C300.727 232.253 323.775 203.571 323.739 169.505C323.696 128.756 290.646 95.757 249.921 95.8C209.195 95.843 176.216 128.912 176.259 169.661C176.295 203.726 199.404 232.359 230.775 240.816" fill="#007DF3"/>
<path d="M326.555 266.931L300.601 234.181C300.94 233.913 301.276 233.642 301.611 233.369L328.073 265.709C327.57 266.121 327.063 266.528 326.555 266.931ZM173.423 266.914C172.922 266.516 172.422 266.114 171.926 265.708L198.379 233.36C198.719 233.638 199.061 233.913 199.405 234.186L173.423 266.914ZM358.839 228.353L322.031 208.57C322.228 208.202 322.423 207.834 322.614 207.462L359.763 226.594C359.459 227.184 359.152 227.77 358.839 228.353ZM141.135 228.3C140.833 227.736 140.536 227.167 140.242 226.597L177.376 207.436C177.579 207.829 177.785 208.219 177.993 208.608L141.135 228.3ZM373.032 179.992L331.379 176.632C331.413 176.216 331.443 175.799 331.469 175.383L373.174 178.01C373.133 178.671 373.085 179.333 373.032 179.992ZM126.966 179.96C126.913 179.3 126.866 178.639 126.826 177.976L168.532 175.386C168.558 175.803 168.588 176.22 168.622 176.637L126.966 179.96ZM327.25 143.579C327.11 143.169 326.965 142.759 326.819 142.351L366.121 128.155C366.341 128.767 366.557 129.381 366.769 129.996L327.25 143.579ZM172.756 143.561L133.227 130.007C133.438 129.392 133.654 128.78 133.875 128.17L173.185 142.34C173.039 142.746 172.895 143.153 172.756 143.561ZM310.218 114.922C309.935 114.614 309.651 114.307 309.363 114.004L339.687 85.253C340.144 85.735 340.595 86.22 341.042 86.709L310.218 114.922ZM189.798 114.906L158.942 86.726C159.378 86.248 159.82 85.775 160.264 85.304L190.681 113.956C190.384 114.271 190.089 114.587 189.798 114.906ZM283.189 95.416C282.796 95.242 282.404 95.069 282.009 94.901L298.43 56.476C299.025 56.73 299.619 56.989 300.209 57.253L283.189 95.416ZM216.831 95.409L199.774 57.261C200.372 56.995 200.976 56.731 201.582 56.472L218.002 94.897C217.609 95.064 217.218 95.235 216.831 95.409ZM250.678 88.391L249.914 88.389L249.361 88.391L249.031 46.606L249.869 46.602L250.953 46.606L250.678 88.391Z" fill="#007DF3"/>
<path d="M305.312 144.884C304.794 144.597 304.354 144.149 304.079 143.572C294.163 122.819 272.912 109.426 249.937 109.453C248.294 109.451 246.971 108.129 246.972 106.494C246.97 104.858 248.294 103.532 249.929 103.529C275.178 103.504 298.53 118.22 309.424 141.02C310.13 142.496 309.504 144.263 308.029 144.968C307.127 145.396 306.121 145.333 305.312 144.884Z" fill="white"/>
<path d="M311.433 171.919C310.523 171.414 309.906 170.446 309.905 169.332C309.903 167.04 309.771 164.744 309.516 162.508C309.329 160.883 310.496 159.416 312.121 159.229C313.741 159.044 315.211 160.21 315.398 161.835C315.68 164.291 315.824 166.81 315.829 169.324C315.831 170.96 314.506 172.287 312.872 172.29C312.349 172.29 311.858 172.155 311.433 171.919Z" fill="white"/>
<path d="M224.63 203.869L224.696 266.101L275.581 266.047L275.516 203.815" fill="#007DF3"/>
<path d="M275.538 272.872L224.755 272.926C222.838 272.928 221.283 271.376 221.281 269.459L221.277 265.08C221.275 263.163 222.827 261.608 224.744 261.606L275.527 261.553C277.444 261.551 278.999 263.103 279.001 265.02L279.006 269.398C279.006 271.314 277.454 272.87 275.538 272.872Z" fill="#003954"/>
<path d="M275.562 295.51L224.779 295.564C222.862 295.566 221.307 294.014 221.305 292.097L221.3 287.719C221.298 285.802 222.85 284.247 224.767 284.245L275.55 284.191C277.467 284.189 279.022 285.741 279.024 287.657L279.029 292.035C279.031 293.953 277.479 295.508 275.562 295.51Z" fill="#003954"/>
<path d="M275.549 284.191L224.767 284.245C222.85 284.247 221.295 282.695 221.293 280.779L221.288 276.401C221.286 274.484 222.838 272.929 224.754 272.927L275.538 272.873C277.455 272.871 279.01 274.423 279.012 276.34L279.016 280.718C279.018 282.634 277.466 284.189 275.549 284.191Z" fill="#003954"/>
<path d="M251.67 193.761C246.205 193.761 241.325 192.623 237.03 190.345C232.801 188.003 229.483 184.815 227.075 180.781C224.668 176.747 223.464 172.159 223.464 167.019C223.464 161.814 224.668 157.227 227.075 153.258C229.483 149.224 232.801 146.068 237.03 143.791C241.325 141.513 246.205 140.375 251.67 140.375C256.745 140.375 261.202 141.416 265.041 143.498C268.945 145.515 271.906 148.508 273.923 152.477L264.553 157.943C262.992 155.47 261.072 153.648 258.795 152.477C256.583 151.306 254.175 150.72 251.573 150.72C248.58 150.72 245.879 151.371 243.472 152.672C241.064 153.974 239.178 155.86 237.811 158.333C236.445 160.74 235.762 163.636 235.762 167.019C235.762 170.403 236.445 173.331 237.811 175.803C239.178 178.21 241.064 180.065 243.472 181.366C245.879 182.668 248.58 183.318 251.573 183.318C254.175 183.318 256.583 182.733 258.795 181.561C261.072 180.39 262.992 178.568 264.553 176.096L273.923 181.561C271.906 185.465 268.945 188.491 265.041 190.638C261.202 192.72 256.745 193.761 251.67 193.761Z" fill="#003954"/>
<path d="M249.993 213.588C274.047 213.588 293.546 194.089 293.546 170.035C293.546 145.981 274.047 126.482 249.993 126.482C225.939 126.482 206.44 145.981 206.44 170.035C206.44 194.089 225.939 213.588 249.993 213.588Z" stroke="white" stroke-width="8" stroke-miterlimit="10"/>
<path d="M170.918 275.434H142.074V310.492H144.249L146.548 432.547H181.182L170.918 275.434Z" fill="#001E32"/>
<path d="M113.303 275.434H142.146V310.492H139.972L137.672 432.547H103.039L113.303 275.434Z" fill="#001E32"/>
<path d="M112.312 286.441L111.954 293.813L173.059 294.447L171.866 287.132L112.312 286.441Z" fill="#003954"/>
<path d="M157.035 445.781H157.716H160.036H160.817H192.372L192.994 449.309H160.892C160.681 448.441 159.904 447.83 159.011 447.83H158.739C157.846 447.83 157.069 448.441 156.858 449.308H155.462H147.8V445.78H157.035V445.781Z" fill="#001E32"/>
<path d="M148.126 432.403L176.719 431.933C189.592 435.838 192.371 445.779 192.372 445.782H147.801L148.126 432.403Z" fill="#003954"/>
<path d="M180.057 426.685H147.319V427.243H180.057V426.685Z" fill="#003954"/>
<path d="M127.185 445.781H126.504H124.184H123.403H91.849L91.227 449.309H123.329C123.54 448.441 124.317 447.83 125.21 447.83H125.482C126.375 447.83 127.152 448.441 127.363 449.308H128.759H136.421V445.78H127.185V445.781Z" fill="#001E32"/>
<path d="M136.095 432.403L107.502 431.933C94.629 435.838 91.85 445.779 91.849 445.782H136.42L136.095 432.403Z" fill="#003954"/>
<path d="M136.902 426.685H104.164V427.243H136.902V426.685Z" fill="#003954"/>
<path d="M160.368 188.935C159.575 191.16 157.476 192.387 155.678 191.677C153.88 190.967 153.066 188.588 153.858 186.364C154.651 184.139 156.75 182.912 158.548 183.622C160.346 184.332 161.161 186.711 160.368 188.935Z" fill="#FFCCC6"/>
<path d="M159.059 189.245L158.703 189.14C158.71 189.116 159.373 186.768 157.77 185.507L158 185.215C159.802 186.633 159.09 189.139 159.059 189.245Z" fill="#001E32"/>
<path d="M125.882 188.935C126.675 191.16 128.774 192.387 130.572 191.677C132.37 190.967 133.184 188.588 132.392 186.364C131.599 184.139 129.5 182.912 127.702 183.622C125.905 184.332 125.09 186.711 125.882 188.935Z" fill="#FFCCC6"/>
<path d="M126.913 189.245C126.882 189.139 126.17 186.634 127.972 185.215L128.202 185.507C126.599 186.768 127.263 189.117 127.269 189.14L126.913 189.245Z" fill="#001E32"/>
<path d="M152.187 210.009H142.683H133.178C117.61 210.009 110.727 223.632 112.616 239.085L112.311 286.441L142.682 287.293H171.865L171.504 256.165L170.268 240.035C172.157 224.581 167.756 210.009 152.187 210.009Z" fill="#007DF3"/>
<path d="M150.581 198.673L151.417 211.09H134.926L135.839 198.673H150.581Z" fill="#FFCCC6"/>
<path d="M131.021 210.135C131.021 210.135 132.429 218.401 143.304 218.401C154.179 218.401 155.23 210.208 155.23 210.208L143.304 208.591L131.021 210.135Z" fill="#FFCCC6"/>
<path d="M135.407 204.546C135.407 204.546 138.299 209.6 143.125 209.6C147.951 209.6 150.974 204.518 150.974 204.518V200.551H135.406L135.407 204.546Z" fill="#F6AFAA"/>
<path d="M157.573 183.002C157.58 182.939 157.589 182.877 157.596 182.814L157.598 182.8H157.597C157.644 182.325 157.669 181.843 157.669 181.355C157.669 173.349 151.178 166.858 143.172 166.858C135.166 166.858 128.675 173.348 128.675 181.355C128.675 181.843 128.7 182.324 128.747 182.8L128.749 182.814C128.755 182.875 128.764 182.935 128.771 182.997L130.272 195.477C130.275 195.503 130.278 195.528 130.281 195.554L130.317 195.853H130.319C131.149 202.214 136.585 207.128 143.173 207.128C149.691 207.128 155.083 202.319 156.001 196.057L156.02 195.904C156.041 195.745 156.062 195.586 156.078 195.425L157.573 183.002Z" fill="#FFCCC6"/>
<path d="M143.191 166.677C143.191 166.677 129.226 166.449 128.705 180.745C128.656 182.079 128.757 183.414 128.949 184.735L129.462 188.264C129.462 188.264 132.766 185.025 134.419 179.909H143.191H151.963C153.616 185.026 156.921 188.264 156.921 188.264L157.433 184.734C157.625 183.414 157.726 182.078 157.677 180.745C157.156 166.449 143.191 166.677 143.191 166.677Z" fill="#001E32"/>
<path d="M157.591 183.422C159.921 173.055 161.001 168.925 153.303 168.643C153.303 168.643 147.174 161.933 137.222 162.355C127.271 162.778 130.489 168.549 130.489 168.549C130.489 168.549 119.646 168.549 129.457 179.063L144.431 172.914L154.805 176.763L157.591 183.422Z" fill="#001E32"/>
<path d="M128.79 183.421L127.954 174.933L130.958 177.116L128.79 183.421Z" fill="#001E32"/>
<path d="M143.374 195.268C142.504 195.205 141.934 194.893 141.68 194.339C141.065 192.995 142.65 190.806 142.832 190.561L143.279 190.894C142.837 191.487 141.78 193.221 142.186 194.107C142.348 194.462 142.761 194.665 143.413 194.712L143.374 195.268Z" fill="#001E32"/>
<path d="M147.948 185.256L147.615 186.706L152.573 187.845L152.906 186.396L147.948 185.256Z" fill="#001E32"/>
<path d="M138.48 185.264L133.522 186.404L133.856 187.854L138.813 186.714L138.48 185.264Z" fill="#001E32"/>
<path d="M137.921 189.819C137.921 190.305 137.527 190.699 137.041 190.699C136.555 190.699 136.161 190.305 136.161 189.819C136.161 189.333 136.555 188.939 137.041 188.939C137.527 188.939 137.921 189.333 137.921 189.819Z" fill="#001E32"/>
<path d="M150.26 189.819C150.26 190.305 149.866 190.699 149.38 190.699C148.894 190.699 148.5 190.305 148.5 189.819C148.5 189.333 148.894 188.939 149.38 188.939C149.866 188.939 150.26 189.333 150.26 189.819Z" fill="#001E32"/>
<path d="M143.127 199.335C142.309 199.335 141.769 199.14 141.72 199.122L141.915 198.6C142.014 198.636 144.365 199.465 146.78 197.213L147.16 197.621C145.661 199.02 144.168 199.335 143.127 199.335Z" fill="#001E32"/>
<path d="M159.949 285.16C162.366 282.672 164.554 280.678 164.554 280.678L186.465 291.803C186.465 291.803 183.048 298.469 174.861 305.986C169.73 310.698 167.89 311.517 167.241 308.983C167.241 308.983 164.53 309.255 164.401 306.538C164.401 306.538 162.433 307.022 161.492 305.596C160.793 304.536 161.284 303.199 161.284 303.199C161.284 303.199 152.651 309.277 151.365 307.801C149.833 306.044 155.614 298.926 161.244 293.387" fill="#FFCCC6"/>
<path d="M162.897 282.236L180.796 299.825C180.796 299.825 183.372 297.036 184.22 295.127L162.897 282.236Z" fill="#F6AFAA"/>
<path d="M161.245 293.387C161.245 293.387 155.448 296.686 153.801 294.332C152.846 292.967 156.614 288.594 159.949 285.16" fill="#FFCCC6"/>
<path d="M159.279 294.447C159.279 294.447 164.009 308.745 172.762 308.125L173.059 326.462L149.692 319.21L148.39 301.297L159.279 294.447Z" fill="#001E32"/>
<path d="M136.813 310.249L136.802 311.115L148.665 311.262L148.676 310.396L136.813 310.249Z" fill="#003954"/>
<path d="M160.876 280.528L182.579 298.87C182.579 298.87 200.386 275.846 200.2 269.059C200.014 262.272 181.674 216.297 158.721 211.046L170.93 253.653L176.585 262.133C177.312 263.223 177.116 264.684 176.128 265.544L160.876 280.528Z" fill="#007DF3"/>
<path d="M169.241 240.479L168.796 240.551L171.42 256.64L171.865 256.568L169.241 240.479Z" fill="#001E32"/>
<path d="M125.563 285.16C123.147 282.672 120.958 280.678 120.958 280.678L99.047 291.803C99.047 291.803 102.464 298.469 110.651 305.986C115.782 310.698 117.622 311.517 118.271 308.983C118.271 308.983 120.982 309.255 121.111 306.538C121.111 306.538 123.079 307.022 124.02 305.596C124.719 304.536 124.228 303.199 124.228 303.199C124.228 303.199 132.861 309.277 134.147 307.801C135.679 306.044 129.898 298.926 124.268 293.387" fill="#FFCCC6"/>
<path d="M122.615 282.236L104.716 299.825C104.716 299.825 102.14 297.036 101.292 295.127L122.615 282.236Z" fill="#F6AFAA"/>
<path d="M124.267 293.387C124.267 293.387 130.064 296.686 131.711 294.332C132.666 292.967 128.898 288.594 125.563 285.16" fill="#FFCCC6"/>
<path d="M126.233 294.447C126.233 294.447 121.503 308.745 112.75 308.125L112.453 326.462L135.82 319.21L137.122 301.297L126.233 294.447Z" fill="#001E32"/>
<path d="M124.636 280.528L102.933 298.87C102.933 298.87 85.126 275.846 85.312 269.059C85.498 262.272 103.281 216.342 126.234 211.091L114.583 253.652L108.928 262.132C108.201 263.222 108.397 264.683 109.385 265.543L124.636 280.528Z" fill="#007DF3"/>
<path d="M115.005 241.467L112.381 257.556L112.826 257.629L115.45 241.54L115.005 241.467Z" fill="#001E32"/>
<path d="M176.854 263.758C178.176 262.655 182.478 260.729 189.671 263.751" stroke="#001E32" stroke-width="0.5" stroke-miterlimit="10"/>
<path d="M176.73 264.776C178.511 263.959 182.02 263.669 185.465 265.829" stroke="#001E32" stroke-width="0.5" stroke-miterlimit="10"/>
<path d="M108.565 263.758C107.243 262.655 102.94 260.729 95.748 263.751" stroke="#001E32" stroke-width="0.5" stroke-miterlimit="10"/>
<path d="M108.688 264.776C106.907 263.959 103.398 263.669 99.953 265.829" stroke="#001E32" stroke-width="0.5" stroke-miterlimit="10"/>
<path d="M155.23 210.207L151.324 209.599L143.125 213.495L134.926 209.599L131.021 210.135L134.926 227.697L143.125 224.755L151.324 227.697L155.23 210.207Z" fill="#007DF3"/>
<path d="M133.562 232.044H121.464V235.725H133.562V232.044Z" fill="#003954"/>
<path d="M127.513 236.645H121.464V243.804L127.513 245.44L133.562 243.804V236.645H127.513Z" fill="#003954"/>
<path d="M143.125 214.352V287.293" stroke="#003954" stroke-width="0.5" stroke-miterlimit="10"/>
<path d="M138.334 218.648L143.125 214.352L147.916 218.648L148.714 214.352L143.125 213.495L137.26 216.653L138.334 218.648Z" fill="#0465A8"/>
<path d="M143.125 213.495L147.916 218.648L157.454 210.641L151.324 209.599L143.125 213.495Z" fill="#003954"/>
<path d="M143.125 213.495L138.334 218.648L129.137 210.34L134.926 209.599L143.125 213.495Z" fill="#003954"/>
<path d="M102.932 298.869L98.138 292.391L114.609 278.42H117.268V275.864L118.826 274.82L124.636 280.528L102.932 298.869Z" fill="#003954"/>
<path d="M182.607 298.869L187.402 292.391L170.931 278.42H168.272V275.864L166.713 274.82L160.904 280.528L182.607 298.869Z" fill="#003954"/>
<path d="M149.242 286.183H137.16V295.048H149.242V286.183Z" fill="white"/>
<path d="M143.413 158.13C128.765 158.13 113.905 173.411 127.816 177.837H143.413H159.01C172.921 173.411 158.062 158.13 143.413 158.13Z" fill="#007DF3"/>
<path d="M127.817 177.837C127.817 177.837 131.253 173.068 143.414 173.068C155.575 173.068 159.011 177.837 159.011 177.837H127.817Z" fill="#003954"/>
<path d="M143.413 161.319C143.413 161.319 142.67 163.084 139.821 162.867V165.976C139.821 167.049 140.309 168.074 141.172 168.712C141.808 169.182 142.604 169.603 143.412 169.603C144.22 169.603 145.016 169.182 145.652 168.712C146.515 168.074 147.003 167.049 147.003 165.976V162.867C144.157 163.084 143.413 161.319 143.413 161.319Z" fill="#003954"/>
<path d="M217.302 333.057L188.174 333.496L188.006 322.341C187.885 314.31 194.32 307.678 202.35 307.557C210.381 307.436 217.013 313.871 217.134 321.902L217.302 333.057ZM192.68 328.853L212.659 328.552L212.56 321.971C212.477 316.463 207.928 312.049 202.42 312.132C196.912 312.215 192.498 316.764 192.581 322.273L192.68 328.853Z" fill="#C0CFDD"/>
<path d="M217.393 328.116L187.935 328.56C185.889 328.591 184.255 330.275 184.286 332.321L184.622 354.596C184.653 356.642 186.337 358.276 188.383 358.245L217.841 357.801C219.887 357.77 221.521 356.086 221.49 354.04L221.154 331.765C221.123 329.718 219.439 328.085 217.393 328.116ZM204.36 343.268L205.419 350.327L200.573 350.4L201.419 343.312C200.045 342.758 199.065 341.423 199.042 339.848C199.01 337.752 200.684 336.027 202.78 335.996C204.876 335.964 206.601 337.638 206.633 339.734C206.656 341.308 205.717 342.673 204.36 343.268Z" fill="#A0B3C1"/>
<path d="M374.422 302.437C365.121 301.853 361.166 297.643 359.592 295.027C359.142 294.279 358.066 294.248 357.572 294.968C355.848 297.487 351.654 301.46 342.334 301.5C341.435 301.504 340.626 302.043 340.302 302.882C338.027 308.768 331.196 331.562 357.231 341.236C383.787 333.097 378.297 309.944 376.37 303.935C376.096 303.079 375.32 302.493 374.422 302.437Z" fill="#A0B3C1"/>
<path d="M371.509 304.841C364.168 304.317 360.873 301.072 359.474 298.896C359.007 298.169 357.972 298.139 357.463 298.837C355.939 300.928 352.461 303.975 345.102 304.069C344.198 304.081 343.39 304.629 343.072 305.475C341.085 310.764 335.887 329.377 357.344 337.351C379.23 330.644 375.127 311.759 373.452 306.363C373.185 305.5 372.411 304.905 371.509 304.841Z" fill="#F0F6FC"/>
<path d="M367.533 309.897C366.782 309.268 365.664 309.367 365.035 310.117L355.561 321.424L350.588 318.36C349.869 317.916 348.913 318.036 348.33 318.688C347.674 319.42 347.736 320.544 348.468 321.2L354.597 326.69C354.661 326.747 354.74 326.81 354.812 326.861C355.854 327.591 357.29 327.339 358.02 326.297L358.082 326.208L367.847 312.275C368.365 311.529 368.242 310.492 367.533 309.897Z" fill="#A0B3C1"/>
<path d="M369.439 394.361V389.98H365.828C365.652 389.351 365.406 388.753 365.092 388.197L367.644 385.645L364.546 382.547L361.994 385.099C361.437 384.785 360.839 384.539 360.21 384.363V380.752H355.829V384.363C355.201 384.539 354.602 384.785 354.046 385.099L351.494 382.547L348.396 385.645L350.947 388.197C350.633 388.754 350.387 389.352 350.211 389.98H346.6V394.361H350.211C350.387 394.99 350.633 395.588 350.947 396.145L348.396 398.696L351.494 401.794L354.046 399.242C354.603 399.556 355.201 399.802 355.829 399.978V403.589H360.21V399.978C360.839 399.802 361.437 399.555 361.994 399.242L364.546 401.794L367.644 398.696L365.092 396.145C365.406 395.588 365.652 394.99 365.828 394.361H369.439ZM358.02 396.605C355.571 396.605 353.585 394.62 353.585 392.17C353.585 389.721 355.57 387.735 358.02 387.735C360.469 387.735 362.455 389.72 362.455 392.17C362.454 394.619 360.469 396.605 358.02 396.605Z" fill="#A0B3C1"/>
<path d="M346.577 413.379V408.998H342.966C342.79 408.37 342.544 407.771 342.23 407.215L344.782 404.663L341.684 401.565L339.132 404.116C338.575 403.802 337.977 403.556 337.348 403.38V399.769H332.967V403.38C332.338 403.556 331.74 403.802 331.183 404.116L328.632 401.565L325.534 404.663L328.086 407.215C327.772 407.772 327.526 408.37 327.35 408.998H323.739V413.379H327.35C327.526 414.008 327.772 414.606 328.086 415.163L325.534 417.715L328.632 420.813L331.183 418.261C331.74 418.575 332.338 418.821 332.967 418.997V422.608H337.348V418.997C337.977 418.821 338.575 418.575 339.132 418.261L341.684 420.813L344.782 417.715L342.23 415.163C342.544 414.606 342.79 414.008 342.966 413.379H346.577ZM335.158 415.623C332.709 415.623 330.723 413.637 330.723 411.188C330.723 408.739 332.708 406.753 335.158 406.753C337.607 406.753 339.593 408.738 339.593 411.188C339.593 413.638 337.608 415.623 335.158 415.623Z" fill="#A0B3C1"/>
<path d="M453.249 429.242L457.548 427.806L456.364 424.262C456.923 423.883 457.429 423.445 457.873 422.955L461.214 424.623L463.239 420.567L459.898 418.899C460.023 418.25 460.069 417.582 460.036 416.907L463.58 415.723L462.144 411.424L458.6 412.608C458.221 412.049 457.783 411.543 457.293 411.099L458.961 407.758L454.905 405.733L453.237 409.074C452.587 408.949 451.92 408.903 451.245 408.936L450.061 405.392L445.762 406.828L446.946 410.372C446.387 410.751 445.881 411.189 445.437 411.679L442.096 410.011L440.071 414.067L443.412 415.735C443.287 416.385 443.241 417.052 443.274 417.727L439.73 418.911L441.166 423.21L444.71 422.026C445.089 422.585 445.527 423.091 446.017 423.535L444.35 426.876L448.406 428.901L450.073 425.56C450.723 425.685 451.39 425.731 452.065 425.698L453.249 429.242ZM447.302 418.771C446.499 416.367 447.796 413.768 450.2 412.965C452.604 412.162 455.203 413.46 456.006 415.863C456.809 418.267 455.511 420.866 453.108 421.669C450.705 422.472 448.105 421.174 447.302 418.771Z" fill="#A0B3C1"/>
<path d="M433.595 410.892L436.173 410.031L435.463 407.906C435.798 407.679 436.102 407.416 436.368 407.122L438.371 408.122L439.585 405.69L437.582 404.69C437.657 404.301 437.685 403.9 437.665 403.496L439.79 402.786L438.929 400.208L436.804 400.918C436.577 400.583 436.314 400.279 436.02 400.013L437.02 398.01L434.588 396.796L433.588 398.799C433.199 398.724 432.798 398.696 432.394 398.717L431.684 396.592L429.106 397.453L429.816 399.578C429.481 399.805 429.177 400.068 428.911 400.362L426.908 399.362L425.694 401.794L427.697 402.794C427.622 403.183 427.594 403.584 427.614 403.988L425.489 404.698L426.35 407.276L428.475 406.566C428.702 406.901 428.965 407.205 429.259 407.471L428.259 409.474L430.691 410.688L431.691 408.685C432.08 408.76 432.481 408.788 432.885 408.768L433.595 410.892ZM430.029 404.614C429.548 403.173 430.326 401.614 431.767 401.132C433.208 400.65 434.767 401.429 435.248 402.87C435.73 404.311 434.952 405.87 433.51 406.352C432.069 406.833 430.511 406.055 430.029 404.614Z" fill="#A0B3C1"/>
<path d="M24.851 305.638L26.288 309.937L29.832 308.753C30.211 309.312 30.649 309.818 31.139 310.262L29.471 313.603L33.527 315.628L35.194 312.287C35.844 312.412 36.511 312.458 37.186 312.425L38.37 315.969L42.669 314.533L41.485 310.989C42.044 310.61 42.55 310.172 42.994 309.682L46.335 311.35L48.359 307.294L45.018 305.626C45.143 304.976 45.189 304.309 45.156 303.634L48.7 302.45L47.263 298.151L43.719 299.335C43.34 298.776 42.902 298.27 42.412 297.826L44.079 294.485L40.023 292.46L38.355 295.801C37.706 295.676 37.038 295.63 36.363 295.663L35.179 292.119L30.88 293.555L32.064 297.099C31.505 297.478 30.999 297.916 30.555 298.406L27.214 296.738L25.19 300.794L28.531 302.461C28.406 303.111 28.36 303.778 28.393 304.453L24.851 305.638ZM35.321 299.691C37.725 298.888 40.324 300.185 41.127 302.589C41.93 304.993 40.632 307.592 38.229 308.395C35.825 309.198 33.226 307.9 32.423 305.497C31.62 303.094 32.918 300.494 35.321 299.691Z" fill="#A0B3C1"/>
<path d="M43.2 285.983L44.061 288.561L46.186 287.851C46.413 288.186 46.676 288.49 46.97 288.756L45.97 290.759L48.402 291.973L49.402 289.97C49.791 290.045 50.192 290.072 50.596 290.052L51.306 292.177L53.884 291.316L53.174 289.191C53.509 288.964 53.813 288.701 54.079 288.407L56.082 289.407L57.296 286.975L55.293 285.975C55.368 285.586 55.395 285.185 55.376 284.781L57.501 284.071L56.64 281.493L54.515 282.203C54.288 281.868 54.025 281.564 53.731 281.298L54.731 279.295L52.299 278.081L51.299 280.084C50.91 280.009 50.509 279.981 50.105 280.001L49.395 277.876L46.817 278.737L47.527 280.862C47.192 281.089 46.888 281.352 46.622 281.646L44.619 280.646L43.405 283.078L45.408 284.078C45.333 284.467 45.305 284.868 45.325 285.272L43.2 285.983ZM49.478 282.418C50.919 281.937 52.478 282.715 52.959 284.156C53.441 285.597 52.662 287.156 51.221 287.637C49.78 288.119 48.221 287.341 47.74 285.899C47.259 284.458 48.037 282.899 49.478 282.418Z" fill="#A0B3C1"/>
<path d="M385.621 84.424C382.631 84.424 380.197 81.99 380.197 78.999C380.197 76.008 382.631 73.574 385.621 73.574C388.612 73.574 391.046 76.008 391.046 78.999C391.046 81.991 388.612 84.424 385.621 84.424ZM385.621 75.575C383.733 75.575 382.197 77.111 382.197 79C382.197 80.889 383.733 82.425 385.621 82.425C387.51 82.425 389.046 80.889 389.046 79C389.046 77.111 387.51 75.575 385.621 75.575Z" fill="#003954"/>
<path d="M367.382 51.017C364.392 51.017 361.958 48.583 361.958 45.592C361.958 42.602 364.392 40.168 367.382 40.168C370.373 40.168 372.807 42.602 372.807 45.592C372.807 48.583 370.374 51.017 367.382 51.017ZM367.382 42.168C365.494 42.168 363.958 43.704 363.958 45.592C363.958 47.481 365.494 49.017 367.382 49.017C369.271 49.017 370.807 47.481 370.807 45.592C370.807 43.704 369.271 42.168 367.382 42.168Z" fill="#003954"/>
<path d="M379.214 65.831C378.661 65.831 378.214 65.384 378.214 64.831V54.017C378.214 53.464 378.661 53.017 379.214 53.017C379.767 53.017 380.214 53.464 380.214 54.017V64.831C380.214 65.384 379.767 65.831 379.214 65.831Z" fill="#007DF3"/>
<path d="M384.622 60.424H373.807C373.254 60.424 372.807 59.977 372.807 59.424C372.807 58.871 373.254 58.424 373.807 58.424H384.622C385.175 58.424 385.622 58.871 385.622 59.424C385.622 59.977 385.174 60.424 384.622 60.424Z" fill="#007DF3"/>
<path d="M23.824 213.38C23.824 210.389 26.258 207.955 29.249 207.955C32.239 207.955 34.673 210.389 34.673 213.38C34.673 216.371 32.239 218.805 29.249 218.805C26.258 218.805 23.824 216.371 23.824 213.38ZM25.824 213.38C25.824 215.269 27.36 216.805 29.249 216.805C31.137 216.805 32.673 215.269 32.673 213.38C32.673 211.491 31.137 209.955 29.249 209.955C27.36 209.955 25.824 211.491 25.824 213.38Z" fill="#003954"/>
<path d="M42.063 179.972C42.063 176.982 44.497 174.548 47.488 174.548C50.478 174.548 52.912 176.982 52.912 179.972C52.912 182.963 50.478 185.397 47.488 185.397C44.497 185.397 42.063 182.964 42.063 179.972ZM44.063 179.972C44.063 181.861 45.599 183.397 47.488 183.397C49.376 183.397 50.912 181.861 50.912 179.972C50.912 178.084 49.376 176.548 47.488 176.548C45.599 176.548 44.063 178.085 44.063 179.972Z" fill="#003954"/>
<path d="M35.656 200.212C36.209 200.212 36.656 199.765 36.656 199.212V188.398C36.656 187.845 36.209 187.398 35.656 187.398C35.103 187.398 34.656 187.845 34.656 188.398V199.212C34.656 199.764 35.103 200.212 35.656 200.212Z" fill="#007DF3"/>
<path d="M30.249 194.804H41.063C41.616 194.804 42.063 194.357 42.063 193.804C42.063 193.251 41.616 192.804 41.063 192.804H30.249C29.696 192.804 29.249 193.251 29.249 193.804C29.249 194.357 29.696 194.804 30.249 194.804Z" fill="#007DF3"/>
<path d="M468.27 92.239C468.27 88.38 471.398 85.252 475.257 85.252C479.116 85.252 482.244 88.38 482.244 92.239C482.244 96.098 479.116 99.226 475.257 99.226C471.398 99.225 468.27 96.097 468.27 92.239Z" fill="#F0F6FC"/>
<path d="M445.596 94.982C447.664 94.982 449.341 93.3053 449.341 91.237C449.341 89.1687 447.664 87.492 445.596 87.492C443.528 87.492 441.851 89.1687 441.851 91.237C441.851 93.3053 443.528 94.982 445.596 94.982Z" fill="#F0F6FC"/>
<path d="M458.46 70.57C461.958 70.57 464.794 67.7342 464.794 64.236C464.794 60.7378 461.958 57.902 458.46 57.902C454.962 57.902 452.126 60.7378 452.126 64.236C452.126 67.7342 454.962 70.57 458.46 70.57Z" fill="#F0F6FC"/>
<path d="M122.08 50.3688C129.071 47.9563 132.783 40.3332 130.37 33.3421C127.958 26.351 120.335 22.6393 113.344 25.0517C106.352 27.4642 102.641 35.0873 105.053 42.0784C107.466 49.0695 115.089 52.7812 122.08 50.3688Z" fill="#F0F6FC"/>
<path d="M468.27 234.244C471.524 234.244 474.161 231.607 474.161 228.353C474.161 225.1 471.524 222.462 468.27 222.462C465.017 222.462 462.379 225.1 462.379 228.353C462.379 231.607 465.017 234.244 468.27 234.244Z" fill="#F0F6FC"/>
<path d="M31.162 35.859C29.697 38.807 26.12 40.009 23.172 38.544C20.224 37.079 19.022 33.502 20.488 30.554C21.953 27.606 25.53 26.404 28.478 27.87C31.425 29.334 32.627 32.911 31.162 35.859Z" fill="#F0F6FC"/>
<path d="M460.235 320.005C457.882 324.739 452.136 326.67 447.402 324.317C442.668 321.964 440.737 316.218 443.09 311.484C445.443 306.75 451.189 304.819 455.923 307.172C460.658 309.525 462.588 315.271 460.235 320.005Z" fill="#F0F6FC"/>
<path d="M474.361 343.931C473.253 346.16 470.547 347.07 468.318 345.962C466.089 344.854 465.18 342.148 466.288 339.919C467.396 337.69 470.102 336.78 472.331 337.889C474.56 338.996 475.469 341.701 474.361 343.931Z" fill="#F0F6FC"/>
<path d="M451.869 352.152C450.766 354.372 448.072 355.277 445.852 354.173C443.632 353.07 442.727 350.376 443.831 348.156C444.934 345.936 447.628 345.031 449.848 346.135C452.067 347.238 452.972 349.932 451.869 352.152Z" fill="#F0F6FC"/>
<path d="M55.096 424.563C57.8298 424.563 60.046 422.347 60.046 419.613C60.046 416.879 57.8298 414.663 55.096 414.663C52.3622 414.663 50.146 416.879 50.146 419.613C50.146 422.347 52.3622 424.563 55.096 424.563Z" fill="#F0F6FC"/>
<path d="M24.08 404.475C24.08 403.009 25.268 401.821 26.734 401.821C28.199 401.821 29.388 403.009 29.388 404.475C29.388 405.941 28.2 407.129 26.734 407.129C25.268 407.129 24.08 405.941 24.08 404.475Z" fill="#F0F6FC"/>
<path d="M38.708 387.102C38.708 384.623 40.717 382.614 43.196 382.614C45.675 382.614 47.684 384.623 47.684 387.102C47.684 389.581 45.675 391.59 43.196 391.59C40.717 391.591 38.708 389.581 38.708 387.102Z" fill="#F0F6FC"/>
<path d="M425.21 165.242C424.145 163.241 424.904 160.757 426.904 159.692C428.904 158.627 431.389 159.386 432.454 161.386C433.519 163.387 432.76 165.871 430.76 166.936C428.76 168.001 426.275 167.243 425.21 165.242Z" fill="#F0F6FC"/>
<path d="M47.064 90.37C50.836 87.946 55.859 89.04 58.283 92.812C60.707 96.584 59.614 101.607 55.841 104.031C52.069 106.455 47.046 105.361 44.622 101.589C42.198 97.817 43.292 92.794 47.064 90.37Z" fill="#F0F6FC"/>
<path d="M65.303 68.897C67.21 67.672 69.748 68.225 70.973 70.131C72.198 72.037 71.645 74.576 69.739 75.801C67.832 77.026 65.294 76.473 64.069 74.567C62.844 72.661 63.397 70.122 65.303 68.897Z" fill="#F0F6FC"/>
</svg>
