<svg width="273" height="315" viewBox="0 0 273 315" fill="none" xmlns="http://www.w3.org/2000/svg">
<line x1="203.823" y1="125.326" x2="203.823" y2="201.527" stroke="#001998" stroke-width="1.05835" stroke-dasharray="3.18 3.18"/>
<line x1="203.294" y1="200.998" x2="214.936" y2="200.998" stroke="#001998" stroke-width="1.05835" stroke-dasharray="3.18 3.18"/>
<line x1="155.139" y1="125.326" x2="155.139" y2="242.803" stroke="#001998" stroke-width="1.05835" stroke-dasharray="3.18 3.18"/>
<line x1="114.922" y1="125.327" x2="114.922" y2="221.636" stroke="#001998" stroke-width="1.05835" stroke-dasharray="3.18 3.18"/>
<line x1="91.1092" y1="221.107" x2="114.393" y2="221.107" stroke="#001998" stroke-width="1.05835" stroke-dasharray="3.18 3.18"/>
<line x1="20.7292" y1="187.769" x2="20.7292" y2="121.093" stroke="#001998" stroke-width="1.05835" stroke-dasharray="3.18 3.18"/>
<line x1="50.8921" y1="121.622" x2="21.2584" y2="121.622" stroke="#001998" stroke-width="1.05835" stroke-dasharray="3.18 3.18"/>
<rect y="187.535" width="91.7933" height="89.7071" rx="2.08621" fill="#BCC2FF"/>
<line y1="194.315" x2="91.7933" y2="194.315" stroke="black" stroke-width="1.04311"/>
<circle cx="21.9052" cy="192.751" r="2.86854" fill="#D798C4" stroke="black" stroke-width="0.521553"/>
<circle cx="10.9526" cy="191.186" r="1.56466" fill="#1E1E1E"/>
<circle cx="5.7371" cy="191.186" r="1.56466" fill="#1E1E1E"/>
<rect x="10.4311" y="203.182" width="2.08621" height="2.08621" fill="#414564"/>
<rect x="10.4311" y="209.44" width="2.08621" height="2.08621" fill="#414564"/>
<rect x="10.4311" y="215.699" width="2.08621" height="2.08621" fill="#414564"/>
<rect x="10.4311" y="221.958" width="2.08621" height="2.08621" fill="#414564"/>
<rect x="10.4311" y="228.216" width="2.08621" height="2.08621" fill="#414564"/>
<rect x="10.4311" y="234.475" width="2.08621" height="2.08621" fill="#414564"/>
<rect x="10.4311" y="240.734" width="2.08621" height="2.08621" fill="#414564"/>
<rect x="10.4311" y="246.992" width="2.08621" height="2.08621" fill="#414564"/>
<rect x="10.4311" y="253.251" width="2.08621" height="2.08621" fill="#414564"/>
<rect x="10.4311" y="259.509" width="2.08621" height="2.08621" fill="#414564"/>
<rect x="10.4311" y="265.768" width="2.08621" height="2.08621" fill="#414564"/>
<line x1="18.7759" y1="204.225" x2="38.5949" y2="204.225" stroke="#47464A" stroke-width="2.08621"/>
<line x1="27.1208" y1="210.483" x2="46.9398" y2="210.483" stroke="#47464A" stroke-width="2.08621"/>
<line x1="44.8535" y1="216.742" x2="71.9743" y2="216.742" stroke="#47464A" stroke-width="2.08621"/>
<line x1="50.0691" y1="229.26" x2="77.1898" y2="229.26" stroke="#47464A" stroke-width="2.08621"/>
<line x1="56.3277" y1="235.518" x2="83.4485" y2="235.518" stroke="#47464A" stroke-width="2.08621"/>
<line x1="41.7242" y1="204.225" x2="68.845" y2="204.225" stroke="#47464A" stroke-width="2.08621"/>
<line x1="70.9312" y1="204.225" x2="84.4916" y2="204.225" stroke="#47464A" stroke-width="2.08621"/>
<line x1="50.0691" y1="210.483" x2="61.5433" y2="210.483" stroke="#47464A" stroke-width="2.08621"/>
<line x1="64.6726" y1="210.483" x2="76.1467" y2="210.483" stroke="#47464A" stroke-width="2.08621"/>
<line x1="27.1208" y1="216.742" x2="42.7673" y2="216.742" stroke="#47464A" stroke-width="2.08621"/>
<line x1="35.4656" y1="223.001" x2="51.1122" y2="223.001" stroke="#47464A" stroke-width="2.08621"/>
<line x1="53.1984" y1="240.734" x2="68.845" y2="240.734" stroke="#47464A" stroke-width="2.08621"/>
<line x1="53.1984" y1="240.734" x2="68.845" y2="240.734" stroke="#47464A" stroke-width="2.08621"/>
<line x1="35.4656" y1="240.734" x2="51.1122" y2="240.734" stroke="#47464A" stroke-width="2.08621"/>
<line x1="22.9483" y1="234.475" x2="38.5949" y2="234.475" stroke="#47464A" stroke-width="2.08621"/>
<line x1="64.6726" y1="246.992" x2="80.3192" y2="246.992" stroke="#47464A" stroke-width="2.08621"/>
<line x1="75.1036" y1="253.251" x2="84.4916" y2="253.251" stroke="#47464A" stroke-width="2.08621"/>
<line x1="29.207" y1="259.509" x2="38.5949" y2="259.509" stroke="#47464A" stroke-width="2.08621"/>
<line x1="41.7242" y1="259.509" x2="51.1122" y2="259.509" stroke="#47464A" stroke-width="2.08621"/>
<line x1="58.4139" y1="259.509" x2="78.233" y2="259.509" stroke="#47464A" stroke-width="2.08621"/>
<line x1="26.0777" y1="265.768" x2="45.8967" y2="265.768" stroke="#47464A" stroke-width="2.08621"/>
<line x1="29.207" y1="253.251" x2="44.8536" y2="253.251" stroke="#47464A" stroke-width="2.08621"/>
<line x1="26.0777" y1="229.26" x2="45.8967" y2="229.26" stroke="#47464A" stroke-width="2.08621"/>
<line x1="40.6812" y1="246.992" x2="60.5002" y2="246.992" stroke="#47464A" stroke-width="2.08621"/>
<line x1="53.1984" y1="253.251" x2="73.0174" y2="253.251" stroke="#47464A" stroke-width="2.08621"/>
<line x1="75.1036" y1="216.742" x2="84.4916" y2="216.742" stroke="#47464A" stroke-width="2.08621"/>
<line x1="54.2415" y1="223.001" x2="63.6295" y2="223.001" stroke="#47464A" stroke-width="2.08621"/>
<line x1="70.9312" y1="223.001" x2="80.3192" y2="223.001" stroke="#47464A" stroke-width="2.08621"/>
<circle cx="64.6726" cy="223.001" r="2.86854" fill="#D798C4" stroke="black" stroke-width="0.521553"/>
<rect x="118.626" y="242.803" width="73.4347" height="71.7657" rx="1.66897" fill="#FFD7F0"/>
<line x1="118.626" y1="248.227" x2="192.061" y2="248.227" stroke="black" stroke-width="0.834485"/>
<circle cx="136.15" cy="246.975" r="2.29483" fill="#D798C4" stroke="black" stroke-width="0.417242"/>
<circle cx="127.388" cy="245.723" r="1.25173" fill="#1E1E1E"/>
<circle cx="123.216" cy="245.723" r="1.25173" fill="#1E1E1E"/>
<rect x="126.971" y="255.32" width="1.66897" height="1.66897" fill="#414564"/>
<rect x="126.971" y="260.327" width="1.66897" height="1.66897" fill="#414564"/>
<rect x="126.971" y="265.334" width="1.66897" height="1.66897" fill="#414564"/>
<rect x="126.971" y="270.341" width="1.66897" height="1.66897" fill="#414564"/>
<rect x="126.971" y="275.348" width="1.66897" height="1.66897" fill="#414564"/>
<rect x="126.971" y="280.355" width="1.66897" height="1.66897" fill="#414564"/>
<rect x="126.971" y="285.361" width="1.66897" height="1.66897" fill="#414564"/>
<rect x="126.971" y="290.368" width="1.66897" height="1.66897" fill="#414564"/>
<rect x="126.971" y="295.375" width="1.66897" height="1.66897" fill="#414564"/>
<rect x="126.971" y="300.382" width="1.66897" height="1.66897" fill="#414564"/>
<rect x="126.971" y="305.389" width="1.66897" height="1.66897" fill="#414564"/>
<line x1="133.647" y1="256.154" x2="149.502" y2="256.154" stroke="#47464A" stroke-width="1.66897"/>
<line x1="140.323" y1="261.161" x2="156.178" y2="261.161" stroke="#47464A" stroke-width="1.66897"/>
<line x1="154.509" y1="266.168" x2="176.206" y2="266.168" stroke="#47464A" stroke-width="1.66897"/>
<line x1="158.682" y1="276.182" x2="180.378" y2="276.182" stroke="#47464A" stroke-width="1.66897"/>
<line x1="163.688" y1="281.189" x2="185.385" y2="281.189" stroke="#47464A" stroke-width="1.66897"/>
<line x1="152.006" y1="256.154" x2="173.702" y2="256.154" stroke="#47464A" stroke-width="1.66897"/>
<line x1="175.371" y1="256.154" x2="186.219" y2="256.154" stroke="#47464A" stroke-width="1.66897"/>
<line x1="158.682" y1="261.161" x2="167.861" y2="261.161" stroke="#47464A" stroke-width="1.66897"/>
<line x1="170.364" y1="261.161" x2="179.544" y2="261.161" stroke="#47464A" stroke-width="1.66897"/>
<line x1="140.323" y1="266.168" x2="152.84" y2="266.168" stroke="#47464A" stroke-width="1.66897"/>
<line x1="146.999" y1="271.175" x2="159.516" y2="271.175" stroke="#47464A" stroke-width="1.66897"/>
<line x1="161.185" y1="285.362" x2="173.702" y2="285.362" stroke="#47464A" stroke-width="1.66897"/>
<line x1="161.185" y1="285.362" x2="173.702" y2="285.362" stroke="#47464A" stroke-width="1.66897"/>
<line x1="146.999" y1="285.362" x2="159.516" y2="285.362" stroke="#47464A" stroke-width="1.66897"/>
<line x1="136.985" y1="280.354" x2="149.502" y2="280.354" stroke="#47464A" stroke-width="1.66897"/>
<line x1="170.364" y1="290.369" x2="182.882" y2="290.369" stroke="#47464A" stroke-width="1.66897"/>
<line x1="178.709" y1="295.375" x2="186.219" y2="295.375" stroke="#47464A" stroke-width="1.66897"/>
<line x1="141.992" y1="300.382" x2="149.502" y2="300.382" stroke="#47464A" stroke-width="1.66897"/>
<line x1="152.006" y1="300.382" x2="159.516" y2="300.382" stroke="#47464A" stroke-width="1.66897"/>
<line x1="165.357" y1="300.382" x2="181.213" y2="300.382" stroke="#47464A" stroke-width="1.66897"/>
<line x1="139.488" y1="305.389" x2="155.344" y2="305.389" stroke="#47464A" stroke-width="1.66897"/>
<line x1="141.992" y1="295.375" x2="154.509" y2="295.375" stroke="#47464A" stroke-width="1.66897"/>
<line x1="139.488" y1="276.182" x2="155.344" y2="276.182" stroke="#47464A" stroke-width="1.66897"/>
<line x1="151.171" y1="290.369" x2="167.026" y2="290.369" stroke="#47464A" stroke-width="1.66897"/>
<line x1="161.185" y1="295.375" x2="177.04" y2="295.375" stroke="#47464A" stroke-width="1.66897"/>
<line x1="178.709" y1="266.168" x2="186.219" y2="266.168" stroke="#47464A" stroke-width="1.66897"/>
<line x1="162.019" y1="271.175" x2="169.53" y2="271.175" stroke="#47464A" stroke-width="1.66897"/>
<line x1="175.371" y1="271.175" x2="182.882" y2="271.175" stroke="#47464A" stroke-width="1.66897"/>
<circle cx="170.364" cy="271.175" r="2.29483" fill="#D798C4" stroke="black" stroke-width="0.417242"/>
<rect x="214.936" y="182.477" width="57.1507" height="60.3257" rx="2.11669" fill="#BCC2FF"/>
<line x1="214.936" y1="187.24" x2="272.086" y2="187.24" stroke="black" stroke-width="1.05835"/>
<rect x="225.519" y="196.236" width="34.9254" height="9.52512" rx="2.11669" fill="#8489C5"/>
<rect x="218.111" y="232.22" width="41.2755" height="5.29173" fill="#D9D9D9" stroke="#000C61" stroke-width="1.05835"/>
<rect x="225.519" y="209.994" width="34.9254" height="15.8752" rx="2.11669" fill="#FF897D"/>
<circle cx="220.227" cy="213.169" r="2.91045" fill="#FFD7F0" stroke="black" stroke-width="0.529173"/>
<circle cx="265.736" cy="199.411" r="2.91045" fill="#FFD7F0" stroke="black" stroke-width="0.529173"/>
<circle cx="223.614" cy="184.806" r="1.27002" fill="#78767A"/>
<circle cx="219.381" cy="184.806" r="1.27002" fill="#78767A"/>
<path d="M178.204 112.139C142.643 142.196 106.589 125.368 93.0068 113.197C79.4599 129.707 59.1397 126.073 50.6729 122.193C25.2726 109.493 29.506 84.7979 34.7977 74.0381C44.9579 54.9878 64.0786 54.1059 72.369 56.0462C79.9891 13.289 114.703 1.89417 131.107 1.54141C170.478 0.271396 189.845 28.5292 194.608 42.8169C215.775 36.4668 233.414 45.4627 239.588 50.7544C263.718 65.5713 254.934 92.5591 247.525 104.201C220.008 139.761 189.845 124.31 178.204 112.139Z" fill="#DFE0FF" stroke="black" stroke-width="1.05835"/>
</svg>
