<svg width="80" height="80" viewBox="0 0 80 80" fill="none" xmlns="http://www.w3.org/2000/svg">
<path d="M66.2266 8.75H13.7734C11 8.75 8.75 11 8.75 13.7734V66.2266C8.75 69 11 71.25 13.7734 71.25H66.2266C69 71.25 71.25 69 71.25 66.2266V13.7734C71.25 11 69 8.75 66.2266 8.75ZM66.2266 66.25C31.2422 66.2422 13.75 66.2344 13.75 66.2266C13.7578 31.2422 13.7656 13.75 13.7734 13.75C48.7578 13.7578 66.25 13.7656 66.25 13.7734C66.2422 48.7578 66.2344 66.25 66.2266 66.25ZM18.0156 32.1797H27.2891V62.0078H18.0156V32.1797ZM22.6562 28.1016C25.6172 28.1016 28.0312 25.6953 28.0312 22.7266C28.0312 22.0207 27.8922 21.3218 27.6221 20.6696C27.352 20.0175 26.9561 19.425 26.4569 18.9259C25.9578 18.4267 25.3653 18.0308 24.7132 17.7607C24.061 17.4906 23.3621 17.3516 22.6562 17.3516C21.9504 17.3516 21.2515 17.4906 20.5993 17.7607C19.9472 18.0308 19.3547 18.4267 18.8556 18.9259C18.3564 19.425 17.9605 20.0175 17.6904 20.6696C17.4203 21.3218 17.2812 22.0207 17.2812 22.7266C17.2734 25.6953 19.6797 28.1016 22.6562 28.1016ZM42.3672 47.25C42.3672 43.3594 43.1094 39.5938 47.9297 39.5938C52.6797 39.5938 52.75 44.0391 52.75 47.5V62.0078H62.0156V45.6484C62.0156 37.6172 60.2812 31.4375 50.8984 31.4375C46.3906 31.4375 43.3672 33.9141 42.125 36.2578H42V32.1797H33.1016V62.0078H42.3672V47.25Z" fill="#152FC6"/>
</svg>
